<?xml version="1.0" encoding="UTF-8" standalone="no"?>
<!DOCTYPE svg PUBLIC "-//W3C//DTD SVG 1.1//EN"
 "http://www.w3.org/Graphics/SVG/1.1/DTD/svg11.dtd">
<!-- Generated by graphviz version 2.47.3 (20210619.1520)
 -->
<!-- Title: dependencies Pages: 1 -->
<svg width="4288pt" height="399pt"
 viewBox="0.00 0.00 4288.00 398.80" xmlns="http://www.w3.org/2000/svg" xmlns:xlink="http://www.w3.org/1999/xlink">
<g id="graph0" class="graph" transform="scale(1 1) rotate(0) translate(4 394.8)">
<title>dependencies</title>
<polygon fill="white" stroke="transparent" points="-4,4 -4,-394.8 4284,-394.8 4284,4 -4,4"/>
<text text-anchor="middle" x="2140" y="-8.2" font-family="sans-serif" font-size="14.00">dependencies</text>
<g id="clust1" class="cluster">
<title>cluster_AllenamentiModule</title>
<polygon fill="none" stroke="black" stroke-dasharray="1,5" points="1263,-32.8 1263,-244.8 2583,-244.8 2583,-32.8 1263,-32.8"/>
</g>
<g id="clust2" class="cluster">
<title>cluster_AllenamentiModule_declarations</title>
<polygon fill="none" stroke="black" points="1271,-116.8 1271,-168.8 2441,-168.8 2441,-116.8 1271,-116.8"/>
</g>
<g id="clust9" class="cluster">
<title>cluster_AllenamentiModule_imports</title>
<polygon fill="none" stroke="black" points="2449,-40.8 2449,-168.8 2563,-168.8 2563,-40.8 2449,-40.8"/>
</g>
<g id="clust13" class="cluster">
<title>cluster_AppModule</title>
<polygon fill="none" stroke="black" stroke-dasharray="1,5" points="2591,-184.8 2591,-382.8 3009,-382.8 3009,-184.8 2591,-184.8"/>
</g>
<g id="clust14" class="cluster">
<title>cluster_AppModule_declarations</title>
<polygon fill="none" stroke="black" points="2879,-192.8 2879,-244.8 3001,-244.8 3001,-192.8 2879,-192.8"/>
</g>
<g id="clust16" class="cluster">
<title>cluster_AppModule_imports</title>
<polygon fill="none" stroke="black" points="2599,-192.8 2599,-244.8 2871,-244.8 2871,-192.8 2599,-192.8"/>
</g>
<g id="clust18" class="cluster">
<title>cluster_AppModule_bootstrap</title>
<polygon fill="none" stroke="black" points="2677,-322.8 2677,-374.8 2801,-374.8 2801,-322.8 2677,-322.8"/>
</g>
<g id="clust26" class="cluster">
<title>cluster_BaseModule</title>
<polygon fill="none" stroke="black" stroke-dasharray="1,5" points="2659,-108.8 2659,-176.8 3942,-176.8 3942,-108.8 2659,-108.8"/>
</g>
<g id="clust27" class="cluster">
<title>cluster_BaseModule_declarations</title>
<polygon fill="none" stroke="black" points="3318,-116.8 3318,-168.8 3934,-168.8 3934,-116.8 3318,-116.8"/>
</g>
<g id="clust33" class="cluster">
<title>cluster_BaseModule_exports</title>
<polygon fill="none" stroke="black" points="2667,-116.8 2667,-168.8 3310,-168.8 3310,-116.8 2667,-116.8"/>
</g>
<g id="clust36" class="cluster">
<title>cluster_GestioneModule</title>
<polygon fill="none" stroke="black" stroke-dasharray="1,5" points="3950,-108.8 3950,-176.8 4272,-176.8 4272,-108.8 3950,-108.8"/>
</g>
<g id="clust37" class="cluster">
<title>cluster_GestioneModule_declarations</title>
<polygon fill="none" stroke="black" points="4116,-116.8 4116,-168.8 4264,-168.8 4264,-116.8 4116,-116.8"/>
</g>
<g id="clust40" class="cluster">
<title>cluster_GestioneModule_exports</title>
<polygon fill="none" stroke="black" points="3958,-116.8 3958,-168.8 4108,-168.8 4108,-116.8 3958,-116.8"/>
</g>
<g id="clust43" class="cluster">
<title>cluster_SharedModule</title>
<polygon fill="none" stroke="black" stroke-dasharray="1,5" points="8,-32.8 8,-100.8 1255,-100.8 1255,-32.8 8,-32.8"/>
</g>
<g id="clust44" class="cluster">
<title>cluster_SharedModule_declarations</title>
<polygon fill="none" stroke="black" points="122,-40.8 122,-92.8 1247,-92.8 1247,-40.8 122,-40.8"/>
</g>
<g id="clust54" class="cluster">
<title>cluster_SharedModule_exports</title>
<polygon fill="none" stroke="black" points="16,-40.8 16,-92.8 114,-92.8 114,-40.8 16,-40.8"/>
</g>
<!-- AllenamentiComponent -->
<g id="node1" class="node">
<title>AllenamentiComponent</title>
<polygon fill="#ffffb3" stroke="black" points="2433.04,-160.8 2282.96,-160.8 2282.96,-124.8 2433.04,-124.8 2433.04,-160.8"/>
<text text-anchor="middle" x="2358" y="-138.6" font-family="Times,serif" font-size="14.00">AllenamentiComponent</text>
</g>
<!-- AllenamentiModule -->
<g id="node7" class="node">
<title>AllenamentiModule</title>
<polygon fill="#8dd3c7" stroke="black" points="2234.25,-236.8 2231.25,-240.8 2210.25,-240.8 2207.25,-236.8 2105.75,-236.8 2105.75,-200.8 2234.25,-200.8 2234.25,-236.8"/>
<text text-anchor="middle" x="2170" y="-214.6" font-family="Times,serif" font-size="14.00">AllenamentiModule</text>
</g>
<!-- AllenamentiComponent&#45;&gt;AllenamentiModule -->
<g id="edge1" class="edge">
<title>AllenamentiComponent&#45;&gt;AllenamentiModule</title>
<path fill="none" stroke="black" d="M2358,-161.11C2358,-180.95 2358,-209.8 2358,-209.8 2358,-209.8 2244.44,-209.8 2244.44,-209.8"/>
<polygon fill="black" stroke="black" points="2244.44,-206.3 2234.44,-209.8 2244.44,-213.3 2244.44,-206.3"/>
</g>
<!-- AllenamentoAttivoComponent -->
<g id="node2" class="node">
<title>AllenamentoAttivoComponent</title>
<polygon fill="#ffffb3" stroke="black" points="2264.92,-160.8 2075.08,-160.8 2075.08,-124.8 2264.92,-124.8 2264.92,-160.8"/>
<text text-anchor="middle" x="2170" y="-138.6" font-family="Times,serif" font-size="14.00">AllenamentoAttivoComponent</text>
</g>
<!-- AllenamentoAttivoComponent&#45;&gt;AllenamentiModule -->
<g id="edge2" class="edge">
<title>AllenamentoAttivoComponent&#45;&gt;AllenamentiModule</title>
<path fill="none" stroke="black" d="M2170,-160.81C2170,-160.81 2170,-190.65 2170,-190.65"/>
<polygon fill="black" stroke="black" points="2166.5,-190.65 2170,-200.65 2173.5,-190.65 2166.5,-190.65"/>
</g>
<!-- AllenamentoComponent -->
<g id="node3" class="node">
<title>AllenamentoComponent</title>
<polygon fill="#ffffb3" stroke="black" points="2056.65,-160.8 1903.35,-160.8 1903.35,-124.8 2056.65,-124.8 2056.65,-160.8"/>
<text text-anchor="middle" x="1980" y="-138.6" font-family="Times,serif" font-size="14.00">AllenamentoComponent</text>
</g>
<!-- AllenamentoComponent&#45;&gt;AllenamentiModule -->
<g id="edge3" class="edge">
<title>AllenamentoComponent&#45;&gt;AllenamentiModule</title>
<path fill="none" stroke="black" d="M1980,-160.83C1980,-180.38 1980,-208.8 1980,-208.8 1980,-208.8 2095.67,-208.8 2095.67,-208.8"/>
<polygon fill="black" stroke="black" points="2095.67,-212.3 2105.67,-208.8 2095.67,-205.3 2095.67,-212.3"/>
</g>
<!-- AllenamentoPreviewComponent -->
<g id="node4" class="node">
<title>AllenamentoPreviewComponent</title>
<polygon fill="#ffffb3" stroke="black" points="1884.52,-160.8 1685.48,-160.8 1685.48,-124.8 1884.52,-124.8 1884.52,-160.8"/>
<text text-anchor="middle" x="1785" y="-138.6" font-family="Times,serif" font-size="14.00">AllenamentoPreviewComponent</text>
</g>
<!-- AllenamentoPreviewComponent&#45;&gt;AllenamentiModule -->
<g id="edge4" class="edge">
<title>AllenamentoPreviewComponent&#45;&gt;AllenamentiModule</title>
<path fill="none" stroke="black" d="M1785,-160.84C1785,-182.46 1785,-215.8 1785,-215.8 1785,-215.8 2095.56,-215.8 2095.56,-215.8"/>
<polygon fill="black" stroke="black" points="2095.56,-219.3 2105.56,-215.8 2095.56,-212.3 2095.56,-219.3"/>
</g>
<!-- BeforeAllenamentoComponent -->
<g id="node5" class="node">
<title>BeforeAllenamentoComponent</title>
<polygon fill="#ffffb3" stroke="black" points="1666.73,-160.8 1475.27,-160.8 1475.27,-124.8 1666.73,-124.8 1666.73,-160.8"/>
<text text-anchor="middle" x="1571" y="-138.6" font-family="Times,serif" font-size="14.00">BeforeAllenamentoComponent</text>
</g>
<!-- BeforeAllenamentoComponent&#45;&gt;AllenamentiModule -->
<g id="edge5" class="edge">
<title>BeforeAllenamentoComponent&#45;&gt;AllenamentiModule</title>
<path fill="none" stroke="black" d="M1571,-160.95C1571,-184.56 1571,-222.8 1571,-222.8 1571,-222.8 2095.61,-222.8 2095.61,-222.8"/>
<polygon fill="black" stroke="black" points="2095.61,-226.3 2105.61,-222.8 2095.61,-219.3 2095.61,-226.3"/>
</g>
<!-- ListaAllenamentiComponent -->
<g id="node6" class="node">
<title>ListaAllenamentiComponent</title>
<polygon fill="#ffffb3" stroke="black" points="1457.03,-160.8 1278.97,-160.8 1278.97,-124.8 1457.03,-124.8 1457.03,-160.8"/>
<text text-anchor="middle" x="1368" y="-138.6" font-family="Times,serif" font-size="14.00">ListaAllenamentiComponent</text>
</g>
<!-- ListaAllenamentiComponent&#45;&gt;AllenamentiModule -->
<g id="edge6" class="edge">
<title>ListaAllenamentiComponent&#45;&gt;AllenamentiModule</title>
<path fill="none" stroke="black" d="M1368,-160.83C1368,-186.31 1368,-229.8 1368,-229.8 1368,-229.8 2095.72,-229.8 2095.72,-229.8"/>
<polygon fill="black" stroke="black" points="2095.72,-233.3 2105.72,-229.8 2095.72,-226.3 2095.72,-233.3"/>
</g>
<!-- AppModule -->
<g id="node11" class="node">
<title>AppModule</title>
<polygon fill="#8dd3c7" stroke="black" points="2780.66,-301.8 2777.66,-305.8 2756.66,-305.8 2753.66,-301.8 2697.34,-301.8 2697.34,-265.8 2780.66,-265.8 2780.66,-301.8"/>
<text text-anchor="middle" x="2739" y="-279.6" font-family="Times,serif" font-size="14.00">AppModule</text>
</g>
<!-- AllenamentiModule&#45;&gt;AppModule -->
<g id="edge10" class="edge">
<title>AllenamentiModule&#45;&gt;AppModule</title>
<path fill="none" stroke="black" d="M2170,-237.09C2170,-259.01 2170,-292.8 2170,-292.8 2170,-292.8 2687.16,-292.8 2687.16,-292.8"/>
<polygon fill="black" stroke="black" points="2687.16,-296.3 2697.16,-292.8 2687.16,-289.3 2687.16,-296.3"/>
</g>
<!-- BaseModule -->
<g id="node8" class="node">
<title>BaseModule</title>
<polygon fill="#8dd3c7" stroke="black" points="2555.26,-84.8 2552.26,-88.8 2531.26,-88.8 2528.26,-84.8 2468.74,-84.8 2468.74,-48.8 2555.26,-48.8 2555.26,-84.8"/>
<text text-anchor="middle" x="2512" y="-62.6" font-family="Times,serif" font-size="14.00">BaseModule</text>
</g>
<!-- BaseModule&#45;&gt;AllenamentiModule -->
<g id="edge7" class="edge">
<title>BaseModule&#45;&gt;AllenamentiModule</title>
<path fill="none" stroke="black" d="M2468.45,-72.8C2455.66,-72.8 2445.03,-72.8 2445.03,-72.8 2445.03,-72.8 2445.03,-218.8 2445.03,-218.8 2445.03,-218.8 2244.48,-218.8 2244.48,-218.8"/>
<polygon fill="black" stroke="black" points="2244.48,-215.3 2234.48,-218.8 2244.48,-222.3 2244.48,-215.3"/>
</g>
<!-- SharedModule -->
<g id="node9" class="node">
<title>SharedModule</title>
<polygon fill="#8dd3c7" stroke="black" points="2555.42,-160.8 2552.42,-164.8 2531.42,-164.8 2528.42,-160.8 2456.58,-160.8 2456.58,-124.8 2555.42,-124.8 2555.42,-160.8"/>
<text text-anchor="middle" x="2506" y="-138.6" font-family="Times,serif" font-size="14.00">SharedModule</text>
</g>
<!-- BaseModule&#45;&gt;SharedModule -->
<g id="edge37" class="edge">
<title>BaseModule&#45;&gt;SharedModule</title>
<path fill="none" stroke="black" d="M2540.78,-84.81C2540.78,-84.81 2540.78,-114.65 2540.78,-114.65"/>
<polygon fill="black" stroke="black" points="2537.28,-114.65 2540.78,-124.65 2544.28,-114.65 2537.28,-114.65"/>
</g>
<!-- BaseModule&#45;&gt;AppModule -->
<g id="edge12" class="edge">
<title>BaseModule&#45;&gt;AppModule</title>
<path fill="none" stroke="black" d="M2555.3,-75.8C2569.17,-75.8 2581,-75.8 2581,-75.8 2581,-75.8 2581,-274.8 2581,-274.8 2581,-274.8 2687.07,-274.8 2687.07,-274.8"/>
<polygon fill="black" stroke="black" points="2687.07,-278.3 2697.07,-274.8 2687.07,-271.3 2687.07,-278.3"/>
</g>
<!-- GestioneModule -->
<g id="node13" class="node">
<title>GestioneModule</title>
<polygon fill="#8dd3c7" stroke="black" points="2862.81,-236.8 2859.81,-240.8 2838.81,-240.8 2835.81,-236.8 2753.19,-236.8 2753.19,-200.8 2862.81,-200.8 2862.81,-236.8"/>
<text text-anchor="middle" x="2808" y="-214.6" font-family="Times,serif" font-size="14.00">GestioneModule</text>
</g>
<!-- BaseModule&#45;&gt;GestioneModule -->
<g id="edge26" class="edge">
<title>BaseModule&#45;&gt;GestioneModule</title>
<path fill="none" stroke="black" d="M2555.47,-72.8C2641.37,-72.8 2824.63,-72.8 2824.63,-72.8 2824.63,-72.8 2824.63,-190.6 2824.63,-190.6"/>
<polygon fill="black" stroke="black" points="2821.13,-190.6 2824.63,-200.6 2828.13,-190.6 2821.13,-190.6"/>
</g>
<!-- AppRoutingModule  -->
<g id="node19" class="node">
<title>AppRoutingModule </title>
<polygon fill="#fb8072" stroke="black" points="2966.27,-160.8 2833.73,-160.8 2833.73,-124.8 2966.27,-124.8 2966.27,-160.8"/>
<text text-anchor="middle" x="2900" y="-138.6" font-family="Times,serif" font-size="14.00">AppRoutingModule </text>
</g>
<!-- BaseModule&#45;&gt;AppRoutingModule  -->
<g id="edge21" class="edge">
<title>BaseModule&#45;&gt;AppRoutingModule </title>
<path fill="none" stroke="black" stroke-dasharray="5,2" d="M2555.38,-69.8C2656.63,-69.8 2900,-69.8 2900,-69.8 2900,-69.8 2900,-114.76 2900,-114.76"/>
<polygon fill="black" stroke="black" points="2896.5,-114.76 2900,-124.76 2903.5,-114.76 2896.5,-114.76"/>
</g>
<!-- InputDateComponent  -->
<g id="node20" class="node">
<title>InputDateComponent </title>
<polygon fill="#fb8072" stroke="black" points="2815.31,-160.8 2674.69,-160.8 2674.69,-124.8 2815.31,-124.8 2815.31,-160.8"/>
<text text-anchor="middle" x="2745" y="-138.6" font-family="Times,serif" font-size="14.00">InputDateComponent </text>
</g>
<!-- BaseModule&#45;&gt;InputDateComponent  -->
<g id="edge22" class="edge">
<title>BaseModule&#45;&gt;InputDateComponent </title>
<path fill="none" stroke="black" stroke-dasharray="5,2" d="M2555.28,-78.8C2622.66,-78.8 2745,-78.8 2745,-78.8 2745,-78.8 2745,-114.63 2745,-114.63"/>
<polygon fill="black" stroke="black" points="2741.5,-114.63 2745,-124.63 2748.5,-114.63 2741.5,-114.63"/>
</g>
<!-- InputNumberComponent  -->
<g id="node21" class="node">
<title>InputNumberComponent </title>
<polygon fill="#fb8072" stroke="black" points="3302.26,-160.8 3141.74,-160.8 3141.74,-124.8 3302.26,-124.8 3302.26,-160.8"/>
<text text-anchor="middle" x="3222" y="-138.6" font-family="Times,serif" font-size="14.00">InputNumberComponent </text>
</g>
<!-- BaseModule&#45;&gt;InputNumberComponent  -->
<g id="edge23" class="edge">
<title>BaseModule&#45;&gt;InputNumberComponent </title>
<path fill="none" stroke="black" stroke-dasharray="5,2" d="M2555.34,-63.8C2709.5,-63.8 3222,-63.8 3222,-63.8 3222,-63.8 3222,-114.48 3222,-114.48"/>
<polygon fill="black" stroke="black" points="3218.5,-114.48 3222,-124.48 3225.5,-114.48 3218.5,-114.48"/>
</g>
<!-- InputTextComponent  -->
<g id="node22" class="node">
<title>InputTextComponent </title>
<polygon fill="#fb8072" stroke="black" points="3124.04,-160.8 2983.96,-160.8 2983.96,-124.8 3124.04,-124.8 3124.04,-160.8"/>
<text text-anchor="middle" x="3054" y="-138.6" font-family="Times,serif" font-size="14.00">InputTextComponent </text>
</g>
<!-- BaseModule&#45;&gt;InputTextComponent  -->
<g id="edge24" class="edge">
<title>BaseModule&#45;&gt;InputTextComponent </title>
<path fill="none" stroke="black" stroke-dasharray="5,2" d="M2555.44,-66.8C2684.05,-66.8 3054,-66.8 3054,-66.8 3054,-66.8 3054,-114.79 3054,-114.79"/>
<polygon fill="black" stroke="black" points="3050.5,-114.79 3054,-124.79 3057.5,-114.79 3050.5,-114.79"/>
</g>
<!-- SharedModule&#45;&gt;AllenamentiModule -->
<g id="edge8" class="edge">
<title>SharedModule&#45;&gt;AllenamentiModule</title>
<path fill="none" stroke="black" d="M2481.39,-160.83C2481.39,-185.78 2481.39,-227.8 2481.39,-227.8 2481.39,-227.8 2244.52,-227.8 2244.52,-227.8"/>
<polygon fill="black" stroke="black" points="2244.52,-224.3 2234.52,-227.8 2244.52,-231.3 2244.52,-224.3"/>
</g>
<!-- SharedModule&#45;&gt;AppModule -->
<g id="edge14" class="edge">
<title>SharedModule&#45;&gt;AppModule</title>
<path fill="none" stroke="black" d="M2530.61,-160.94C2530.61,-199.03 2530.61,-283.8 2530.61,-283.8 2530.61,-283.8 2687.33,-283.8 2687.33,-283.8"/>
<polygon fill="black" stroke="black" points="2687.33,-287.3 2697.33,-283.8 2687.33,-280.3 2687.33,-287.3"/>
</g>
<!-- SharedModule&#45;&gt;GestioneModule -->
<g id="edge27" class="edge">
<title>SharedModule&#45;&gt;GestioneModule</title>
<path fill="none" stroke="black" d="M2506,-160.95C2506,-174.54 2506,-190.8 2506,-190.8 2506,-190.8 2784.37,-190.8 2784.37,-190.8 2784.37,-190.8 2784.37,-191.78 2784.37,-191.78"/>
<polygon fill="black" stroke="black" points="2780.87,-190.59 2784.37,-200.59 2787.87,-190.59 2780.87,-190.59"/>
</g>
<!-- SearchPipe  -->
<g id="node33" class="node">
<title>SearchPipe </title>
<polygon fill="#fb8072" stroke="black" points="106.48,-84.8 23.52,-84.8 23.52,-48.8 106.48,-48.8 106.48,-84.8"/>
<text text-anchor="middle" x="65" y="-62.6" font-family="Times,serif" font-size="14.00">SearchPipe </text>
</g>
<!-- SharedModule&#45;&gt;SearchPipe  -->
<g id="edge38" class="edge">
<title>SharedModule&#45;&gt;SearchPipe </title>
<path fill="none" stroke="black" stroke-dasharray="5,2" d="M2483.05,-124.67C2483.05,-114.09 2483.05,-102.8 2483.05,-102.8 2483.05,-102.8 65,-102.8 65,-102.8 65,-102.8 65,-95.22 65,-95.22"/>
<polygon fill="black" stroke="black" points="68.5,-95.22 65,-85.22 61.5,-95.22 68.5,-95.22"/>
</g>
<!-- AppComponent -->
<g id="node10" class="node">
<title>AppComponent</title>
<polygon fill="#ffffb3" stroke="black" points="2992.94,-236.8 2887.06,-236.8 2887.06,-200.8 2992.94,-200.8 2992.94,-236.8"/>
<text text-anchor="middle" x="2940" y="-214.6" font-family="Times,serif" font-size="14.00">AppComponent</text>
</g>
<!-- AppComponent&#45;&gt;AppModule -->
<g id="edge9" class="edge">
<title>AppComponent&#45;&gt;AppModule</title>
<path fill="none" stroke="black" d="M2940,-236.91C2940,-256.14 2940,-283.8 2940,-283.8 2940,-283.8 2791.14,-283.8 2791.14,-283.8"/>
<polygon fill="black" stroke="black" points="2791.14,-280.3 2781.14,-283.8 2791.14,-287.3 2791.14,-280.3"/>
</g>
<!-- AppComponent  -->
<g id="node14" class="node">
<title>AppComponent </title>
<polygon fill="#80b1d3" stroke="black" points="2793.44,-366.8 2684.56,-366.8 2684.56,-330.8 2793.44,-330.8 2793.44,-366.8"/>
<text text-anchor="middle" x="2739" y="-344.6" font-family="Times,serif" font-size="14.00">AppComponent </text>
</g>
<!-- AppModule&#45;&gt;AppComponent  -->
<g id="edge15" class="edge">
<title>AppModule&#45;&gt;AppComponent </title>
<path fill="none" stroke="black" stroke-dasharray="1,5" d="M2739,-301.91C2739,-301.91 2739,-320.79 2739,-320.79"/>
<polygon fill="black" stroke="black" points="2735.5,-320.79 2739,-330.79 2742.5,-320.79 2735.5,-320.79"/>
</g>
<!-- AppRoutingModule -->
<g id="node12" class="node">
<title>AppRoutingModule</title>
<polygon fill="#8dd3c7" stroke="black" points="2735.27,-236.8 2732.27,-240.8 2711.27,-240.8 2708.27,-236.8 2606.73,-236.8 2606.73,-200.8 2735.27,-200.8 2735.27,-236.8"/>
<text text-anchor="middle" x="2671" y="-214.6" font-family="Times,serif" font-size="14.00">AppRoutingModule</text>
</g>
<!-- AppRoutingModule&#45;&gt;BaseModule -->
<g id="edge20" class="edge">
<title>AppRoutingModule&#45;&gt;BaseModule</title>
<path fill="none" stroke="black" d="M2640.6,-200.61C2640.6,-163.34 2640.6,-81.8 2640.6,-81.8 2640.6,-81.8 2565.54,-81.8 2565.54,-81.8"/>
<polygon fill="black" stroke="black" points="2565.54,-78.3 2555.54,-81.8 2565.54,-85.3 2565.54,-78.3"/>
</g>
<!-- AppRoutingModule&#45;&gt;AppModule -->
<g id="edge11" class="edge">
<title>AppRoutingModule&#45;&gt;AppModule</title>
<path fill="none" stroke="black" d="M2716.28,-236.91C2716.28,-236.91 2716.28,-255.79 2716.28,-255.79"/>
<polygon fill="black" stroke="black" points="2712.78,-255.79 2716.28,-265.79 2719.78,-255.79 2712.78,-255.79"/>
</g>
<!-- GestioneModule&#45;&gt;AppModule -->
<g id="edge13" class="edge">
<title>GestioneModule&#45;&gt;AppModule</title>
<path fill="none" stroke="black" d="M2767.09,-236.91C2767.09,-236.91 2767.09,-255.79 2767.09,-255.79"/>
<polygon fill="black" stroke="black" points="2763.59,-255.79 2767.09,-265.79 2770.59,-255.79 2763.59,-255.79"/>
</g>
<!-- GestioneComponent  -->
<g id="node24" class="node">
<title>GestioneComponent </title>
<polygon fill="#fb8072" stroke="black" points="4100.09,-160.8 3965.91,-160.8 3965.91,-124.8 4100.09,-124.8 4100.09,-160.8"/>
<text text-anchor="middle" x="4033" y="-138.6" font-family="Times,serif" font-size="14.00">GestioneComponent </text>
</g>
<!-- GestioneModule&#45;&gt;GestioneComponent  -->
<g id="edge28" class="edge">
<title>GestioneModule&#45;&gt;GestioneComponent </title>
<path fill="none" stroke="black" stroke-dasharray="5,2" d="M2853.06,-200.65C2853.06,-187.06 2853.06,-170.8 2853.06,-170.8 2853.06,-170.8 4033,-170.8 4033,-170.8 4033,-170.8 4033,-169.82 4033,-169.82"/>
<polygon fill="black" stroke="black" points="4036.5,-171.01 4033,-161.01 4029.5,-171.01 4036.5,-171.01"/>
</g>
<!-- HomeComponent -->
<g id="node15" class="node">
<title>HomeComponent</title>
<polygon fill="#ffffb3" stroke="black" points="3596.55,-160.8 3481.45,-160.8 3481.45,-124.8 3596.55,-124.8 3596.55,-160.8"/>
<text text-anchor="middle" x="3539" y="-138.6" font-family="Times,serif" font-size="14.00">HomeComponent</text>
</g>
<!-- HomeComponent&#45;&gt;BaseModule -->
<g id="edge16" class="edge">
<title>HomeComponent&#45;&gt;BaseModule</title>
<path fill="none" stroke="black" d="M3539,-124.77C3539,-99.82 3539,-57.8 3539,-57.8 3539,-57.8 2565.47,-57.8 2565.47,-57.8"/>
<polygon fill="black" stroke="black" points="2565.47,-54.3 2555.47,-57.8 2565.47,-61.3 2565.47,-54.3"/>
</g>
<!-- InputDateComponent -->
<g id="node16" class="node">
<title>InputDateComponent</title>
<polygon fill="#ffffb3" stroke="black" points="3463.81,-160.8 3326.19,-160.8 3326.19,-124.8 3463.81,-124.8 3463.81,-160.8"/>
<text text-anchor="middle" x="3395" y="-138.6" font-family="Times,serif" font-size="14.00">InputDateComponent</text>
</g>
<!-- InputDateComponent&#45;&gt;BaseModule -->
<g id="edge17" class="edge">
<title>InputDateComponent&#45;&gt;BaseModule</title>
<path fill="none" stroke="black" d="M3395,-124.6C3395,-100.44 3395,-60.8 3395,-60.8 3395,-60.8 2565.49,-60.8 2565.49,-60.8"/>
<polygon fill="black" stroke="black" points="2565.49,-57.3 2555.49,-60.8 2565.49,-64.3 2565.49,-57.3"/>
</g>
<!-- InputNumberComponent -->
<g id="node17" class="node">
<title>InputNumberComponent</title>
<polygon fill="#ffffb3" stroke="black" points="3926.26,-160.8 3769.74,-160.8 3769.74,-124.8 3926.26,-124.8 3926.26,-160.8"/>
<text text-anchor="middle" x="3848" y="-138.6" font-family="Times,serif" font-size="14.00">InputNumberComponent</text>
</g>
<!-- InputNumberComponent&#45;&gt;BaseModule -->
<g id="edge18" class="edge">
<title>InputNumberComponent&#45;&gt;BaseModule</title>
<path fill="none" stroke="black" d="M3848,-124.38C3848,-97.79 3848,-51.8 3848,-51.8 3848,-51.8 2565.31,-51.8 2565.31,-51.8"/>
<polygon fill="black" stroke="black" points="2565.31,-48.3 2555.31,-51.8 2565.31,-55.3 2565.31,-48.3"/>
</g>
<!-- InputTextComponent -->
<g id="node18" class="node">
<title>InputTextComponent</title>
<polygon fill="#ffffb3" stroke="black" points="3751.04,-160.8 3614.96,-160.8 3614.96,-124.8 3751.04,-124.8 3751.04,-160.8"/>
<text text-anchor="middle" x="3683" y="-138.6" font-family="Times,serif" font-size="14.00">InputTextComponent</text>
</g>
<!-- InputTextComponent&#45;&gt;BaseModule -->
<g id="edge19" class="edge">
<title>InputTextComponent&#45;&gt;BaseModule</title>
<path fill="none" stroke="black" d="M3683,-124.57C3683,-98.79 3683,-54.8 3683,-54.8 3683,-54.8 2565.42,-54.8 2565.42,-54.8"/>
<polygon fill="black" stroke="black" points="2565.42,-51.3 2555.42,-54.8 2565.42,-58.3 2565.42,-51.3"/>
</g>
<!-- GestioneComponent -->
<g id="node23" class="node">
<title>GestioneComponent</title>
<polygon fill="#ffffb3" stroke="black" points="4255.59,-160.8 4124.41,-160.8 4124.41,-124.8 4255.59,-124.8 4255.59,-160.8"/>
<text text-anchor="middle" x="4190" y="-138.6" font-family="Times,serif" font-size="14.00">GestioneComponent</text>
</g>
<!-- GestioneComponent&#45;&gt;GestioneModule -->
<g id="edge25" class="edge">
<title>GestioneComponent&#45;&gt;GestioneModule</title>
<path fill="none" stroke="black" d="M4190,-160.91C4190,-170.7 4190,-180.8 4190,-180.8 4190,-180.8 2843.46,-180.8 2843.46,-180.8 2843.46,-180.8 2843.46,-190.69 2843.46,-190.69"/>
<polygon fill="black" stroke="black" points="2839.96,-190.69 2843.46,-200.69 2846.96,-190.69 2839.96,-190.69"/>
</g>
<!-- AthleteComponent -->
<g id="node25" class="node">
<title>AthleteComponent</title>
<polygon fill="#ffffb3" stroke="black" points="662.04,-84.8 539.96,-84.8 539.96,-48.8 662.04,-48.8 662.04,-84.8"/>
<text text-anchor="middle" x="601" y="-62.6" font-family="Times,serif" font-size="14.00">AthleteComponent</text>
</g>
<!-- AthleteComponent&#45;&gt;SharedModule -->
<g id="edge29" class="edge">
<title>AthleteComponent&#45;&gt;SharedModule</title>
<path fill="none" stroke="black" d="M601,-85.08C601,-100.75 601,-120.8 601,-120.8 601,-120.8 2458.76,-120.8 2458.76,-120.8 2458.76,-120.8 2458.76,-121.18 2458.76,-121.18"/>
<polygon fill="black" stroke="black" points="2455.26,-114.63 2458.76,-124.63 2462.26,-114.63 2455.26,-114.63"/>
</g>
<!-- AtletaPreviewComponent -->
<g id="node26" class="node">
<title>AtletaPreviewComponent</title>
<polygon fill="#ffffb3" stroke="black" points="521.91,-84.8 360.09,-84.8 360.09,-48.8 521.91,-48.8 521.91,-84.8"/>
<text text-anchor="middle" x="441" y="-62.6" font-family="Times,serif" font-size="14.00">AtletaPreviewComponent</text>
</g>
<!-- AtletaPreviewComponent&#45;&gt;SharedModule -->
<g id="edge30" class="edge">
<title>AtletaPreviewComponent&#45;&gt;SharedModule</title>
<path fill="none" stroke="black" d="M441,-84.92C441,-87.77 441,-89.8 441,-89.8 441,-89.8 2526.35,-89.8 2526.35,-89.8 2526.35,-89.8 2526.35,-114.56 2526.35,-114.56"/>
<polygon fill="black" stroke="black" points="2522.85,-114.56 2526.35,-124.56 2529.85,-114.56 2522.85,-114.56"/>
</g>
<!-- EnumToArrayPipe -->
<g id="node27" class="node">
<title>EnumToArrayPipe</title>
<polygon fill="#ffffb3" stroke="black" points="342.03,-84.8 219.97,-84.8 219.97,-48.8 342.03,-48.8 342.03,-84.8"/>
<text text-anchor="middle" x="281" y="-62.6" font-family="Times,serif" font-size="14.00">EnumToArrayPipe</text>
</g>
<!-- EnumToArrayPipe&#45;&gt;SharedModule -->
<g id="edge31" class="edge">
<title>EnumToArrayPipe&#45;&gt;SharedModule</title>
<path fill="none" stroke="black" d="M281,-84.96C281,-89.84 281,-93.8 281,-93.8 281,-93.8 2511.92,-93.8 2511.92,-93.8 2511.92,-93.8 2511.92,-114.55 2511.92,-114.55"/>
<polygon fill="black" stroke="black" points="2508.42,-114.55 2511.92,-124.55 2515.42,-114.55 2508.42,-114.55"/>
</g>
<!-- FilterPipe -->
<g id="node28" class="node">
<title>FilterPipe</title>
<polygon fill="#ffffb3" stroke="black" points="201.72,-84.8 130.28,-84.8 130.28,-48.8 201.72,-48.8 201.72,-84.8"/>
<text text-anchor="middle" x="166" y="-62.6" font-family="Times,serif" font-size="14.00">FilterPipe</text>
</g>
<!-- FilterPipe&#45;&gt;SharedModule -->
<g id="edge32" class="edge">
<title>FilterPipe&#45;&gt;SharedModule</title>
<path fill="none" stroke="black" d="M166,-85.04C166,-92.23 166,-98.8 166,-98.8 166,-98.8 2497.48,-98.8 2497.48,-98.8 2497.48,-98.8 2497.48,-114.65 2497.48,-114.65"/>
<polygon fill="black" stroke="black" points="2493.98,-114.65 2497.48,-124.65 2500.98,-114.65 2493.98,-114.65"/>
</g>
<!-- ListaAtletiComponent -->
<g id="node29" class="node">
<title>ListaAtletiComponent</title>
<polygon fill="#ffffb3" stroke="black" points="1238.71,-84.8 1097.29,-84.8 1097.29,-48.8 1238.71,-48.8 1238.71,-84.8"/>
<text text-anchor="middle" x="1168" y="-62.6" font-family="Times,serif" font-size="14.00">ListaAtletiComponent</text>
</g>
<!-- ListaAtletiComponent&#45;&gt;SharedModule -->
<g id="edge33" class="edge">
<title>ListaAtletiComponent&#45;&gt;SharedModule</title>
<path fill="none" stroke="black" d="M1238.74,-60.8C1509.74,-60.8 2466.65,-60.8 2466.65,-60.8 2466.65,-60.8 2466.65,-114.6 2466.65,-114.6"/>
<polygon fill="black" stroke="black" points="2463.15,-114.6 2466.65,-124.6 2470.15,-114.6 2463.15,-114.6"/>
</g>
<!-- ListaTestComponent -->
<g id="node30" class="node">
<title>ListaTestComponent</title>
<polygon fill="#ffffb3" stroke="black" points="1079.93,-84.8 946.07,-84.8 946.07,-48.8 1079.93,-48.8 1079.93,-84.8"/>
<text text-anchor="middle" x="1013" y="-62.6" font-family="Times,serif" font-size="14.00">ListaTestComponent</text>
</g>
<!-- ListaTestComponent&#45;&gt;SharedModule -->
<g id="edge34" class="edge">
<title>ListaTestComponent&#45;&gt;SharedModule</title>
<path fill="none" stroke="black" d="M1013,-84.9C1013,-95.89 1013,-107.8 1013,-107.8 1013,-107.8 2464.68,-107.8 2464.68,-107.8 2464.68,-107.8 2464.68,-114.48 2464.68,-114.48"/>
<polygon fill="black" stroke="black" points="2461.18,-114.48 2464.68,-124.48 2468.18,-114.48 2461.18,-114.48"/>
</g>
<!-- SearchPipe -->
<g id="node31" class="node">
<title>SearchPipe</title>
<polygon fill="#ffffb3" stroke="black" points="928.47,-84.8 849.53,-84.8 849.53,-48.8 928.47,-48.8 928.47,-84.8"/>
<text text-anchor="middle" x="889" y="-62.6" font-family="Times,serif" font-size="14.00">SearchPipe</text>
</g>
<!-- SearchPipe&#45;&gt;SharedModule -->
<g id="edge35" class="edge">
<title>SearchPipe&#45;&gt;SharedModule</title>
<path fill="none" stroke="black" d="M889,-84.84C889,-97.36 889,-111.8 889,-111.8 889,-111.8 2462.7,-111.8 2462.7,-111.8 2462.7,-111.8 2462.7,-114.77 2462.7,-114.77"/>
<polygon fill="black" stroke="black" points="2459.2,-114.77 2462.7,-124.77 2466.2,-114.77 2459.2,-114.77"/>
</g>
<!-- TestPreviewComponent -->
<g id="node32" class="node">
<title>TestPreviewComponent</title>
<polygon fill="#ffffb3" stroke="black" points="831.8,-84.8 680.2,-84.8 680.2,-48.8 831.8,-48.8 831.8,-84.8"/>
<text text-anchor="middle" x="756" y="-62.6" font-family="Times,serif" font-size="14.00">TestPreviewComponent</text>
</g>
<!-- TestPreviewComponent&#45;&gt;SharedModule -->
<g id="edge36" class="edge">
<title>TestPreviewComponent&#45;&gt;SharedModule</title>
<path fill="none" stroke="black" d="M756,-84.85C756,-99.17 756,-116.8 756,-116.8 756,-116.8 2460.73,-116.8 2460.73,-116.8 2460.73,-116.8 2460.73,-117.59 2460.73,-117.59"/>
<polygon fill="black" stroke="black" points="2457.23,-114.74 2460.73,-124.74 2464.23,-114.74 2457.23,-114.74"/>
</g>
</g>
</svg>
