<?xml version="1.0" encoding="UTF-8" standalone="no"?>
<!DOCTYPE svg PUBLIC "-//W3C//DTD SVG 1.1//EN"
 "http://www.w3.org/Graphics/SVG/1.1/DTD/svg11.dtd">
<!-- Generated by graphviz version 2.47.3 (20210619.1520)
 -->
<!-- Title: dependencies Pages: 1 -->
<svg width="5650pt" height="399pt"
 viewBox="0.00 0.00 5650.00 398.80" xmlns="http://www.w3.org/2000/svg" xmlns:xlink="http://www.w3.org/1999/xlink">
<g id="graph0" class="graph" transform="scale(1 1) rotate(0) translate(4 394.8)">
<title>dependencies</title>
<polygon fill="white" stroke="transparent" points="-4,4 -4,-394.8 5646,-394.8 5646,4 -4,4"/>
<text text-anchor="middle" x="2821" y="-8.2" font-family="sans-serif" font-size="14.00">dependencies</text>
<g id="clust1" class="cluster">
<title>cluster_AllenamentiModule</title>
<polygon fill="none" stroke="black" stroke-dasharray="1,5" points="1638,-32.8 1638,-244.8 3636,-244.8 3636,-32.8 1638,-32.8"/>
</g>
<g id="clust2" class="cluster">
<title>cluster_AllenamentiModule_declarations</title>
<polygon fill="none" stroke="black" points="1646,-116.8 1646,-168.8 3494,-168.8 3494,-116.8 1646,-116.8"/>
</g>
<g id="clust12" class="cluster">
<title>cluster_AllenamentiModule_imports</title>
<polygon fill="none" stroke="black" points="3502,-40.8 3502,-168.8 3616,-168.8 3616,-40.8 3502,-40.8"/>
</g>
<g id="clust16" class="cluster">
<title>cluster_AppModule</title>
<polygon fill="none" stroke="black" stroke-dasharray="1,5" points="3644,-184.8 3644,-382.8 4062,-382.8 4062,-184.8 3644,-184.8"/>
</g>
<g id="clust17" class="cluster">
<title>cluster_AppModule_declarations</title>
<polygon fill="none" stroke="black" points="3932,-192.8 3932,-244.8 4054,-244.8 4054,-192.8 3932,-192.8"/>
</g>
<g id="clust19" class="cluster">
<title>cluster_AppModule_imports</title>
<polygon fill="none" stroke="black" points="3652,-192.8 3652,-244.8 3924,-244.8 3924,-192.8 3652,-192.8"/>
</g>
<g id="clust21" class="cluster">
<title>cluster_AppModule_bootstrap</title>
<polygon fill="none" stroke="black" points="3730,-322.8 3730,-374.8 3854,-374.8 3854,-322.8 3730,-322.8"/>
</g>
<g id="clust29" class="cluster">
<title>cluster_BaseModule</title>
<polygon fill="none" stroke="black" stroke-dasharray="1,5" points="3712,-108.8 3712,-176.8 5304,-176.8 5304,-108.8 3712,-108.8"/>
</g>
<g id="clust30" class="cluster">
<title>cluster_BaseModule_declarations</title>
<polygon fill="none" stroke="black" points="4527,-116.8 4527,-168.8 5296,-168.8 5296,-116.8 4527,-116.8"/>
</g>
<g id="clust37" class="cluster">
<title>cluster_BaseModule_exports</title>
<polygon fill="none" stroke="black" points="3720,-116.8 3720,-168.8 4519,-168.8 4519,-116.8 3720,-116.8"/>
</g>
<g id="clust40" class="cluster">
<title>cluster_GestioneModule</title>
<polygon fill="none" stroke="black" stroke-dasharray="1,5" points="5312,-108.8 5312,-176.8 5634,-176.8 5634,-108.8 5312,-108.8"/>
</g>
<g id="clust41" class="cluster">
<title>cluster_GestioneModule_declarations</title>
<polygon fill="none" stroke="black" points="5478,-116.8 5478,-168.8 5626,-168.8 5626,-116.8 5478,-116.8"/>
</g>
<g id="clust44" class="cluster">
<title>cluster_GestioneModule_exports</title>
<polygon fill="none" stroke="black" points="5320,-116.8 5320,-168.8 5470,-168.8 5470,-116.8 5320,-116.8"/>
</g>
<g id="clust47" class="cluster">
<title>cluster_SharedModule</title>
<polygon fill="none" stroke="black" stroke-dasharray="1,5" points="8,-32.8 8,-100.8 1630,-100.8 1630,-32.8 8,-32.8"/>
</g>
<g id="clust48" class="cluster">
<title>cluster_SharedModule_declarations</title>
<polygon fill="none" stroke="black" points="122,-40.8 122,-92.8 1622,-92.8 1622,-40.8 122,-40.8"/>
</g>
<g id="clust60" class="cluster">
<title>cluster_SharedModule_exports</title>
<polygon fill="none" stroke="black" points="16,-40.8 16,-92.8 114,-92.8 114,-40.8 16,-40.8"/>
</g>
<!-- AllenamentiComponent -->
<g id="node1" class="node">
<title>AllenamentiComponent</title>
<polygon fill="#ffffb3" stroke="black" points="2020.04,-160.8 1869.96,-160.8 1869.96,-124.8 2020.04,-124.8 2020.04,-160.8"/>
<text text-anchor="middle" x="1945" y="-138.6" font-family="Times,serif" font-size="14.00">AllenamentiComponent</text>
</g>
<!-- AllenamentiModule -->
<g id="node10" class="node">
<title>AllenamentiModule</title>
<polygon fill="#8dd3c7" stroke="black" points="2961.25,-236.8 2958.25,-240.8 2937.25,-240.8 2934.25,-236.8 2832.75,-236.8 2832.75,-200.8 2961.25,-200.8 2961.25,-236.8"/>
<text text-anchor="middle" x="2897" y="-214.6" font-family="Times,serif" font-size="14.00">AllenamentiModule</text>
</g>
<!-- AllenamentiComponent&#45;&gt;AllenamentiModule -->
<g id="edge1" class="edge">
<title>AllenamentiComponent&#45;&gt;AllenamentiModule</title>
<path fill="none" stroke="black" d="M1945,-161C1945,-185.16 1945,-224.8 1945,-224.8 1945,-224.8 2822.69,-224.8 2822.69,-224.8"/>
<polygon fill="black" stroke="black" points="2822.69,-228.3 2832.69,-224.8 2822.69,-221.3 2822.69,-228.3"/>
</g>
<!-- AllenamentiLandingComponent -->
<g id="node2" class="node">
<title>AllenamentiLandingComponent</title>
<polygon fill="#ffffb3" stroke="black" points="1851.69,-160.8 1654.31,-160.8 1654.31,-124.8 1851.69,-124.8 1851.69,-160.8"/>
<text text-anchor="middle" x="1753" y="-138.6" font-family="Times,serif" font-size="14.00">AllenamentiLandingComponent</text>
</g>
<!-- AllenamentiLandingComponent&#45;&gt;AllenamentiModule -->
<g id="edge2" class="edge">
<title>AllenamentiLandingComponent&#45;&gt;AllenamentiModule</title>
<path fill="none" stroke="black" d="M1753,-161.03C1753,-186.81 1753,-230.8 1753,-230.8 1753,-230.8 2822.63,-230.8 2822.63,-230.8"/>
<polygon fill="black" stroke="black" points="2822.63,-234.3 2832.63,-230.8 2822.63,-227.3 2822.63,-234.3"/>
</g>
<!-- AllenamentoAttivoComponent -->
<g id="node3" class="node">
<title>AllenamentoAttivoComponent</title>
<polygon fill="#ffffb3" stroke="black" points="3485.92,-160.8 3296.08,-160.8 3296.08,-124.8 3485.92,-124.8 3485.92,-160.8"/>
<text text-anchor="middle" x="3391" y="-138.6" font-family="Times,serif" font-size="14.00">AllenamentoAttivoComponent</text>
</g>
<!-- AllenamentoAttivoComponent&#45;&gt;AllenamentiModule -->
<g id="edge3" class="edge">
<title>AllenamentoAttivoComponent&#45;&gt;AllenamentiModule</title>
<path fill="none" stroke="black" d="M3391,-160.81C3391,-183.29 3391,-218.8 3391,-218.8 3391,-218.8 2971.33,-218.8 2971.33,-218.8"/>
<polygon fill="black" stroke="black" points="2971.33,-215.3 2961.33,-218.8 2971.33,-222.3 2971.33,-215.3"/>
</g>
<!-- AllenamentoComponent -->
<g id="node4" class="node">
<title>AllenamentoComponent</title>
<polygon fill="#ffffb3" stroke="black" points="3277.65,-160.8 3124.35,-160.8 3124.35,-124.8 3277.65,-124.8 3277.65,-160.8"/>
<text text-anchor="middle" x="3201" y="-138.6" font-family="Times,serif" font-size="14.00">AllenamentoComponent</text>
</g>
<!-- AllenamentoComponent&#45;&gt;AllenamentiModule -->
<g id="edge4" class="edge">
<title>AllenamentoComponent&#45;&gt;AllenamentiModule</title>
<path fill="none" stroke="black" d="M3201,-161.11C3201,-180.95 3201,-209.8 3201,-209.8 3201,-209.8 2971.47,-209.8 2971.47,-209.8"/>
<polygon fill="black" stroke="black" points="2971.47,-206.3 2961.47,-209.8 2971.47,-213.3 2971.47,-206.3"/>
</g>
<!-- AllenamentoLandingComponent -->
<g id="node5" class="node">
<title>AllenamentoLandingComponent</title>
<polygon fill="#ffffb3" stroke="black" points="3106.3,-160.8 2905.7,-160.8 2905.7,-124.8 3106.3,-124.8 3106.3,-160.8"/>
<text text-anchor="middle" x="3006" y="-138.6" font-family="Times,serif" font-size="14.00">AllenamentoLandingComponent</text>
</g>
<!-- AllenamentoLandingComponent&#45;&gt;AllenamentiModule -->
<g id="edge5" class="edge">
<title>AllenamentoLandingComponent&#45;&gt;AllenamentiModule</title>
<path fill="none" stroke="black" d="M2933.61,-160.81C2933.61,-160.81 2933.61,-190.65 2933.61,-190.65"/>
<polygon fill="black" stroke="black" points="2930.11,-190.65 2933.61,-200.65 2937.11,-190.65 2930.11,-190.65"/>
</g>
<!-- AllenamentoPreviewComponent -->
<g id="node6" class="node">
<title>AllenamentoPreviewComponent</title>
<polygon fill="#ffffb3" stroke="black" points="2887.52,-160.8 2688.48,-160.8 2688.48,-124.8 2887.52,-124.8 2887.52,-160.8"/>
<text text-anchor="middle" x="2788" y="-138.6" font-family="Times,serif" font-size="14.00">AllenamentoPreviewComponent</text>
</g>
<!-- AllenamentoPreviewComponent&#45;&gt;AllenamentiModule -->
<g id="edge6" class="edge">
<title>AllenamentoPreviewComponent&#45;&gt;AllenamentiModule</title>
<path fill="none" stroke="black" d="M2860.19,-160.81C2860.19,-160.81 2860.19,-190.65 2860.19,-190.65"/>
<polygon fill="black" stroke="black" points="2856.69,-190.65 2860.19,-200.65 2863.69,-190.65 2856.69,-190.65"/>
</g>
<!-- BeforeAllenamentoComponent -->
<g id="node7" class="node">
<title>BeforeAllenamentoComponent</title>
<polygon fill="#ffffb3" stroke="black" points="2669.73,-160.8 2478.27,-160.8 2478.27,-124.8 2669.73,-124.8 2669.73,-160.8"/>
<text text-anchor="middle" x="2574" y="-138.6" font-family="Times,serif" font-size="14.00">BeforeAllenamentoComponent</text>
</g>
<!-- BeforeAllenamentoComponent&#45;&gt;AllenamentiModule -->
<g id="edge7" class="edge">
<title>BeforeAllenamentoComponent&#45;&gt;AllenamentiModule</title>
<path fill="none" stroke="black" d="M2574,-160.97C2574,-179.89 2574,-206.8 2574,-206.8 2574,-206.8 2822.41,-206.8 2822.41,-206.8"/>
<polygon fill="black" stroke="black" points="2822.41,-210.3 2832.41,-206.8 2822.41,-203.3 2822.41,-210.3"/>
</g>
<!-- ListaAllenamentiComponent -->
<g id="node8" class="node">
<title>ListaAllenamentiComponent</title>
<polygon fill="#ffffb3" stroke="black" points="2460.03,-160.8 2281.97,-160.8 2281.97,-124.8 2460.03,-124.8 2460.03,-160.8"/>
<text text-anchor="middle" x="2371" y="-138.6" font-family="Times,serif" font-size="14.00">ListaAllenamentiComponent</text>
</g>
<!-- ListaAllenamentiComponent&#45;&gt;AllenamentiModule -->
<g id="edge8" class="edge">
<title>ListaAllenamentiComponent&#45;&gt;AllenamentiModule</title>
<path fill="none" stroke="black" d="M2371,-160.83C2371,-181.57 2371,-212.8 2371,-212.8 2371,-212.8 2822.5,-212.8 2822.5,-212.8"/>
<polygon fill="black" stroke="black" points="2822.5,-216.3 2832.5,-212.8 2822.5,-209.3 2822.5,-216.3"/>
</g>
<!-- ListaAllenamentiLandingComponent -->
<g id="node9" class="node">
<title>ListaAllenamentiLandingComponent</title>
<polygon fill="#ffffb3" stroke="black" points="2263.69,-160.8 2038.31,-160.8 2038.31,-124.8 2263.69,-124.8 2263.69,-160.8"/>
<text text-anchor="middle" x="2151" y="-138.6" font-family="Times,serif" font-size="14.00">ListaAllenamentiLandingComponent</text>
</g>
<!-- ListaAllenamentiLandingComponent&#45;&gt;AllenamentiModule -->
<g id="edge9" class="edge">
<title>ListaAllenamentiLandingComponent&#45;&gt;AllenamentiModule</title>
<path fill="none" stroke="black" d="M2151,-160.81C2151,-183.29 2151,-218.8 2151,-218.8 2151,-218.8 2822.43,-218.8 2822.43,-218.8"/>
<polygon fill="black" stroke="black" points="2822.43,-222.3 2832.43,-218.8 2822.43,-215.3 2822.43,-222.3"/>
</g>
<!-- AppModule -->
<g id="node14" class="node">
<title>AppModule</title>
<polygon fill="#8dd3c7" stroke="black" points="3833.66,-301.8 3830.66,-305.8 3809.66,-305.8 3806.66,-301.8 3750.34,-301.8 3750.34,-265.8 3833.66,-265.8 3833.66,-301.8"/>
<text text-anchor="middle" x="3792" y="-279.6" font-family="Times,serif" font-size="14.00">AppModule</text>
</g>
<!-- AllenamentiModule&#45;&gt;AppModule -->
<g id="edge13" class="edge">
<title>AllenamentiModule&#45;&gt;AppModule</title>
<path fill="none" stroke="black" d="M2897,-237.09C2897,-259.01 2897,-292.8 2897,-292.8 2897,-292.8 3740.33,-292.8 3740.33,-292.8"/>
<polygon fill="black" stroke="black" points="3740.33,-296.3 3750.33,-292.8 3740.33,-289.3 3740.33,-296.3"/>
</g>
<!-- BaseModule -->
<g id="node11" class="node">
<title>BaseModule</title>
<polygon fill="#8dd3c7" stroke="black" points="3608.26,-84.8 3605.26,-88.8 3584.26,-88.8 3581.26,-84.8 3521.74,-84.8 3521.74,-48.8 3608.26,-48.8 3608.26,-84.8"/>
<text text-anchor="middle" x="3565" y="-62.6" font-family="Times,serif" font-size="14.00">BaseModule</text>
</g>
<!-- BaseModule&#45;&gt;AllenamentiModule -->
<g id="edge10" class="edge">
<title>BaseModule&#45;&gt;AllenamentiModule</title>
<path fill="none" stroke="black" d="M3521.67,-72.8C3373.6,-72.8 2896.8,-72.8 2896.8,-72.8 2896.8,-72.8 2896.8,-190.6 2896.8,-190.6"/>
<polygon fill="black" stroke="black" points="2893.3,-190.6 2896.8,-200.6 2900.3,-190.6 2893.3,-190.6"/>
</g>
<!-- SharedModule -->
<g id="node12" class="node">
<title>SharedModule</title>
<polygon fill="#8dd3c7" stroke="black" points="3608.42,-160.8 3605.42,-164.8 3584.42,-164.8 3581.42,-160.8 3509.58,-160.8 3509.58,-124.8 3608.42,-124.8 3608.42,-160.8"/>
<text text-anchor="middle" x="3559" y="-138.6" font-family="Times,serif" font-size="14.00">SharedModule</text>
</g>
<!-- BaseModule&#45;&gt;SharedModule -->
<g id="edge44" class="edge">
<title>BaseModule&#45;&gt;SharedModule</title>
<path fill="none" stroke="black" d="M3597.39,-84.81C3597.39,-84.81 3597.39,-114.65 3597.39,-114.65"/>
<polygon fill="black" stroke="black" points="3593.89,-114.65 3597.39,-124.65 3600.89,-114.65 3593.89,-114.65"/>
</g>
<!-- BaseModule&#45;&gt;AppModule -->
<g id="edge15" class="edge">
<title>BaseModule&#45;&gt;AppModule</title>
<path fill="none" stroke="black" d="M3608.3,-77.8C3622.17,-77.8 3634,-77.8 3634,-77.8 3634,-77.8 3634,-274.8 3634,-274.8 3634,-274.8 3740.07,-274.8 3740.07,-274.8"/>
<polygon fill="black" stroke="black" points="3740.07,-278.3 3750.07,-274.8 3740.07,-271.3 3740.07,-278.3"/>
</g>
<!-- GestioneModule -->
<g id="node16" class="node">
<title>GestioneModule</title>
<polygon fill="#8dd3c7" stroke="black" points="3915.81,-236.8 3912.81,-240.8 3891.81,-240.8 3888.81,-236.8 3806.19,-236.8 3806.19,-200.8 3915.81,-200.8 3915.81,-236.8"/>
<text text-anchor="middle" x="3861" y="-214.6" font-family="Times,serif" font-size="14.00">GestioneModule</text>
</g>
<!-- BaseModule&#45;&gt;GestioneModule -->
<g id="edge31" class="edge">
<title>BaseModule&#45;&gt;GestioneModule</title>
<path fill="none" stroke="black" d="M3608.46,-74.8C3694.35,-74.8 3877.59,-74.8 3877.59,-74.8 3877.59,-74.8 3877.59,-190.56 3877.59,-190.56"/>
<polygon fill="black" stroke="black" points="3874.09,-190.56 3877.59,-200.56 3881.09,-190.56 3874.09,-190.56"/>
</g>
<!-- AppRoutingModule  -->
<g id="node23" class="node">
<title>AppRoutingModule </title>
<polygon fill="#fb8072" stroke="black" points="4175.27,-160.8 4042.73,-160.8 4042.73,-124.8 4175.27,-124.8 4175.27,-160.8"/>
<text text-anchor="middle" x="4109" y="-138.6" font-family="Times,serif" font-size="14.00">AppRoutingModule </text>
</g>
<!-- BaseModule&#45;&gt;AppRoutingModule  -->
<g id="edge25" class="edge">
<title>BaseModule&#45;&gt;AppRoutingModule </title>
<path fill="none" stroke="black" stroke-dasharray="5,2" d="M3608.6,-69.8C3737.69,-69.8 4109,-69.8 4109,-69.8 4109,-69.8 4109,-114.76 4109,-114.76"/>
<polygon fill="black" stroke="black" points="4105.5,-114.76 4109,-124.76 4112.5,-114.76 4105.5,-114.76"/>
</g>
<!-- BackButtonDirective  -->
<g id="node24" class="node">
<title>BackButtonDirective </title>
<polygon fill="#fb8072" stroke="black" points="4025.47,-160.8 3886.53,-160.8 3886.53,-124.8 4025.47,-124.8 4025.47,-160.8"/>
<text text-anchor="middle" x="3956" y="-138.6" font-family="Times,serif" font-size="14.00">BackButtonDirective </text>
</g>
<!-- BaseModule&#45;&gt;BackButtonDirective  -->
<g id="edge26" class="edge">
<title>BaseModule&#45;&gt;BackButtonDirective </title>
<path fill="none" stroke="black" stroke-dasharray="5,2" d="M3608.34,-72.8C3710.14,-72.8 3956,-72.8 3956,-72.8 3956,-72.8 3956,-114.77 3956,-114.77"/>
<polygon fill="black" stroke="black" points="3952.5,-114.77 3956,-124.77 3959.5,-114.77 3952.5,-114.77"/>
</g>
<!-- InputDateComponent  -->
<g id="node25" class="node">
<title>InputDateComponent </title>
<polygon fill="#fb8072" stroke="black" points="3868.31,-160.8 3727.69,-160.8 3727.69,-124.8 3868.31,-124.8 3868.31,-160.8"/>
<text text-anchor="middle" x="3798" y="-138.6" font-family="Times,serif" font-size="14.00">InputDateComponent </text>
</g>
<!-- BaseModule&#45;&gt;InputDateComponent  -->
<g id="edge27" class="edge">
<title>BaseModule&#45;&gt;InputDateComponent </title>
<path fill="none" stroke="black" stroke-dasharray="5,2" d="M3608.28,-79.8C3675.66,-79.8 3798,-79.8 3798,-79.8 3798,-79.8 3798,-114.58 3798,-114.58"/>
<polygon fill="black" stroke="black" points="3794.5,-114.58 3798,-124.58 3801.5,-114.58 3794.5,-114.58"/>
</g>
<!-- InputNumberComponent  -->
<g id="node26" class="node">
<title>InputNumberComponent </title>
<polygon fill="#fb8072" stroke="black" points="4511.26,-160.8 4350.74,-160.8 4350.74,-124.8 4511.26,-124.8 4511.26,-160.8"/>
<text text-anchor="middle" x="4431" y="-138.6" font-family="Times,serif" font-size="14.00">InputNumberComponent </text>
</g>
<!-- BaseModule&#45;&gt;InputNumberComponent  -->
<g id="edge28" class="edge">
<title>BaseModule&#45;&gt;InputNumberComponent </title>
<path fill="none" stroke="black" stroke-dasharray="5,2" d="M3608.54,-64.8C3784.15,-64.8 4431,-64.8 4431,-64.8 4431,-64.8 4431,-114.71 4431,-114.71"/>
<polygon fill="black" stroke="black" points="4427.5,-114.71 4431,-124.71 4434.5,-114.71 4427.5,-114.71"/>
</g>
<!-- InputTextComponent  -->
<g id="node27" class="node">
<title>InputTextComponent </title>
<polygon fill="#fb8072" stroke="black" points="4333.04,-160.8 4192.96,-160.8 4192.96,-124.8 4333.04,-124.8 4333.04,-160.8"/>
<text text-anchor="middle" x="4263" y="-138.6" font-family="Times,serif" font-size="14.00">InputTextComponent </text>
</g>
<!-- BaseModule&#45;&gt;InputTextComponent  -->
<g id="edge29" class="edge">
<title>BaseModule&#45;&gt;InputTextComponent </title>
<path fill="none" stroke="black" stroke-dasharray="5,2" d="M3608.4,-66.8C3760.89,-66.8 4263,-66.8 4263,-66.8 4263,-66.8 4263,-114.79 4263,-114.79"/>
<polygon fill="black" stroke="black" points="4259.5,-114.79 4263,-124.79 4266.5,-114.79 4259.5,-114.79"/>
</g>
<!-- SharedModule&#45;&gt;AllenamentiModule -->
<g id="edge11" class="edge">
<title>SharedModule&#45;&gt;AllenamentiModule</title>
<path fill="none" stroke="black" d="M3534.39,-160.83C3534.39,-185.78 3534.39,-227.8 3534.39,-227.8 3534.39,-227.8 2971.33,-227.8 2971.33,-227.8"/>
<polygon fill="black" stroke="black" points="2971.33,-224.3 2961.33,-227.8 2971.33,-231.3 2971.33,-224.3"/>
</g>
<!-- SharedModule&#45;&gt;AppModule -->
<g id="edge17" class="edge">
<title>SharedModule&#45;&gt;AppModule</title>
<path fill="none" stroke="black" d="M3583.61,-160.94C3583.61,-199.03 3583.61,-283.8 3583.61,-283.8 3583.61,-283.8 3740.33,-283.8 3740.33,-283.8"/>
<polygon fill="black" stroke="black" points="3740.33,-287.3 3750.33,-283.8 3740.33,-280.3 3740.33,-287.3"/>
</g>
<!-- SharedModule&#45;&gt;GestioneModule -->
<g id="edge32" class="edge">
<title>SharedModule&#45;&gt;GestioneModule</title>
<path fill="none" stroke="black" d="M3559,-160.95C3559,-174.54 3559,-190.8 3559,-190.8 3559,-190.8 3837.37,-190.8 3837.37,-190.8 3837.37,-190.8 3837.37,-191.78 3837.37,-191.78"/>
<polygon fill="black" stroke="black" points="3833.87,-190.59 3837.37,-200.59 3840.87,-190.59 3833.87,-190.59"/>
</g>
<!-- SearchPipe  -->
<g id="node40" class="node">
<title>SearchPipe </title>
<polygon fill="#fb8072" stroke="black" points="106.48,-84.8 23.52,-84.8 23.52,-48.8 106.48,-48.8 106.48,-84.8"/>
<text text-anchor="middle" x="65" y="-62.6" font-family="Times,serif" font-size="14.00">SearchPipe </text>
</g>
<!-- SharedModule&#45;&gt;SearchPipe  -->
<g id="edge45" class="edge">
<title>SharedModule&#45;&gt;SearchPipe </title>
<path fill="none" stroke="black" stroke-dasharray="5,2" d="M3532.44,-124.38C3532.44,-115.52 3532.44,-106.8 3532.44,-106.8 3532.44,-106.8 65,-106.8 65,-106.8 65,-106.8 65,-94.93 65,-94.93"/>
<polygon fill="black" stroke="black" points="68.5,-94.93 65,-84.93 61.5,-94.93 68.5,-94.93"/>
</g>
<!-- AppComponent -->
<g id="node13" class="node">
<title>AppComponent</title>
<polygon fill="#ffffb3" stroke="black" points="4045.94,-236.8 3940.06,-236.8 3940.06,-200.8 4045.94,-200.8 4045.94,-236.8"/>
<text text-anchor="middle" x="3993" y="-214.6" font-family="Times,serif" font-size="14.00">AppComponent</text>
</g>
<!-- AppComponent&#45;&gt;AppModule -->
<g id="edge12" class="edge">
<title>AppComponent&#45;&gt;AppModule</title>
<path fill="none" stroke="black" d="M3993,-236.91C3993,-256.14 3993,-283.8 3993,-283.8 3993,-283.8 3844.14,-283.8 3844.14,-283.8"/>
<polygon fill="black" stroke="black" points="3844.14,-280.3 3834.14,-283.8 3844.14,-287.3 3844.14,-280.3"/>
</g>
<!-- AppComponent  -->
<g id="node17" class="node">
<title>AppComponent </title>
<polygon fill="#80b1d3" stroke="black" points="3846.44,-366.8 3737.56,-366.8 3737.56,-330.8 3846.44,-330.8 3846.44,-366.8"/>
<text text-anchor="middle" x="3792" y="-344.6" font-family="Times,serif" font-size="14.00">AppComponent </text>
</g>
<!-- AppModule&#45;&gt;AppComponent  -->
<g id="edge18" class="edge">
<title>AppModule&#45;&gt;AppComponent </title>
<path fill="none" stroke="black" stroke-dasharray="1,5" d="M3792,-301.91C3792,-301.91 3792,-320.79 3792,-320.79"/>
<polygon fill="black" stroke="black" points="3788.5,-320.79 3792,-330.79 3795.5,-320.79 3788.5,-320.79"/>
</g>
<!-- AppRoutingModule -->
<g id="node15" class="node">
<title>AppRoutingModule</title>
<polygon fill="#8dd3c7" stroke="black" points="3788.27,-236.8 3785.27,-240.8 3764.27,-240.8 3761.27,-236.8 3659.73,-236.8 3659.73,-200.8 3788.27,-200.8 3788.27,-236.8"/>
<text text-anchor="middle" x="3724" y="-214.6" font-family="Times,serif" font-size="14.00">AppRoutingModule</text>
</g>
<!-- AppRoutingModule&#45;&gt;BaseModule -->
<g id="edge24" class="edge">
<title>AppRoutingModule&#45;&gt;BaseModule</title>
<path fill="none" stroke="black" d="M3693.6,-200.74C3693.6,-163.75 3693.6,-82.8 3693.6,-82.8 3693.6,-82.8 3618.54,-82.8 3618.54,-82.8"/>
<polygon fill="black" stroke="black" points="3618.54,-79.3 3608.54,-82.8 3618.54,-86.3 3618.54,-79.3"/>
</g>
<!-- AppRoutingModule&#45;&gt;AppModule -->
<g id="edge14" class="edge">
<title>AppRoutingModule&#45;&gt;AppModule</title>
<path fill="none" stroke="black" d="M3769.28,-236.91C3769.28,-236.91 3769.28,-255.79 3769.28,-255.79"/>
<polygon fill="black" stroke="black" points="3765.78,-255.79 3769.28,-265.79 3772.78,-255.79 3765.78,-255.79"/>
</g>
<!-- GestioneModule&#45;&gt;AppModule -->
<g id="edge16" class="edge">
<title>GestioneModule&#45;&gt;AppModule</title>
<path fill="none" stroke="black" d="M3820.09,-236.91C3820.09,-236.91 3820.09,-255.79 3820.09,-255.79"/>
<polygon fill="black" stroke="black" points="3816.59,-255.79 3820.09,-265.79 3823.59,-255.79 3816.59,-255.79"/>
</g>
<!-- GestioneComponent  -->
<g id="node29" class="node">
<title>GestioneComponent </title>
<polygon fill="#fb8072" stroke="black" points="5462.09,-160.8 5327.91,-160.8 5327.91,-124.8 5462.09,-124.8 5462.09,-160.8"/>
<text text-anchor="middle" x="5395" y="-138.6" font-family="Times,serif" font-size="14.00">GestioneComponent </text>
</g>
<!-- GestioneModule&#45;&gt;GestioneComponent  -->
<g id="edge33" class="edge">
<title>GestioneModule&#45;&gt;GestioneComponent </title>
<path fill="none" stroke="black" stroke-dasharray="5,2" d="M3906.03,-200.65C3906.03,-187.06 3906.03,-170.8 3906.03,-170.8 3906.03,-170.8 5395,-170.8 5395,-170.8 5395,-170.8 5395,-169.82 5395,-169.82"/>
<polygon fill="black" stroke="black" points="5398.5,-171.01 5395,-161.01 5391.5,-171.01 5398.5,-171.01"/>
</g>
<!-- BackButtonDirective -->
<g id="node18" class="node">
<title>BackButtonDirective</title>
<polygon fill="#ffffb3" stroke="black" points="4958.47,-160.8 4823.53,-160.8 4823.53,-124.8 4958.47,-124.8 4958.47,-160.8"/>
<text text-anchor="middle" x="4891" y="-138.6" font-family="Times,serif" font-size="14.00">BackButtonDirective</text>
</g>
<!-- BackButtonDirective&#45;&gt;BaseModule -->
<g id="edge19" class="edge">
<title>BackButtonDirective&#45;&gt;BaseModule</title>
<path fill="none" stroke="black" d="M4891,-124.56C4891,-99.32 4891,-56.8 4891,-56.8 4891,-56.8 3618.36,-56.8 3618.36,-56.8"/>
<polygon fill="black" stroke="black" points="3618.36,-53.3 3608.36,-56.8 3618.36,-60.3 3618.36,-53.3"/>
</g>
<!-- HomeComponent -->
<g id="node19" class="node">
<title>HomeComponent</title>
<polygon fill="#ffffb3" stroke="black" points="4805.55,-160.8 4690.45,-160.8 4690.45,-124.8 4805.55,-124.8 4805.55,-160.8"/>
<text text-anchor="middle" x="4748" y="-138.6" font-family="Times,serif" font-size="14.00">HomeComponent</text>
</g>
<!-- HomeComponent&#45;&gt;BaseModule -->
<g id="edge20" class="edge">
<title>HomeComponent&#45;&gt;BaseModule</title>
<path fill="none" stroke="black" d="M4748,-124.79C4748,-100.38 4748,-59.8 4748,-59.8 4748,-59.8 3618.51,-59.8 3618.51,-59.8"/>
<polygon fill="black" stroke="black" points="3618.51,-56.3 3608.51,-59.8 3618.51,-63.3 3618.51,-56.3"/>
</g>
<!-- InputDateComponent -->
<g id="node20" class="node">
<title>InputDateComponent</title>
<polygon fill="#ffffb3" stroke="black" points="4672.81,-160.8 4535.19,-160.8 4535.19,-124.8 4672.81,-124.8 4672.81,-160.8"/>
<text text-anchor="middle" x="4604" y="-138.6" font-family="Times,serif" font-size="14.00">InputDateComponent</text>
</g>
<!-- InputDateComponent&#45;&gt;BaseModule -->
<g id="edge21" class="edge">
<title>InputDateComponent&#45;&gt;BaseModule</title>
<path fill="none" stroke="black" d="M4604,-124.42C4604,-100.52 4604,-61.8 4604,-61.8 4604,-61.8 3618.32,-61.8 3618.32,-61.8"/>
<polygon fill="black" stroke="black" points="3618.32,-58.3 3608.32,-61.8 3618.32,-65.3 3618.32,-58.3"/>
</g>
<!-- InputNumberComponent -->
<g id="node21" class="node">
<title>InputNumberComponent</title>
<polygon fill="#ffffb3" stroke="black" points="5288.26,-160.8 5131.74,-160.8 5131.74,-124.8 5288.26,-124.8 5288.26,-160.8"/>
<text text-anchor="middle" x="5210" y="-138.6" font-family="Times,serif" font-size="14.00">InputNumberComponent</text>
</g>
<!-- InputNumberComponent&#45;&gt;BaseModule -->
<g id="edge22" class="edge">
<title>InputNumberComponent&#45;&gt;BaseModule</title>
<path fill="none" stroke="black" d="M5210,-124.38C5210,-97.79 5210,-51.8 5210,-51.8 5210,-51.8 3618.58,-51.8 3618.58,-51.8"/>
<polygon fill="black" stroke="black" points="3618.58,-48.3 3608.58,-51.8 3618.58,-55.3 3618.58,-48.3"/>
</g>
<!-- InputTextComponent -->
<g id="node22" class="node">
<title>InputTextComponent</title>
<polygon fill="#ffffb3" stroke="black" points="5113.04,-160.8 4976.96,-160.8 4976.96,-124.8 5113.04,-124.8 5113.04,-160.8"/>
<text text-anchor="middle" x="5045" y="-138.6" font-family="Times,serif" font-size="14.00">InputTextComponent</text>
</g>
<!-- InputTextComponent&#45;&gt;BaseModule -->
<g id="edge23" class="edge">
<title>InputTextComponent&#45;&gt;BaseModule</title>
<path fill="none" stroke="black" d="M5045,-124.57C5045,-98.79 5045,-54.8 5045,-54.8 5045,-54.8 3618.49,-54.8 3618.49,-54.8"/>
<polygon fill="black" stroke="black" points="3618.49,-51.3 3608.49,-54.8 3618.49,-58.3 3618.49,-51.3"/>
</g>
<!-- GestioneComponent -->
<g id="node28" class="node">
<title>GestioneComponent</title>
<polygon fill="#ffffb3" stroke="black" points="5617.59,-160.8 5486.41,-160.8 5486.41,-124.8 5617.59,-124.8 5617.59,-160.8"/>
<text text-anchor="middle" x="5552" y="-138.6" font-family="Times,serif" font-size="14.00">GestioneComponent</text>
</g>
<!-- GestioneComponent&#45;&gt;GestioneModule -->
<g id="edge30" class="edge">
<title>GestioneComponent&#45;&gt;GestioneModule</title>
<path fill="none" stroke="black" d="M5552,-160.91C5552,-170.7 5552,-180.8 5552,-180.8 5552,-180.8 3896.4,-180.8 3896.4,-180.8 3896.4,-180.8 3896.4,-190.69 3896.4,-190.69"/>
<polygon fill="black" stroke="black" points="3892.9,-190.69 3896.4,-200.69 3899.9,-190.69 3892.9,-190.69"/>
</g>
<!-- AnagraficaAtletaComponent -->
<g id="node30" class="node">
<title>AnagraficaAtletaComponent</title>
<polygon fill="#ffffb3" stroke="black" points="1036.72,-84.8 859.28,-84.8 859.28,-48.8 1036.72,-48.8 1036.72,-84.8"/>
<text text-anchor="middle" x="948" y="-62.6" font-family="Times,serif" font-size="14.00">AnagraficaAtletaComponent</text>
</g>
<!-- AnagraficaAtletaComponent&#45;&gt;SharedModule -->
<g id="edge34" class="edge">
<title>AnagraficaAtletaComponent&#45;&gt;SharedModule</title>
<path fill="none" stroke="black" d="M948,-84.81C948,-100.85 948,-121.8 948,-121.8 948,-121.8 3511.76,-121.8 3511.76,-121.8 3511.76,-121.8 3511.76,-122.09 3511.76,-122.09"/>
<polygon fill="black" stroke="black" points="3508.26,-114.72 3511.76,-124.72 3515.26,-114.72 3508.26,-114.72"/>
</g>
<!-- AnagraficaTestComponent -->
<g id="node31" class="node">
<title>AnagraficaTestComponent</title>
<polygon fill="#ffffb3" stroke="black" points="840.61,-84.8 673.39,-84.8 673.39,-48.8 840.61,-48.8 840.61,-84.8"/>
<text text-anchor="middle" x="757" y="-62.6" font-family="Times,serif" font-size="14.00">AnagraficaTestComponent</text>
</g>
<!-- AnagraficaTestComponent&#45;&gt;SharedModule -->
<g id="edge35" class="edge">
<title>AnagraficaTestComponent&#45;&gt;SharedModule</title>
<path fill="none" stroke="black" d="M757,-84.97C757,-87.25 757,-88.8 757,-88.8 757,-88.8 3586.56,-88.8 3586.56,-88.8 3586.56,-88.8 3586.56,-114.52 3586.56,-114.52"/>
<polygon fill="black" stroke="black" points="3583.06,-114.52 3586.56,-124.52 3590.06,-114.52 3583.06,-114.52"/>
</g>
<!-- AtletaComponent -->
<g id="node32" class="node">
<title>AtletaComponent</title>
<polygon fill="#ffffb3" stroke="black" points="654.54,-84.8 539.46,-84.8 539.46,-48.8 654.54,-48.8 654.54,-84.8"/>
<text text-anchor="middle" x="597" y="-62.6" font-family="Times,serif" font-size="14.00">AtletaComponent</text>
</g>
<!-- AtletaComponent&#45;&gt;SharedModule -->
<g id="edge36" class="edge">
<title>AtletaComponent&#45;&gt;SharedModule</title>
<path fill="none" stroke="black" d="M597,-84.86C597,-89.29 597,-92.8 597,-92.8 597,-92.8 3575.74,-92.8 3575.74,-92.8 3575.74,-92.8 3575.74,-114.75 3575.74,-114.75"/>
<polygon fill="black" stroke="black" points="3572.24,-114.75 3575.74,-124.75 3579.24,-114.75 3572.24,-114.75"/>
</g>
<!-- AtletaPreviewComponent -->
<g id="node33" class="node">
<title>AtletaPreviewComponent</title>
<polygon fill="#ffffb3" stroke="black" points="521.91,-84.8 360.09,-84.8 360.09,-48.8 521.91,-48.8 521.91,-84.8"/>
<text text-anchor="middle" x="441" y="-62.6" font-family="Times,serif" font-size="14.00">AtletaPreviewComponent</text>
</g>
<!-- AtletaPreviewComponent&#45;&gt;SharedModule -->
<g id="edge37" class="edge">
<title>AtletaPreviewComponent&#45;&gt;SharedModule</title>
<path fill="none" stroke="black" d="M441,-85C441,-90.83 441,-95.8 441,-95.8 441,-95.8 3564.92,-95.8 3564.92,-95.8 3564.92,-95.8 3564.92,-114.76 3564.92,-114.76"/>
<polygon fill="black" stroke="black" points="3561.42,-114.76 3564.92,-124.76 3568.42,-114.76 3561.42,-114.76"/>
</g>
<!-- EnumToArrayPipe -->
<g id="node34" class="node">
<title>EnumToArrayPipe</title>
<polygon fill="#ffffb3" stroke="black" points="342.03,-84.8 219.97,-84.8 219.97,-48.8 342.03,-48.8 342.03,-84.8"/>
<text text-anchor="middle" x="281" y="-62.6" font-family="Times,serif" font-size="14.00">EnumToArrayPipe</text>
</g>
<!-- EnumToArrayPipe&#45;&gt;SharedModule -->
<g id="edge38" class="edge">
<title>EnumToArrayPipe&#45;&gt;SharedModule</title>
<path fill="none" stroke="black" d="M281,-84.84C281,-92.55 281,-99.8 281,-99.8 281,-99.8 3554.09,-99.8 3554.09,-99.8 3554.09,-99.8 3554.09,-114.31 3554.09,-114.31"/>
<polygon fill="black" stroke="black" points="3550.59,-114.31 3554.09,-124.31 3557.59,-114.31 3550.59,-114.31"/>
</g>
<!-- FilterPipe -->
<g id="node35" class="node">
<title>FilterPipe</title>
<polygon fill="#ffffb3" stroke="black" points="201.72,-84.8 130.28,-84.8 130.28,-48.8 201.72,-48.8 201.72,-84.8"/>
<text text-anchor="middle" x="166" y="-62.6" font-family="Times,serif" font-size="14.00">FilterPipe</text>
</g>
<!-- FilterPipe&#45;&gt;SharedModule -->
<g id="edge39" class="edge">
<title>FilterPipe&#45;&gt;SharedModule</title>
<path fill="none" stroke="black" d="M166,-84.87C166,-94.26 166,-103.8 166,-103.8 166,-103.8 3543.27,-103.8 3543.27,-103.8 3543.27,-103.8 3543.27,-114.67 3543.27,-114.67"/>
<polygon fill="black" stroke="black" points="3539.77,-114.67 3543.27,-124.67 3546.77,-114.67 3539.77,-114.67"/>
</g>
<!-- ListaAtletiComponent -->
<g id="node36" class="node">
<title>ListaAtletiComponent</title>
<polygon fill="#ffffb3" stroke="black" points="1613.71,-84.8 1472.29,-84.8 1472.29,-48.8 1613.71,-48.8 1613.71,-84.8"/>
<text text-anchor="middle" x="1543" y="-62.6" font-family="Times,serif" font-size="14.00">ListaAtletiComponent</text>
</g>
<!-- ListaAtletiComponent&#45;&gt;SharedModule -->
<g id="edge40" class="edge">
<title>ListaAtletiComponent&#45;&gt;SharedModule</title>
<path fill="none" stroke="black" d="M1613.64,-60.8C1966.32,-60.8 3519.65,-60.8 3519.65,-60.8 3519.65,-60.8 3519.65,-114.6 3519.65,-114.6"/>
<polygon fill="black" stroke="black" points="3516.15,-114.6 3519.65,-124.6 3523.15,-114.6 3516.15,-114.6"/>
</g>
<!-- ListaTestComponent -->
<g id="node37" class="node">
<title>ListaTestComponent</title>
<polygon fill="#ffffb3" stroke="black" points="1454.93,-84.8 1321.07,-84.8 1321.07,-48.8 1454.93,-48.8 1454.93,-84.8"/>
<text text-anchor="middle" x="1388" y="-62.6" font-family="Times,serif" font-size="14.00">ListaTestComponent</text>
</g>
<!-- ListaTestComponent&#45;&gt;SharedModule -->
<g id="edge41" class="edge">
<title>ListaTestComponent&#45;&gt;SharedModule</title>
<path fill="none" stroke="black" d="M1388,-84.95C1388,-97.07 1388,-110.8 1388,-110.8 1388,-110.8 3517.68,-110.8 3517.68,-110.8 3517.68,-110.8 3517.68,-114.56 3517.68,-114.56"/>
<polygon fill="black" stroke="black" points="3514.18,-114.56 3517.68,-124.56 3521.18,-114.56 3514.18,-114.56"/>
</g>
<!-- SearchPipe -->
<g id="node38" class="node">
<title>SearchPipe</title>
<polygon fill="#ffffb3" stroke="black" points="1303.47,-84.8 1224.53,-84.8 1224.53,-48.8 1303.47,-48.8 1303.47,-84.8"/>
<text text-anchor="middle" x="1264" y="-62.6" font-family="Times,serif" font-size="14.00">SearchPipe</text>
</g>
<!-- SearchPipe&#45;&gt;SharedModule -->
<g id="edge42" class="edge">
<title>SearchPipe&#45;&gt;SharedModule</title>
<path fill="none" stroke="black" d="M1264,-84.95C1264,-98.54 1264,-114.8 1264,-114.8 1264,-114.8 3515.7,-114.8 3515.7,-114.8 3515.7,-114.8 3515.7,-115.78 3515.7,-115.78"/>
<polygon fill="black" stroke="black" points="3512.2,-114.59 3515.7,-124.59 3519.2,-114.59 3512.2,-114.59"/>
</g>
<!-- TestPreviewComponent -->
<g id="node39" class="node">
<title>TestPreviewComponent</title>
<polygon fill="#ffffb3" stroke="black" points="1206.8,-84.8 1055.2,-84.8 1055.2,-48.8 1206.8,-48.8 1206.8,-84.8"/>
<text text-anchor="middle" x="1131" y="-62.6" font-family="Times,serif" font-size="14.00">TestPreviewComponent</text>
</g>
<!-- TestPreviewComponent&#45;&gt;SharedModule -->
<g id="edge43" class="edge">
<title>TestPreviewComponent&#45;&gt;SharedModule</title>
<path fill="none" stroke="black" d="M1131,-84.92C1131,-99.58 1131,-117.8 1131,-117.8 1131,-117.8 3513.73,-117.8 3513.73,-117.8 3513.73,-117.8 3513.73,-118.48 3513.73,-118.48"/>
<polygon fill="black" stroke="black" points="3510.23,-114.63 3513.73,-124.63 3517.23,-114.63 3510.23,-114.63"/>
</g>
</g>
</svg>
