<?xml version="1.0" encoding="UTF-8" standalone="no"?>
<!DOCTYPE svg PUBLIC "-//W3C//DTD SVG 1.1//EN"
 "http://www.w3.org/Graphics/SVG/1.1/DTD/svg11.dtd">
<!-- Generated by graphviz version 2.47.3 (20210619.1520)
 -->
<!-- Title: dependencies Pages: 1 -->
<svg width="960pt" height="247pt"
 viewBox="0.00 0.00 960.00 246.80" xmlns="http://www.w3.org/2000/svg" xmlns:xlink="http://www.w3.org/1999/xlink">
<g id="graph0" class="graph" transform="scale(1 1) rotate(0) translate(4 242.8)">
<title>dependencies</title>
<polygon fill="white" stroke="transparent" points="-4,4 -4,-242.8 956,-242.8 956,4 -4,4"/>
<text text-anchor="middle" x="476" y="-8.2" font-family="sans-serif" font-size="14.00">dependencies</text>
<g id="clust1" class="cluster">
<title>cluster_BaseModule</title>
<polygon fill="none" stroke="black" stroke-dasharray="1,5" points="8,-32.8 8,-230.8 944,-230.8 944,-32.8 8,-32.8"/>
</g>
<g id="clust2" class="cluster">
<title>cluster_BaseModule_declarations</title>
<polygon fill="none" stroke="black" points="168,-40.8 168,-92.8 936,-92.8 936,-40.8 168,-40.8"/>
</g>
<g id="clust9" class="cluster">
<title>cluster_BaseModule_exports</title>
<polygon fill="none" stroke="black" points="76,-170.8 76,-222.8 876,-222.8 876,-170.8 76,-170.8"/>
</g>
<g id="clust8" class="cluster">
<title>cluster_BaseModule_imports</title>
<polygon fill="none" stroke="black" points="16,-40.8 16,-92.8 160,-92.8 160,-40.8 16,-40.8"/>
</g>
<!-- BackButtonDirective -->
<g id="node1" class="node">
<title>BackButtonDirective</title>
<polygon fill="#ffffb3" stroke="black" points="928.47,-84.8 793.53,-84.8 793.53,-48.8 928.47,-48.8 928.47,-84.8"/>
<text text-anchor="middle" x="861" y="-62.6" font-family="Times,serif" font-size="14.00">BackButtonDirective</text>
</g>
<!-- BaseModule -->
<g id="node6" class="node">
<title>BaseModule</title>
<polygon fill="#8dd3c7" stroke="black" points="534.26,-149.8 531.26,-153.8 510.26,-153.8 507.26,-149.8 447.74,-149.8 447.74,-113.8 534.26,-113.8 534.26,-149.8"/>
<text text-anchor="middle" x="491" y="-127.6" font-family="Times,serif" font-size="14.00">BaseModule</text>
</g>
<!-- BackButtonDirective&#45;&gt;BaseModule -->
<g id="edge1" class="edge">
<title>BackButtonDirective&#45;&gt;BaseModule</title>
<path fill="none" stroke="black" d="M830.83,-85.07C830.83,-103.36 830.83,-128.8 830.83,-128.8 830.83,-128.8 544.38,-128.8 544.38,-128.8"/>
<polygon fill="black" stroke="black" points="544.38,-125.3 534.38,-128.8 544.38,-132.3 544.38,-125.3"/>
</g>
<!-- HomeComponent -->
<g id="node2" class="node">
<title>HomeComponent</title>
<polygon fill="#ffffb3" stroke="black" points="775.55,-84.8 660.45,-84.8 660.45,-48.8 775.55,-48.8 775.55,-84.8"/>
<text text-anchor="middle" x="718" y="-62.6" font-family="Times,serif" font-size="14.00">HomeComponent</text>
</g>
<!-- HomeComponent&#45;&gt;BaseModule -->
<g id="edge2" class="edge">
<title>HomeComponent&#45;&gt;BaseModule</title>
<path fill="none" stroke="black" d="M689.23,-84.81C689.23,-100.85 689.23,-121.8 689.23,-121.8 689.23,-121.8 544.5,-121.8 544.5,-121.8"/>
<polygon fill="black" stroke="black" points="544.5,-118.3 534.5,-121.8 544.5,-125.3 544.5,-118.3"/>
</g>
<!-- InputDateComponent -->
<g id="node3" class="node">
<title>InputDateComponent</title>
<polygon fill="#ffffb3" stroke="black" points="642.81,-84.8 505.19,-84.8 505.19,-48.8 642.81,-48.8 642.81,-84.8"/>
<text text-anchor="middle" x="574" y="-62.6" font-family="Times,serif" font-size="14.00">InputDateComponent</text>
</g>
<!-- InputDateComponent&#45;&gt;BaseModule -->
<g id="edge3" class="edge">
<title>InputDateComponent&#45;&gt;BaseModule</title>
<path fill="none" stroke="black" d="M519.86,-84.91C519.86,-84.91 519.86,-103.79 519.86,-103.79"/>
<polygon fill="black" stroke="black" points="516.36,-103.79 519.86,-113.79 523.36,-103.79 516.36,-103.79"/>
</g>
<!-- InputNumberComponent -->
<g id="node4" class="node">
<title>InputNumberComponent</title>
<polygon fill="#ffffb3" stroke="black" points="487.26,-84.8 330.74,-84.8 330.74,-48.8 487.26,-48.8 487.26,-84.8"/>
<text text-anchor="middle" x="409" y="-62.6" font-family="Times,serif" font-size="14.00">InputNumberComponent</text>
</g>
<!-- InputNumberComponent&#45;&gt;BaseModule -->
<g id="edge4" class="edge">
<title>InputNumberComponent&#45;&gt;BaseModule</title>
<path fill="none" stroke="black" d="M467.5,-84.91C467.5,-84.91 467.5,-103.79 467.5,-103.79"/>
<polygon fill="black" stroke="black" points="464,-103.79 467.5,-113.79 471,-103.79 464,-103.79"/>
</g>
<!-- InputTextComponent -->
<g id="node5" class="node">
<title>InputTextComponent</title>
<polygon fill="#ffffb3" stroke="black" points="312.04,-84.8 175.96,-84.8 175.96,-48.8 312.04,-48.8 312.04,-84.8"/>
<text text-anchor="middle" x="244" y="-62.6" font-family="Times,serif" font-size="14.00">InputTextComponent</text>
</g>
<!-- InputTextComponent&#45;&gt;BaseModule -->
<g id="edge5" class="edge">
<title>InputTextComponent&#45;&gt;BaseModule</title>
<path fill="none" stroke="black" d="M277.07,-84.81C277.07,-100.85 277.07,-121.8 277.07,-121.8 277.07,-121.8 437.71,-121.8 437.71,-121.8"/>
<polygon fill="black" stroke="black" points="437.71,-125.3 447.71,-121.8 437.71,-118.3 437.71,-125.3"/>
</g>
<!-- AppRoutingModule  -->
<g id="node8" class="node">
<title>AppRoutingModule </title>
<polygon fill="#fb8072" stroke="black" points="868.27,-214.8 735.73,-214.8 735.73,-178.8 868.27,-178.8 868.27,-214.8"/>
<text text-anchor="middle" x="802" y="-192.6" font-family="Times,serif" font-size="14.00">AppRoutingModule </text>
</g>
<!-- BaseModule&#45;&gt;AppRoutingModule  -->
<g id="edge7" class="edge">
<title>BaseModule&#45;&gt;AppRoutingModule </title>
<path fill="none" stroke="black" stroke-dasharray="5,2" d="M534.43,-135.8C609.56,-135.8 755.82,-135.8 755.82,-135.8 755.82,-135.8 755.82,-168.5 755.82,-168.5"/>
<polygon fill="black" stroke="black" points="752.32,-168.5 755.82,-178.5 759.32,-168.5 752.32,-168.5"/>
</g>
<!-- BackButtonDirective  -->
<g id="node9" class="node">
<title>BackButtonDirective </title>
<polygon fill="#fb8072" stroke="black" points="718.47,-214.8 579.53,-214.8 579.53,-178.8 718.47,-178.8 718.47,-214.8"/>
<text text-anchor="middle" x="649" y="-192.6" font-family="Times,serif" font-size="14.00">BackButtonDirective </text>
</g>
<!-- BaseModule&#45;&gt;BackButtonDirective  -->
<g id="edge8" class="edge">
<title>BaseModule&#45;&gt;BackButtonDirective </title>
<path fill="none" stroke="black" stroke-dasharray="5,2" d="M534.4,-142.8C568.83,-142.8 611.21,-142.8 611.21,-142.8 611.21,-142.8 611.21,-168.52 611.21,-168.52"/>
<polygon fill="black" stroke="black" points="607.71,-168.52 611.21,-178.52 614.71,-168.52 607.71,-168.52"/>
</g>
<!-- InputDateComponent  -->
<g id="node10" class="node">
<title>InputDateComponent </title>
<polygon fill="#fb8072" stroke="black" points="561.31,-214.8 420.69,-214.8 420.69,-178.8 561.31,-178.8 561.31,-214.8"/>
<text text-anchor="middle" x="491" y="-192.6" font-family="Times,serif" font-size="14.00">InputDateComponent </text>
</g>
<!-- BaseModule&#45;&gt;InputDateComponent  -->
<g id="edge9" class="edge">
<title>BaseModule&#45;&gt;InputDateComponent </title>
<path fill="none" stroke="black" stroke-dasharray="5,2" d="M491,-149.91C491,-149.91 491,-168.79 491,-168.79"/>
<polygon fill="black" stroke="black" points="487.5,-168.79 491,-178.79 494.5,-168.79 487.5,-168.79"/>
</g>
<!-- InputNumberComponent  -->
<g id="node11" class="node">
<title>InputNumberComponent </title>
<polygon fill="#fb8072" stroke="black" points="402.26,-214.8 241.74,-214.8 241.74,-178.8 402.26,-178.8 402.26,-214.8"/>
<text text-anchor="middle" x="322" y="-192.6" font-family="Times,serif" font-size="14.00">InputNumberComponent </text>
</g>
<!-- BaseModule&#45;&gt;InputNumberComponent  -->
<g id="edge10" class="edge">
<title>BaseModule&#45;&gt;InputNumberComponent </title>
<path fill="none" stroke="black" stroke-dasharray="5,2" d="M447.41,-142.8C411.47,-142.8 366.38,-142.8 366.38,-142.8 366.38,-142.8 366.38,-168.52 366.38,-168.52"/>
<polygon fill="black" stroke="black" points="362.88,-168.52 366.38,-178.52 369.88,-168.52 362.88,-168.52"/>
</g>
<!-- InputTextComponent  -->
<g id="node12" class="node">
<title>InputTextComponent </title>
<polygon fill="#fb8072" stroke="black" points="224.04,-214.8 83.96,-214.8 83.96,-178.8 224.04,-178.8 224.04,-214.8"/>
<text text-anchor="middle" x="154" y="-192.6" font-family="Times,serif" font-size="14.00">InputTextComponent </text>
</g>
<!-- BaseModule&#45;&gt;InputTextComponent  -->
<g id="edge11" class="edge">
<title>BaseModule&#45;&gt;InputTextComponent </title>
<path fill="none" stroke="black" stroke-dasharray="5,2" d="M447.73,-135.8C366.63,-135.8 199.88,-135.8 199.88,-135.8 199.88,-135.8 199.88,-168.5 199.88,-168.5"/>
<polygon fill="black" stroke="black" points="196.38,-168.5 199.88,-178.5 203.38,-168.5 196.38,-168.5"/>
</g>
<!-- AppRoutingModule -->
<g id="node7" class="node">
<title>AppRoutingModule</title>
<polygon fill="#8dd3c7" stroke="black" points="152.27,-84.8 149.27,-88.8 128.27,-88.8 125.27,-84.8 23.73,-84.8 23.73,-48.8 152.27,-48.8 152.27,-84.8"/>
<text text-anchor="middle" x="88" y="-62.6" font-family="Times,serif" font-size="14.00">AppRoutingModule</text>
</g>
<!-- AppRoutingModule&#45;&gt;BaseModule -->
<g id="edge6" class="edge">
<title>AppRoutingModule&#45;&gt;BaseModule</title>
<path fill="none" stroke="black" d="M118.18,-85.07C118.18,-103.36 118.18,-128.8 118.18,-128.8 118.18,-128.8 437.5,-128.8 437.5,-128.8"/>
<polygon fill="black" stroke="black" points="437.5,-132.3 447.5,-128.8 437.5,-125.3 437.5,-132.3"/>
</g>
</g>
</svg>
