<?xml version="1.0" encoding="UTF-8" standalone="no"?>
<!DOCTYPE svg PUBLIC "-//W3C//DTD SVG 1.1//EN"
 "http://www.w3.org/Graphics/SVG/1.1/DTD/svg11.dtd">
<!-- Generated by graphviz version 2.47.3 (20210619.1520)
 -->
<!-- Title: dependencies Pages: 1 -->
<svg width="2342pt" height="247pt"
 viewBox="0.00 0.00 2342.00 246.80" xmlns="http://www.w3.org/2000/svg" xmlns:xlink="http://www.w3.org/1999/xlink">
<g id="graph0" class="graph" transform="scale(1 1) rotate(0) translate(4 242.8)">
<title>dependencies</title>
<polygon fill="white" stroke="transparent" points="-4,4 -4,-242.8 2338,-242.8 2338,4 -4,4"/>
<text text-anchor="middle" x="1167" y="-8.2" font-family="sans-serif" font-size="14.00">dependencies</text>
<g id="clust1" class="cluster">
<title>cluster_BaseModule</title>
<polygon fill="none" stroke="black" stroke-dasharray="1,5" points="8,-32.8 8,-230.8 2326,-230.8 2326,-32.8 8,-32.8"/>
</g>
<g id="clust18" class="cluster">
<title>cluster_BaseModule_exports</title>
<polygon fill="none" stroke="black" points="16,-170.8 16,-222.8 2318,-222.8 2318,-170.8 16,-170.8"/>
</g>
<g id="clust2" class="cluster">
<title>cluster_BaseModule_declarations</title>
<polygon fill="none" stroke="black" points="46,-40.8 46,-92.8 2298,-92.8 2298,-40.8 46,-40.8"/>
</g>
<!-- AtletaPreviewComponent -->
<g id="node1" class="node">
<title>AtletaPreviewComponent</title>
<polygon fill="#ffffb3" stroke="black" points="2289.91,-84.8 2128.09,-84.8 2128.09,-48.8 2289.91,-48.8 2289.91,-84.8"/>
<text text-anchor="middle" x="2209" y="-62.6" font-family="Times,serif" font-size="14.00">AtletaPreviewComponent</text>
</g>
<!-- BaseModule -->
<g id="node15" class="node">
<title>BaseModule</title>
<polygon fill="#8dd3c7" stroke="black" points="1126.26,-149.8 1123.26,-153.8 1102.26,-153.8 1099.26,-149.8 1039.74,-149.8 1039.74,-113.8 1126.26,-113.8 1126.26,-149.8"/>
<text text-anchor="middle" x="1083" y="-127.6" font-family="Times,serif" font-size="14.00">BaseModule</text>
</g>
<!-- AtletaPreviewComponent&#45;&gt;BaseModule -->
<g id="edge1" class="edge">
<title>AtletaPreviewComponent&#45;&gt;BaseModule</title>
<path fill="none" stroke="black" d="M2136.92,-84.97C2136.92,-103.89 2136.92,-130.8 2136.92,-130.8 2136.92,-130.8 1136.28,-130.8 1136.28,-130.8"/>
<polygon fill="black" stroke="black" points="1136.28,-127.3 1126.28,-130.8 1136.28,-134.3 1136.28,-127.3"/>
</g>
<!-- BackButtonDirective -->
<g id="node2" class="node">
<title>BackButtonDirective</title>
<polygon fill="#ffffb3" stroke="black" points="2110.47,-84.8 1975.53,-84.8 1975.53,-48.8 2110.47,-48.8 2110.47,-84.8"/>
<text text-anchor="middle" x="2043" y="-62.6" font-family="Times,serif" font-size="14.00">BackButtonDirective</text>
</g>
<!-- BackButtonDirective&#45;&gt;BaseModule -->
<g id="edge2" class="edge">
<title>BackButtonDirective&#45;&gt;BaseModule</title>
<path fill="none" stroke="black" d="M1982.14,-85.07C1982.14,-103.36 1982.14,-128.8 1982.14,-128.8 1982.14,-128.8 1136.37,-128.8 1136.37,-128.8"/>
<polygon fill="black" stroke="black" points="1136.37,-125.3 1126.37,-128.8 1136.37,-132.3 1136.37,-125.3"/>
</g>
<!-- InputDateComponent -->
<g id="node3" class="node">
<title>InputDateComponent</title>
<polygon fill="#ffffb3" stroke="black" points="1957.81,-84.8 1820.19,-84.8 1820.19,-48.8 1957.81,-48.8 1957.81,-84.8"/>
<text text-anchor="middle" x="1889" y="-62.6" font-family="Times,serif" font-size="14.00">InputDateComponent</text>
</g>
<!-- InputDateComponent&#45;&gt;BaseModule -->
<g id="edge3" class="edge">
<title>InputDateComponent&#45;&gt;BaseModule</title>
<path fill="none" stroke="black" d="M1824.97,-84.82C1824.97,-102.17 1824.97,-125.8 1824.97,-125.8 1824.97,-125.8 1136.37,-125.8 1136.37,-125.8"/>
<polygon fill="black" stroke="black" points="1136.37,-122.3 1126.37,-125.8 1136.37,-129.3 1136.37,-122.3"/>
</g>
<!-- InputNumberComponent -->
<g id="node4" class="node">
<title>InputNumberComponent</title>
<polygon fill="#ffffb3" stroke="black" points="1802.26,-84.8 1645.74,-84.8 1645.74,-48.8 1802.26,-48.8 1802.26,-84.8"/>
<text text-anchor="middle" x="1724" y="-62.6" font-family="Times,serif" font-size="14.00">InputNumberComponent</text>
</g>
<!-- InputNumberComponent&#45;&gt;BaseModule -->
<g id="edge4" class="edge">
<title>InputNumberComponent&#45;&gt;BaseModule</title>
<path fill="none" stroke="black" d="M1751.88,-84.84C1751.88,-101.53 1751.88,-123.8 1751.88,-123.8 1751.88,-123.8 1136.37,-123.8 1136.37,-123.8"/>
<polygon fill="black" stroke="black" points="1136.37,-120.3 1126.37,-123.8 1136.37,-127.3 1136.37,-120.3"/>
</g>
<!-- InputSexComponent -->
<g id="node5" class="node">
<title>InputSexComponent</title>
<polygon fill="#ffffb3" stroke="black" points="1627.88,-84.8 1496.12,-84.8 1496.12,-48.8 1627.88,-48.8 1627.88,-84.8"/>
<text text-anchor="middle" x="1562" y="-62.6" font-family="Times,serif" font-size="14.00">InputSexComponent</text>
</g>
<!-- InputSexComponent&#45;&gt;BaseModule -->
<g id="edge5" class="edge">
<title>InputSexComponent&#45;&gt;BaseModule</title>
<path fill="none" stroke="black" d="M1584.4,-84.81C1584.4,-100.85 1584.4,-121.8 1584.4,-121.8 1584.4,-121.8 1136.62,-121.8 1136.62,-121.8"/>
<polygon fill="black" stroke="black" points="1136.62,-118.3 1126.62,-121.8 1136.62,-125.3 1136.62,-118.3"/>
</g>
<!-- InputTestTypeComponent -->
<g id="node6" class="node">
<title>InputTestTypeComponent</title>
<polygon fill="#ffffb3" stroke="black" points="1477.75,-84.8 1314.25,-84.8 1314.25,-48.8 1477.75,-48.8 1477.75,-84.8"/>
<text text-anchor="middle" x="1396" y="-62.6" font-family="Times,serif" font-size="14.00">InputTestTypeComponent</text>
</g>
<!-- InputTestTypeComponent&#45;&gt;BaseModule -->
<g id="edge6" class="edge">
<title>InputTestTypeComponent&#45;&gt;BaseModule</title>
<path fill="none" stroke="black" d="M1368.71,-84.99C1368.71,-99.98 1368.71,-118.8 1368.71,-118.8 1368.71,-118.8 1136.39,-118.8 1136.39,-118.8"/>
<polygon fill="black" stroke="black" points="1136.39,-115.3 1126.39,-118.8 1136.39,-122.3 1136.39,-115.3"/>
</g>
<!-- InputTextComponent -->
<g id="node7" class="node">
<title>InputTextComponent</title>
<polygon fill="#ffffb3" stroke="black" points="1296.04,-84.8 1159.96,-84.8 1159.96,-48.8 1296.04,-48.8 1296.04,-84.8"/>
<text text-anchor="middle" x="1228" y="-62.6" font-family="Times,serif" font-size="14.00">InputTextComponent</text>
</g>
<!-- InputTextComponent&#45;&gt;BaseModule -->
<g id="edge7" class="edge">
<title>InputTextComponent&#45;&gt;BaseModule</title>
<path fill="none" stroke="black" d="M1204.49,-84.85C1204.49,-99.17 1204.49,-116.8 1204.49,-116.8 1204.49,-116.8 1136.52,-116.8 1136.52,-116.8"/>
<polygon fill="black" stroke="black" points="1136.52,-113.3 1126.52,-116.8 1136.52,-120.3 1136.52,-113.3"/>
</g>
<!-- InputTimeComponent -->
<g id="node8" class="node">
<title>InputTimeComponent</title>
<polygon fill="#ffffb3" stroke="black" points="1142.43,-84.8 1001.57,-84.8 1001.57,-48.8 1142.43,-48.8 1142.43,-84.8"/>
<text text-anchor="middle" x="1072" y="-62.6" font-family="Times,serif" font-size="14.00">InputTimeComponent</text>
</g>
<!-- InputTimeComponent&#45;&gt;BaseModule -->
<g id="edge8" class="edge">
<title>InputTimeComponent&#45;&gt;BaseModule</title>
<path fill="none" stroke="black" d="M1083,-84.91C1083,-84.91 1083,-103.79 1083,-103.79"/>
<polygon fill="black" stroke="black" points="1079.5,-103.79 1083,-113.79 1086.5,-103.79 1079.5,-103.79"/>
</g>
<!-- ListaAtletiComponent -->
<g id="node9" class="node">
<title>ListaAtletiComponent</title>
<polygon fill="#ffffb3" stroke="black" points="983.71,-84.8 842.29,-84.8 842.29,-48.8 983.71,-48.8 983.71,-84.8"/>
<text text-anchor="middle" x="913" y="-62.6" font-family="Times,serif" font-size="14.00">ListaAtletiComponent</text>
</g>
<!-- ListaAtletiComponent&#45;&gt;BaseModule -->
<g id="edge9" class="edge">
<title>ListaAtletiComponent&#45;&gt;BaseModule</title>
<path fill="none" stroke="black" d="M978.98,-84.85C978.98,-99.17 978.98,-116.8 978.98,-116.8 978.98,-116.8 1029.49,-116.8 1029.49,-116.8"/>
<polygon fill="black" stroke="black" points="1029.49,-120.3 1039.49,-116.8 1029.49,-113.3 1029.49,-120.3"/>
</g>
<!-- ListaRisultatiComponent -->
<g id="node10" class="node">
<title>ListaRisultatiComponent</title>
<polygon fill="#ffffb3" stroke="black" points="824.27,-84.8 667.73,-84.8 667.73,-48.8 824.27,-48.8 824.27,-84.8"/>
<text text-anchor="middle" x="746" y="-62.6" font-family="Times,serif" font-size="14.00">ListaRisultatiComponent</text>
</g>
<!-- ListaRisultatiComponent&#45;&gt;BaseModule -->
<g id="edge10" class="edge">
<title>ListaRisultatiComponent&#45;&gt;BaseModule</title>
<path fill="none" stroke="black" d="M818.26,-85.04C818.26,-100.37 818.26,-119.8 818.26,-119.8 818.26,-119.8 1029.58,-119.8 1029.58,-119.8"/>
<polygon fill="black" stroke="black" points="1029.58,-123.3 1039.58,-119.8 1029.58,-116.3 1029.58,-123.3"/>
</g>
<!-- ListaTestComponent -->
<g id="node11" class="node">
<title>ListaTestComponent</title>
<polygon fill="#ffffb3" stroke="black" points="649.93,-84.8 516.07,-84.8 516.07,-48.8 649.93,-48.8 649.93,-84.8"/>
<text text-anchor="middle" x="583" y="-62.6" font-family="Times,serif" font-size="14.00">ListaTestComponent</text>
</g>
<!-- ListaTestComponent&#45;&gt;BaseModule -->
<g id="edge11" class="edge">
<title>ListaTestComponent&#45;&gt;BaseModule</title>
<path fill="none" stroke="black" d="M641.59,-84.83C641.59,-101.2 641.59,-122.8 641.59,-122.8 641.59,-122.8 1029.47,-122.8 1029.47,-122.8"/>
<polygon fill="black" stroke="black" points="1029.47,-126.3 1039.47,-122.8 1029.47,-119.3 1029.47,-126.3"/>
</g>
<!-- RisultatoPreviewComponent -->
<g id="node12" class="node">
<title>RisultatoPreviewComponent</title>
<polygon fill="#ffffb3" stroke="black" points="497.76,-84.8 320.24,-84.8 320.24,-48.8 497.76,-48.8 497.76,-84.8"/>
<text text-anchor="middle" x="409" y="-62.6" font-family="Times,serif" font-size="14.00">RisultatoPreviewComponent</text>
</g>
<!-- RisultatoPreviewComponent&#45;&gt;BaseModule -->
<g id="edge12" class="edge">
<title>RisultatoPreviewComponent&#45;&gt;BaseModule</title>
<path fill="none" stroke="black" d="M487.58,-84.82C487.58,-102.17 487.58,-125.8 487.58,-125.8 487.58,-125.8 1029.7,-125.8 1029.7,-125.8"/>
<polygon fill="black" stroke="black" points="1029.7,-129.3 1039.7,-125.8 1029.7,-122.3 1029.7,-129.3"/>
</g>
<!-- SearchPipe -->
<g id="node13" class="node">
<title>SearchPipe</title>
<polygon fill="#ffffb3" stroke="black" points="302.47,-84.8 223.53,-84.8 223.53,-48.8 302.47,-48.8 302.47,-84.8"/>
<text text-anchor="middle" x="263" y="-62.6" font-family="Times,serif" font-size="14.00">SearchPipe</text>
</g>
<!-- SearchPipe&#45;&gt;BaseModule -->
<g id="edge13" class="edge">
<title>SearchPipe&#45;&gt;BaseModule</title>
<path fill="none" stroke="black" d="M288.3,-85.1C288.3,-103.07 288.3,-127.8 288.3,-127.8 288.3,-127.8 1029.71,-127.8 1029.71,-127.8"/>
<polygon fill="black" stroke="black" points="1029.71,-131.3 1039.71,-127.8 1029.71,-124.3 1029.71,-131.3"/>
</g>
<!-- TestPreviewComponent -->
<g id="node14" class="node">
<title>TestPreviewComponent</title>
<polygon fill="#ffffb3" stroke="black" points="205.8,-84.8 54.2,-84.8 54.2,-48.8 205.8,-48.8 205.8,-84.8"/>
<text text-anchor="middle" x="130" y="-62.6" font-family="Times,serif" font-size="14.00">TestPreviewComponent</text>
</g>
<!-- TestPreviewComponent&#45;&gt;BaseModule -->
<g id="edge14" class="edge">
<title>TestPreviewComponent&#45;&gt;BaseModule</title>
<path fill="none" stroke="black" d="M201.21,-84.97C201.21,-103.89 201.21,-130.8 201.21,-130.8 201.21,-130.8 1029.57,-130.8 1029.57,-130.8"/>
<polygon fill="black" stroke="black" points="1029.57,-134.3 1039.57,-130.8 1029.57,-127.3 1029.57,-134.3"/>
</g>
<!-- AtletaPreviewComponent  -->
<g id="node16" class="node">
<title>AtletaPreviewComponent </title>
<polygon fill="#fb8072" stroke="black" points="2310.41,-214.8 2145.59,-214.8 2145.59,-178.8 2310.41,-178.8 2310.41,-214.8"/>
<text text-anchor="middle" x="2228" y="-192.6" font-family="Times,serif" font-size="14.00">AtletaPreviewComponent </text>
</g>
<!-- BaseModule&#45;&gt;AtletaPreviewComponent  -->
<g id="edge15" class="edge">
<title>BaseModule&#45;&gt;AtletaPreviewComponent </title>
<path fill="none" stroke="black" stroke-dasharray="5,2" d="M1126.44,-133.8C1334.32,-133.8 2217.62,-133.8 2217.62,-133.8 2217.62,-133.8 2217.62,-168.58 2217.62,-168.58"/>
<polygon fill="black" stroke="black" points="2214.13,-168.58 2217.62,-178.58 2221.13,-168.58 2214.13,-168.58"/>
</g>
<!-- BackButtonDirective  -->
<g id="node17" class="node">
<title>BackButtonDirective </title>
<polygon fill="#fb8072" stroke="black" points="2127.47,-214.8 1988.53,-214.8 1988.53,-178.8 2127.47,-178.8 2127.47,-214.8"/>
<text text-anchor="middle" x="2058" y="-192.6" font-family="Times,serif" font-size="14.00">BackButtonDirective </text>
</g>
<!-- BaseModule&#45;&gt;BackButtonDirective  -->
<g id="edge16" class="edge">
<title>BaseModule&#45;&gt;BackButtonDirective </title>
<path fill="none" stroke="black" stroke-dasharray="5,2" d="M1126.41,-135.8C1314.5,-135.8 2049.62,-135.8 2049.62,-135.8 2049.62,-135.8 2049.62,-168.5 2049.62,-168.5"/>
<polygon fill="black" stroke="black" points="2046.13,-168.5 2049.62,-178.5 2053.13,-168.5 2046.13,-168.5"/>
</g>
<!-- InputDateComponent  -->
<g id="node18" class="node">
<title>InputDateComponent </title>
<polygon fill="#fb8072" stroke="black" points="1970.31,-214.8 1829.69,-214.8 1829.69,-178.8 1970.31,-178.8 1970.31,-214.8"/>
<text text-anchor="middle" x="1900" y="-192.6" font-family="Times,serif" font-size="14.00">InputDateComponent </text>
</g>
<!-- BaseModule&#45;&gt;InputDateComponent  -->
<g id="edge17" class="edge">
<title>BaseModule&#45;&gt;InputDateComponent </title>
<path fill="none" stroke="black" stroke-dasharray="5,2" d="M1126.3,-137.8C1294.28,-137.8 1893.62,-137.8 1893.62,-137.8 1893.62,-137.8 1893.62,-168.78 1893.62,-168.78"/>
<polygon fill="black" stroke="black" points="1890.13,-168.78 1893.62,-178.78 1897.13,-168.78 1890.13,-168.78"/>
</g>
<!-- InputNumberComponent  -->
<g id="node19" class="node">
<title>InputNumberComponent </title>
<polygon fill="#fb8072" stroke="black" points="1811.26,-214.8 1650.74,-214.8 1650.74,-178.8 1811.26,-178.8 1811.26,-214.8"/>
<text text-anchor="middle" x="1731" y="-192.6" font-family="Times,serif" font-size="14.00">InputNumberComponent </text>
</g>
<!-- BaseModule&#45;&gt;InputNumberComponent  -->
<g id="edge18" class="edge">
<title>BaseModule&#45;&gt;InputNumberComponent </title>
<path fill="none" stroke="black" stroke-dasharray="5,2" d="M1126.48,-140.8C1267.24,-140.8 1701.37,-140.8 1701.37,-140.8 1701.37,-140.8 1701.37,-168.77 1701.37,-168.77"/>
<polygon fill="black" stroke="black" points="1697.87,-168.77 1701.37,-178.77 1704.87,-168.77 1697.87,-168.77"/>
</g>
<!-- InputSexComponent  -->
<g id="node20" class="node">
<title>InputSexComponent </title>
<polygon fill="#fb8072" stroke="black" points="1632.88,-214.8 1497.12,-214.8 1497.12,-178.8 1632.88,-178.8 1632.88,-214.8"/>
<text text-anchor="middle" x="1565" y="-192.6" font-family="Times,serif" font-size="14.00">InputSexComponent </text>
</g>
<!-- BaseModule&#45;&gt;InputSexComponent  -->
<g id="edge19" class="edge">
<title>BaseModule&#45;&gt;InputSexComponent </title>
<path fill="none" stroke="black" stroke-dasharray="5,2" d="M1126.49,-142.8C1240.77,-142.8 1540.85,-142.8 1540.85,-142.8 1540.85,-142.8 1540.85,-168.52 1540.85,-168.52"/>
<polygon fill="black" stroke="black" points="1537.35,-168.52 1540.85,-178.52 1544.35,-168.52 1537.35,-168.52"/>
</g>
<!-- InputTestTypeComponent  -->
<g id="node21" class="node">
<title>InputTestTypeComponent </title>
<polygon fill="#fb8072" stroke="black" points="1479.75,-214.8 1312.25,-214.8 1312.25,-178.8 1479.75,-178.8 1479.75,-214.8"/>
<text text-anchor="middle" x="1396" y="-192.6" font-family="Times,serif" font-size="14.00">InputTestTypeComponent </text>
</g>
<!-- BaseModule&#45;&gt;InputTestTypeComponent  -->
<g id="edge20" class="edge">
<title>BaseModule&#45;&gt;InputTestTypeComponent </title>
<path fill="none" stroke="black" stroke-dasharray="5,2" d="M1126.44,-145.8C1218.18,-145.8 1423.29,-145.8 1423.29,-145.8 1423.29,-145.8 1423.29,-168.68 1423.29,-168.68"/>
<polygon fill="black" stroke="black" points="1419.79,-168.68 1423.29,-178.68 1426.79,-168.68 1419.79,-168.68"/>
</g>
<!-- InputTextComponent  -->
<g id="node22" class="node">
<title>InputTextComponent </title>
<polygon fill="#fb8072" stroke="black" points="1294.04,-214.8 1153.96,-214.8 1153.96,-178.8 1294.04,-178.8 1294.04,-214.8"/>
<text text-anchor="middle" x="1224" y="-192.6" font-family="Times,serif" font-size="14.00">InputTextComponent </text>
</g>
<!-- BaseModule&#45;&gt;InputTextComponent  -->
<g id="edge21" class="edge">
<title>BaseModule&#45;&gt;InputTextComponent </title>
<path fill="none" stroke="black" stroke-dasharray="5,2" d="M1126.68,-147.8C1175.94,-147.8 1249.26,-147.8 1249.26,-147.8 1249.26,-147.8 1249.26,-168.55 1249.26,-168.55"/>
<polygon fill="black" stroke="black" points="1245.76,-168.55 1249.26,-178.55 1252.76,-168.55 1245.76,-168.55"/>
</g>
<!-- InputTimeComponent  -->
<g id="node23" class="node">
<title>InputTimeComponent </title>
<polygon fill="#fb8072" stroke="black" points="1135.93,-214.8 992.07,-214.8 992.07,-178.8 1135.93,-178.8 1135.93,-214.8"/>
<text text-anchor="middle" x="1064" y="-192.6" font-family="Times,serif" font-size="14.00">InputTimeComponent </text>
</g>
<!-- BaseModule&#45;&gt;InputTimeComponent  -->
<g id="edge22" class="edge">
<title>BaseModule&#45;&gt;InputTimeComponent </title>
<path fill="none" stroke="black" stroke-dasharray="5,2" d="M1083,-149.91C1083,-149.91 1083,-168.79 1083,-168.79"/>
<polygon fill="black" stroke="black" points="1079.5,-168.79 1083,-178.79 1086.5,-168.79 1079.5,-168.79"/>
</g>
<!-- ListaAtletiComponent  -->
<g id="node24" class="node">
<title>ListaAtletiComponent </title>
<polygon fill="#fb8072" stroke="black" points="974.21,-214.8 829.79,-214.8 829.79,-178.8 974.21,-178.8 974.21,-214.8"/>
<text text-anchor="middle" x="902" y="-192.6" font-family="Times,serif" font-size="14.00">ListaAtletiComponent </text>
</g>
<!-- BaseModule&#45;&gt;ListaAtletiComponent  -->
<g id="edge23" class="edge">
<title>BaseModule&#45;&gt;ListaAtletiComponent </title>
<path fill="none" stroke="black" stroke-dasharray="5,2" d="M1039.39,-147.8C987.66,-147.8 908.38,-147.8 908.38,-147.8 908.38,-147.8 908.38,-168.55 908.38,-168.55"/>
<polygon fill="black" stroke="black" points="904.88,-168.55 908.38,-178.55 911.88,-168.55 904.88,-168.55"/>
</g>
<!-- ListaRisultatiComponent  -->
<g id="node25" class="node">
<title>ListaRisultatiComponent </title>
<polygon fill="#fb8072" stroke="black" points="812.27,-214.8 651.73,-214.8 651.73,-178.8 812.27,-178.8 812.27,-214.8"/>
<text text-anchor="middle" x="732" y="-192.6" font-family="Times,serif" font-size="14.00">ListaRisultatiComponent </text>
</g>
<!-- BaseModule&#45;&gt;ListaRisultatiComponent  -->
<g id="edge24" class="edge">
<title>BaseModule&#45;&gt;ListaRisultatiComponent </title>
<path fill="none" stroke="black" stroke-dasharray="5,2" d="M1039.54,-144.8C947.21,-144.8 739.88,-144.8 739.88,-144.8 739.88,-144.8 739.88,-168.61 739.88,-168.61"/>
<polygon fill="black" stroke="black" points="736.38,-168.61 739.88,-178.61 743.38,-168.61 736.38,-168.61"/>
</g>
<!-- ListaTestComponent  -->
<g id="node26" class="node">
<title>ListaTestComponent </title>
<polygon fill="#fb8072" stroke="black" points="633.43,-214.8 496.57,-214.8 496.57,-178.8 633.43,-178.8 633.43,-214.8"/>
<text text-anchor="middle" x="565" y="-192.6" font-family="Times,serif" font-size="14.00">ListaTestComponent </text>
</g>
<!-- BaseModule&#45;&gt;ListaTestComponent  -->
<g id="edge25" class="edge">
<title>BaseModule&#45;&gt;ListaTestComponent </title>
<path fill="none" stroke="black" stroke-dasharray="5,2" d="M1039.68,-141.8C916.8,-141.8 574.88,-141.8 574.88,-141.8 574.88,-141.8 574.88,-168.79 574.88,-168.79"/>
<polygon fill="black" stroke="black" points="571.38,-168.79 574.88,-178.79 578.38,-168.79 571.38,-168.79"/>
</g>
<!-- RisultatoPreviewComponent  -->
<g id="node27" class="node">
<title>RisultatoPreviewComponent </title>
<polygon fill="#fb8072" stroke="black" points="478.76,-214.8 297.24,-214.8 297.24,-178.8 478.76,-178.8 478.76,-214.8"/>
<text text-anchor="middle" x="388" y="-192.6" font-family="Times,serif" font-size="14.00">RisultatoPreviewComponent </text>
</g>
<!-- BaseModule&#45;&gt;RisultatoPreviewComponent  -->
<g id="edge26" class="edge">
<title>BaseModule&#45;&gt;RisultatoPreviewComponent </title>
<path fill="none" stroke="black" stroke-dasharray="5,2" d="M1039.72,-138.8C889.44,-138.8 399.38,-138.8 399.38,-138.8 399.38,-138.8 399.38,-168.77 399.38,-168.77"/>
<polygon fill="black" stroke="black" points="395.88,-168.77 399.38,-178.77 402.88,-168.77 395.88,-168.77"/>
</g>
<!-- SearchPipe  -->
<g id="node28" class="node">
<title>SearchPipe </title>
<polygon fill="#fb8072" stroke="black" points="279.48,-214.8 196.52,-214.8 196.52,-178.8 279.48,-178.8 279.48,-214.8"/>
<text text-anchor="middle" x="238" y="-192.6" font-family="Times,serif" font-size="14.00">SearchPipe </text>
</g>
<!-- BaseModule&#45;&gt;SearchPipe  -->
<g id="edge27" class="edge">
<title>BaseModule&#45;&gt;SearchPipe </title>
<path fill="none" stroke="black" stroke-dasharray="5,2" d="M1039.46,-136.8C868.35,-136.8 251.38,-136.8 251.38,-136.8 251.38,-136.8 251.38,-168.8 251.38,-168.8"/>
<polygon fill="black" stroke="black" points="247.88,-168.8 251.38,-178.8 254.88,-168.8 247.88,-168.8"/>
</g>
<!-- TestPreviewComponent  -->
<g id="node29" class="node">
<title>TestPreviewComponent </title>
<polygon fill="#fb8072" stroke="black" points="178.3,-214.8 23.7,-214.8 23.7,-178.8 178.3,-178.8 178.3,-214.8"/>
<text text-anchor="middle" x="101" y="-192.6" font-family="Times,serif" font-size="14.00">TestPreviewComponent </text>
</g>
<!-- BaseModule&#45;&gt;TestPreviewComponent  -->
<g id="edge28" class="edge">
<title>BaseModule&#45;&gt;TestPreviewComponent </title>
<path fill="none" stroke="black" stroke-dasharray="5,2" d="M1039.59,-133.8C851.5,-133.8 116.38,-133.8 116.38,-133.8 116.38,-133.8 116.38,-168.58 116.38,-168.58"/>
<polygon fill="black" stroke="black" points="112.88,-168.58 116.38,-178.58 119.88,-168.58 112.88,-168.58"/>
</g>
</g>
</svg>
