<?xml version="1.0" encoding="UTF-8" standalone="no"?>
<!DOCTYPE svg PUBLIC "-//W3C//DTD SVG 1.1//EN"
 "http://www.w3.org/Graphics/SVG/1.1/DTD/svg11.dtd">
<!-- Generated by graphviz version 2.47.3 (20210619.1520)
 -->
<!-- Title: dependencies Pages: 1 -->
<svg width="1679pt" height="247pt"
 viewBox="0.00 0.00 1679.00 246.80" xmlns="http://www.w3.org/2000/svg" xmlns:xlink="http://www.w3.org/1999/xlink">
<g id="graph0" class="graph" transform="scale(1 1) rotate(0) translate(4 242.8)">
<title>dependencies</title>
<polygon fill="white" stroke="transparent" points="-4,4 -4,-242.8 1675,-242.8 1675,4 -4,4"/>
<text text-anchor="middle" x="835.5" y="-8.2" font-family="sans-serif" font-size="14.00">dependencies</text>
<g id="clust1" class="cluster">
<title>cluster_BaseModule</title>
<polygon fill="none" stroke="black" stroke-dasharray="1,5" points="8,-32.8 8,-230.8 1663,-230.8 1663,-32.8 8,-32.8"/>
</g>
<g id="clust2" class="cluster">
<title>cluster_BaseModule_declarations</title>
<polygon fill="none" stroke="black" points="168,-40.8 168,-92.8 1655,-92.8 1655,-40.8 168,-40.8"/>
</g>
<g id="clust14" class="cluster">
<title>cluster_BaseModule_exports</title>
<polygon fill="none" stroke="black" points="67,-170.8 67,-222.8 1604,-222.8 1604,-170.8 67,-170.8"/>
</g>
<g id="clust13" class="cluster">
<title>cluster_BaseModule_imports</title>
<polygon fill="none" stroke="black" points="16,-40.8 16,-92.8 160,-92.8 160,-40.8 16,-40.8"/>
</g>
<!-- BackButtonDirective -->
<g id="node1" class="node">
<title>BackButtonDirective</title>
<polygon fill="#ffffb3" stroke="black" points="1647.47,-84.8 1512.53,-84.8 1512.53,-48.8 1647.47,-48.8 1647.47,-84.8"/>
<text text-anchor="middle" x="1580" y="-62.6" font-family="Times,serif" font-size="14.00">BackButtonDirective</text>
</g>
<!-- BaseModule -->
<g id="node11" class="node">
<title>BaseModule</title>
<polygon fill="#8dd3c7" stroke="black" points="843.26,-149.8 840.26,-153.8 819.26,-153.8 816.26,-149.8 756.74,-149.8 756.74,-113.8 843.26,-113.8 843.26,-149.8"/>
<text text-anchor="middle" x="800" y="-127.6" font-family="Times,serif" font-size="14.00">BaseModule</text>
</g>
<!-- BackButtonDirective&#45;&gt;BaseModule -->
<g id="edge1" class="edge">
<title>BackButtonDirective&#45;&gt;BaseModule</title>
<path fill="none" stroke="black" d="M1554.33,-84.91C1554.33,-104.14 1554.33,-131.8 1554.33,-131.8 1554.33,-131.8 853.27,-131.8 853.27,-131.8"/>
<polygon fill="black" stroke="black" points="853.27,-128.3 843.27,-131.8 853.27,-135.3 853.27,-128.3"/>
</g>
<!-- HomeComponent -->
<g id="node2" class="node">
<title>HomeComponent</title>
<polygon fill="#ffffb3" stroke="black" points="1494.55,-84.8 1379.45,-84.8 1379.45,-48.8 1494.55,-48.8 1494.55,-84.8"/>
<text text-anchor="middle" x="1437" y="-62.6" font-family="Times,serif" font-size="14.00">HomeComponent</text>
</g>
<!-- HomeComponent&#45;&gt;BaseModule -->
<g id="edge2" class="edge">
<title>HomeComponent&#45;&gt;BaseModule</title>
<path fill="none" stroke="black" d="M1412.73,-85.07C1412.73,-103.36 1412.73,-128.8 1412.73,-128.8 1412.73,-128.8 853.57,-128.8 853.57,-128.8"/>
<polygon fill="black" stroke="black" points="853.57,-125.3 843.57,-128.8 853.57,-132.3 853.57,-125.3"/>
</g>
<!-- InputDateComponent -->
<g id="node3" class="node">
<title>InputDateComponent</title>
<polygon fill="#ffffb3" stroke="black" points="1361.81,-84.8 1224.19,-84.8 1224.19,-48.8 1361.81,-48.8 1361.81,-84.8"/>
<text text-anchor="middle" x="1293" y="-62.6" font-family="Times,serif" font-size="14.00">InputDateComponent</text>
</g>
<!-- InputDateComponent&#45;&gt;BaseModule -->
<g id="edge3" class="edge">
<title>InputDateComponent&#45;&gt;BaseModule</title>
<path fill="none" stroke="black" d="M1256.88,-84.83C1256.88,-101.86 1256.88,-124.8 1256.88,-124.8 1256.88,-124.8 853.39,-124.8 853.39,-124.8"/>
<polygon fill="black" stroke="black" points="853.39,-121.3 843.39,-124.8 853.39,-128.3 853.39,-121.3"/>
</g>
<!-- InputNumberComponent -->
<g id="node4" class="node">
<title>InputNumberComponent</title>
<polygon fill="#ffffb3" stroke="black" points="1206.26,-84.8 1049.74,-84.8 1049.74,-48.8 1206.26,-48.8 1206.26,-84.8"/>
<text text-anchor="middle" x="1128" y="-62.6" font-family="Times,serif" font-size="14.00">InputNumberComponent</text>
</g>
<!-- InputNumberComponent&#45;&gt;BaseModule -->
<g id="edge4" class="edge">
<title>InputNumberComponent&#45;&gt;BaseModule</title>
<path fill="none" stroke="black" d="M1089.88,-84.81C1089.88,-100.85 1089.88,-121.8 1089.88,-121.8 1089.88,-121.8 853.4,-121.8 853.4,-121.8"/>
<polygon fill="black" stroke="black" points="853.4,-118.3 843.4,-121.8 853.4,-125.3 853.4,-118.3"/>
</g>
<!-- InputSexComponent -->
<g id="node5" class="node">
<title>InputSexComponent</title>
<polygon fill="#ffffb3" stroke="black" points="1031.88,-84.8 900.12,-84.8 900.12,-48.8 1031.88,-48.8 1031.88,-84.8"/>
<text text-anchor="middle" x="966" y="-62.6" font-family="Times,serif" font-size="14.00">InputSexComponent</text>
</g>
<!-- InputSexComponent&#45;&gt;BaseModule -->
<g id="edge5" class="edge">
<title>InputSexComponent&#45;&gt;BaseModule</title>
<path fill="none" stroke="black" d="M925.88,-84.92C925.88,-99.58 925.88,-117.8 925.88,-117.8 925.88,-117.8 853.32,-117.8 853.32,-117.8"/>
<polygon fill="black" stroke="black" points="853.32,-114.3 843.32,-117.8 853.32,-121.3 853.32,-114.3"/>
</g>
<!-- InputTestTypeComponent -->
<g id="node6" class="node">
<title>InputTestTypeComponent</title>
<polygon fill="#ffffb3" stroke="black" points="881.75,-84.8 718.25,-84.8 718.25,-48.8 881.75,-48.8 881.75,-84.8"/>
<text text-anchor="middle" x="800" y="-62.6" font-family="Times,serif" font-size="14.00">InputTestTypeComponent</text>
</g>
<!-- InputTestTypeComponent&#45;&gt;BaseModule -->
<g id="edge6" class="edge">
<title>InputTestTypeComponent&#45;&gt;BaseModule</title>
<path fill="none" stroke="black" d="M800,-84.91C800,-84.91 800,-103.79 800,-103.79"/>
<polygon fill="black" stroke="black" points="796.5,-103.79 800,-113.79 803.5,-103.79 796.5,-103.79"/>
</g>
<!-- InputTextComponent -->
<g id="node7" class="node">
<title>InputTextComponent</title>
<polygon fill="#ffffb3" stroke="black" points="700.04,-84.8 563.96,-84.8 563.96,-48.8 700.04,-48.8 700.04,-84.8"/>
<text text-anchor="middle" x="632" y="-62.6" font-family="Times,serif" font-size="14.00">InputTextComponent</text>
</g>
<!-- InputTextComponent&#45;&gt;BaseModule -->
<g id="edge7" class="edge">
<title>InputTextComponent&#45;&gt;BaseModule</title>
<path fill="none" stroke="black" d="M665.82,-84.92C665.82,-99.58 665.82,-117.8 665.82,-117.8 665.82,-117.8 746.44,-117.8 746.44,-117.8"/>
<polygon fill="black" stroke="black" points="746.44,-121.3 756.44,-117.8 746.44,-114.3 746.44,-121.3"/>
</g>
<!-- InputTimeComponent -->
<g id="node8" class="node">
<title>InputTimeComponent</title>
<polygon fill="#ffffb3" stroke="black" points="546.43,-84.8 405.57,-84.8 405.57,-48.8 546.43,-48.8 546.43,-84.8"/>
<text text-anchor="middle" x="476" y="-62.6" font-family="Times,serif" font-size="14.00">InputTimeComponent</text>
</g>
<!-- InputTimeComponent&#45;&gt;BaseModule -->
<g id="edge8" class="edge">
<title>InputTimeComponent&#45;&gt;BaseModule</title>
<path fill="none" stroke="black" d="M509.6,-84.81C509.6,-100.85 509.6,-121.8 509.6,-121.8 509.6,-121.8 746.52,-121.8 746.52,-121.8"/>
<polygon fill="black" stroke="black" points="746.52,-125.3 756.52,-121.8 746.52,-118.3 746.52,-125.3"/>
</g>
<!-- LoginComponent -->
<g id="node9" class="node">
<title>LoginComponent</title>
<polygon fill="#ffffb3" stroke="black" points="387.28,-84.8 272.72,-84.8 272.72,-48.8 387.28,-48.8 387.28,-84.8"/>
<text text-anchor="middle" x="330" y="-62.6" font-family="Times,serif" font-size="14.00">LoginComponent</text>
</g>
<!-- LoginComponent&#45;&gt;BaseModule -->
<g id="edge9" class="edge">
<title>LoginComponent&#45;&gt;BaseModule</title>
<path fill="none" stroke="black" d="M349.21,-84.83C349.21,-101.86 349.21,-124.8 349.21,-124.8 349.21,-124.8 746.37,-124.8 746.37,-124.8"/>
<polygon fill="black" stroke="black" points="746.37,-128.3 756.37,-124.8 746.37,-121.3 746.37,-128.3"/>
</g>
<!-- SearchPipe -->
<g id="node10" class="node">
<title>SearchPipe</title>
<polygon fill="#ffffb3" stroke="black" points="254.47,-84.8 175.53,-84.8 175.53,-48.8 254.47,-48.8 254.47,-84.8"/>
<text text-anchor="middle" x="215" y="-62.6" font-family="Times,serif" font-size="14.00">SearchPipe</text>
</g>
<!-- SearchPipe&#45;&gt;BaseModule -->
<g id="edge10" class="edge">
<title>SearchPipe&#45;&gt;BaseModule</title>
<path fill="none" stroke="black" d="M215,-85.07C215,-103.36 215,-128.8 215,-128.8 215,-128.8 746.51,-128.8 746.51,-128.8"/>
<polygon fill="black" stroke="black" points="746.51,-132.3 756.51,-128.8 746.51,-125.3 746.51,-132.3"/>
</g>
<!-- AppRoutingModule  -->
<g id="node13" class="node">
<title>AppRoutingModule </title>
<polygon fill="#fb8072" stroke="black" points="1596.27,-214.8 1463.73,-214.8 1463.73,-178.8 1596.27,-178.8 1596.27,-214.8"/>
<text text-anchor="middle" x="1530" y="-192.6" font-family="Times,serif" font-size="14.00">AppRoutingModule </text>
</g>
<!-- BaseModule&#45;&gt;AppRoutingModule  -->
<g id="edge12" class="edge">
<title>BaseModule&#45;&gt;AppRoutingModule </title>
<path fill="none" stroke="black" stroke-dasharray="5,2" d="M843.27,-135.8C992.9,-135.8 1479.32,-135.8 1479.32,-135.8 1479.32,-135.8 1479.32,-168.5 1479.32,-168.5"/>
<polygon fill="black" stroke="black" points="1475.82,-168.5 1479.32,-178.5 1482.82,-168.5 1475.82,-168.5"/>
</g>
<!-- BackButtonDirective  -->
<g id="node14" class="node">
<title>BackButtonDirective </title>
<polygon fill="#fb8072" stroke="black" points="1446.47,-214.8 1307.53,-214.8 1307.53,-178.8 1446.47,-178.8 1446.47,-214.8"/>
<text text-anchor="middle" x="1377" y="-192.6" font-family="Times,serif" font-size="14.00">BackButtonDirective </text>
</g>
<!-- BaseModule&#45;&gt;BackButtonDirective  -->
<g id="edge13" class="edge">
<title>BaseModule&#45;&gt;BackButtonDirective </title>
<path fill="none" stroke="black" stroke-dasharray="5,2" d="M843.3,-139.8C970.6,-139.8 1334.71,-139.8 1334.71,-139.8 1334.71,-139.8 1334.71,-168.76 1334.71,-168.76"/>
<polygon fill="black" stroke="black" points="1331.21,-168.76 1334.71,-178.76 1338.21,-168.76 1331.21,-168.76"/>
</g>
<!-- InputDateComponent  -->
<g id="node15" class="node">
<title>InputDateComponent </title>
<polygon fill="#fb8072" stroke="black" points="1289.31,-214.8 1148.69,-214.8 1148.69,-178.8 1289.31,-178.8 1289.31,-214.8"/>
<text text-anchor="middle" x="1219" y="-192.6" font-family="Times,serif" font-size="14.00">InputDateComponent </text>
</g>
<!-- BaseModule&#45;&gt;InputDateComponent  -->
<g id="edge14" class="edge">
<title>BaseModule&#45;&gt;InputDateComponent </title>
<path fill="none" stroke="black" stroke-dasharray="5,2" d="M843.3,-142.8C942.46,-142.8 1177.49,-142.8 1177.49,-142.8 1177.49,-142.8 1177.49,-168.52 1177.49,-168.52"/>
<polygon fill="black" stroke="black" points="1173.99,-168.52 1177.49,-178.52 1180.99,-168.52 1173.99,-168.52"/>
</g>
<!-- InputNumberComponent  -->
<g id="node16" class="node">
<title>InputNumberComponent </title>
<polygon fill="#fb8072" stroke="black" points="1130.26,-214.8 969.74,-214.8 969.74,-178.8 1130.26,-178.8 1130.26,-214.8"/>
<text text-anchor="middle" x="1050" y="-192.6" font-family="Times,serif" font-size="14.00">InputNumberComponent </text>
</g>
<!-- BaseModule&#45;&gt;InputNumberComponent  -->
<g id="edge15" class="edge">
<title>BaseModule&#45;&gt;InputNumberComponent </title>
<path fill="none" stroke="black" stroke-dasharray="5,2" d="M843.59,-146.8C902.68,-146.8 1000.91,-146.8 1000.91,-146.8 1000.91,-146.8 1000.91,-168.75 1000.91,-168.75"/>
<polygon fill="black" stroke="black" points="997.41,-168.75 1000.91,-178.75 1004.41,-168.75 997.41,-168.75"/>
</g>
<!-- InputSexComponent  -->
<g id="node17" class="node">
<title>InputSexComponent </title>
<polygon fill="#fb8072" stroke="black" points="951.88,-214.8 816.12,-214.8 816.12,-178.8 951.88,-178.8 951.88,-214.8"/>
<text text-anchor="middle" x="884" y="-192.6" font-family="Times,serif" font-size="14.00">InputSexComponent </text>
</g>
<!-- BaseModule&#45;&gt;InputSexComponent  -->
<g id="edge16" class="edge">
<title>BaseModule&#45;&gt;InputSexComponent </title>
<path fill="none" stroke="black" stroke-dasharray="5,2" d="M829.84,-149.91C829.84,-149.91 829.84,-168.79 829.84,-168.79"/>
<polygon fill="black" stroke="black" points="826.34,-168.79 829.84,-178.79 833.34,-168.79 826.34,-168.79"/>
</g>
<!-- InputTestTypeComponent  -->
<g id="node18" class="node">
<title>InputTestTypeComponent </title>
<polygon fill="#fb8072" stroke="black" points="798.75,-214.8 631.25,-214.8 631.25,-178.8 798.75,-178.8 798.75,-214.8"/>
<text text-anchor="middle" x="715" y="-192.6" font-family="Times,serif" font-size="14.00">InputTestTypeComponent </text>
</g>
<!-- BaseModule&#45;&gt;InputTestTypeComponent  -->
<g id="edge17" class="edge">
<title>BaseModule&#45;&gt;InputTestTypeComponent </title>
<path fill="none" stroke="black" stroke-dasharray="5,2" d="M777.62,-149.91C777.62,-149.91 777.62,-168.79 777.62,-168.79"/>
<polygon fill="black" stroke="black" points="774.12,-168.79 777.62,-178.79 781.12,-168.79 774.12,-168.79"/>
</g>
<!-- InputTextComponent  -->
<g id="node19" class="node">
<title>InputTextComponent </title>
<polygon fill="#fb8072" stroke="black" points="613.04,-214.8 472.96,-214.8 472.96,-178.8 613.04,-178.8 613.04,-214.8"/>
<text text-anchor="middle" x="543" y="-192.6" font-family="Times,serif" font-size="14.00">InputTextComponent </text>
</g>
<!-- BaseModule&#45;&gt;InputTextComponent  -->
<g id="edge18" class="edge">
<title>BaseModule&#45;&gt;InputTextComponent </title>
<path fill="none" stroke="black" stroke-dasharray="5,2" d="M756.66,-146.8C694.75,-146.8 588.38,-146.8 588.38,-146.8 588.38,-146.8 588.38,-168.75 588.38,-168.75"/>
<polygon fill="black" stroke="black" points="584.88,-168.75 588.38,-178.75 591.88,-168.75 584.88,-168.75"/>
</g>
<!-- InputTimeComponent  -->
<g id="node20" class="node">
<title>InputTimeComponent </title>
<polygon fill="#fb8072" stroke="black" points="454.93,-214.8 311.07,-214.8 311.07,-178.8 454.93,-178.8 454.93,-214.8"/>
<text text-anchor="middle" x="383" y="-192.6" font-family="Times,serif" font-size="14.00">InputTimeComponent </text>
</g>
<!-- BaseModule&#45;&gt;InputTimeComponent  -->
<g id="edge19" class="edge">
<title>BaseModule&#45;&gt;InputTimeComponent </title>
<path fill="none" stroke="black" stroke-dasharray="5,2" d="M756.51,-142.8C658.81,-142.8 430.38,-142.8 430.38,-142.8 430.38,-142.8 430.38,-168.52 430.38,-168.52"/>
<polygon fill="black" stroke="black" points="426.88,-168.52 430.38,-178.52 433.88,-168.52 426.88,-168.52"/>
</g>
<!-- LoginComponent  -->
<g id="node21" class="node">
<title>LoginComponent </title>
<polygon fill="#fb8072" stroke="black" points="293.28,-214.8 174.72,-214.8 174.72,-178.8 293.28,-178.8 293.28,-214.8"/>
<text text-anchor="middle" x="234" y="-192.6" font-family="Times,serif" font-size="14.00">LoginComponent </text>
</g>
<!-- BaseModule&#45;&gt;LoginComponent  -->
<g id="edge20" class="edge">
<title>BaseModule&#45;&gt;LoginComponent </title>
<path fill="none" stroke="black" stroke-dasharray="5,2" d="M756.36,-139.8C631.68,-139.8 282.88,-139.8 282.88,-139.8 282.88,-139.8 282.88,-168.76 282.88,-168.76"/>
<polygon fill="black" stroke="black" points="279.38,-168.76 282.88,-178.76 286.38,-168.76 279.38,-168.76"/>
</g>
<!-- SearchPipe  -->
<g id="node22" class="node">
<title>SearchPipe </title>
<polygon fill="#fb8072" stroke="black" points="157.48,-214.8 74.52,-214.8 74.52,-178.8 157.48,-178.8 157.48,-214.8"/>
<text text-anchor="middle" x="116" y="-192.6" font-family="Times,serif" font-size="14.00">SearchPipe </text>
</g>
<!-- BaseModule&#45;&gt;SearchPipe  -->
<g id="edge21" class="edge">
<title>BaseModule&#45;&gt;SearchPipe </title>
<path fill="none" stroke="black" stroke-dasharray="5,2" d="M756.59,-135.8C607.64,-135.8 126.51,-135.8 126.51,-135.8 126.51,-135.8 126.51,-168.5 126.51,-168.5"/>
<polygon fill="black" stroke="black" points="123.01,-168.5 126.51,-178.5 130.01,-168.5 123.01,-168.5"/>
</g>
<!-- AppRoutingModule -->
<g id="node12" class="node">
<title>AppRoutingModule</title>
<polygon fill="#8dd3c7" stroke="black" points="152.27,-84.8 149.27,-88.8 128.27,-88.8 125.27,-84.8 23.73,-84.8 23.73,-48.8 152.27,-48.8 152.27,-84.8"/>
<text text-anchor="middle" x="88" y="-62.6" font-family="Times,serif" font-size="14.00">AppRoutingModule</text>
</g>
<!-- AppRoutingModule&#45;&gt;BaseModule -->
<g id="edge11" class="edge">
<title>AppRoutingModule&#45;&gt;BaseModule</title>
<path fill="none" stroke="black" d="M100.64,-84.91C100.64,-104.14 100.64,-131.8 100.64,-131.8 100.64,-131.8 746.52,-131.8 746.52,-131.8"/>
<polygon fill="black" stroke="black" points="746.52,-135.3 756.52,-131.8 746.52,-128.3 746.52,-135.3"/>
</g>
</g>
</svg>
