<?xml version="1.0" encoding="UTF-8" standalone="no"?>
<!DOCTYPE svg PUBLIC "-//W3C//DTD SVG 1.1//EN"
 "http://www.w3.org/Graphics/SVG/1.1/DTD/svg11.dtd">
<!-- Generated by graphviz version 2.47.3 (20210619.1520)
 -->
<!-- Title: dependencies Pages: 1 -->
<svg width="808pt" height="247pt"
 viewBox="0.00 0.00 808.00 246.80" xmlns="http://www.w3.org/2000/svg" xmlns:xlink="http://www.w3.org/1999/xlink">
<g id="graph0" class="graph" transform="scale(1 1) rotate(0) translate(4 242.8)">
<title>dependencies</title>
<polygon fill="white" stroke="transparent" points="-4,4 -4,-242.8 804,-242.8 804,4 -4,4"/>
<text text-anchor="middle" x="400" y="-8.2" font-family="sans-serif" font-size="14.00">dependencies</text>
<g id="clust1" class="cluster">
<title>cluster_BaseModule</title>
<polygon fill="none" stroke="black" stroke-dasharray="1,5" points="8,-32.8 8,-230.8 792,-230.8 792,-32.8 8,-32.8"/>
</g>
<g id="clust8" class="cluster">
<title>cluster_BaseModule_exports</title>
<polygon fill="none" stroke="black" points="78,-170.8 78,-222.8 722,-222.8 722,-170.8 78,-170.8"/>
</g>
<g id="clust2" class="cluster">
<title>cluster_BaseModule_declarations</title>
<polygon fill="none" stroke="black" points="168,-40.8 168,-92.8 784,-92.8 784,-40.8 168,-40.8"/>
</g>
<g id="clust7" class="cluster">
<title>cluster_BaseModule_imports</title>
<polygon fill="none" stroke="black" points="16,-40.8 16,-92.8 160,-92.8 160,-40.8 16,-40.8"/>
</g>
<!-- HomeComponent -->
<g id="node1" class="node">
<title>HomeComponent</title>
<polygon fill="#ffffb3" stroke="black" points="775.55,-84.8 660.45,-84.8 660.45,-48.8 775.55,-48.8 775.55,-84.8"/>
<text text-anchor="middle" x="718" y="-62.6" font-family="Times,serif" font-size="14.00">HomeComponent</text>
</g>
<!-- BaseModule -->
<g id="node5" class="node">
<title>BaseModule</title>
<polygon fill="#8dd3c7" stroke="black" points="452.26,-149.8 449.26,-153.8 428.26,-153.8 425.26,-149.8 365.74,-149.8 365.74,-113.8 452.26,-113.8 452.26,-149.8"/>
<text text-anchor="middle" x="409" y="-127.6" font-family="Times,serif" font-size="14.00">BaseModule</text>
</g>
<!-- HomeComponent&#45;&gt;BaseModule -->
<g id="edge1" class="edge">
<title>HomeComponent&#45;&gt;BaseModule</title>
<path fill="none" stroke="black" d="M687.18,-84.91C687.18,-104.14 687.18,-131.8 687.18,-131.8 687.18,-131.8 462.47,-131.8 462.47,-131.8"/>
<polygon fill="black" stroke="black" points="462.47,-128.3 452.47,-131.8 462.47,-135.3 462.47,-128.3"/>
</g>
<!-- InputDateComponent -->
<g id="node2" class="node">
<title>InputDateComponent</title>
<polygon fill="#ffffb3" stroke="black" points="642.81,-84.8 505.19,-84.8 505.19,-48.8 642.81,-48.8 642.81,-84.8"/>
<text text-anchor="middle" x="574" y="-62.6" font-family="Times,serif" font-size="14.00">InputDateComponent</text>
</g>
<!-- InputDateComponent&#45;&gt;BaseModule -->
<g id="edge2" class="edge">
<title>InputDateComponent&#45;&gt;BaseModule</title>
<path fill="none" stroke="black" d="M534.38,-84.83C534.38,-101.2 534.38,-122.8 534.38,-122.8 534.38,-122.8 462.5,-122.8 462.5,-122.8"/>
<polygon fill="black" stroke="black" points="462.5,-119.3 452.5,-122.8 462.5,-126.3 462.5,-119.3"/>
</g>
<!-- InputNumberComponent -->
<g id="node3" class="node">
<title>InputNumberComponent</title>
<polygon fill="#ffffb3" stroke="black" points="487.26,-84.8 330.74,-84.8 330.74,-48.8 487.26,-48.8 487.26,-84.8"/>
<text text-anchor="middle" x="409" y="-62.6" font-family="Times,serif" font-size="14.00">InputNumberComponent</text>
</g>
<!-- InputNumberComponent&#45;&gt;BaseModule -->
<g id="edge3" class="edge">
<title>InputNumberComponent&#45;&gt;BaseModule</title>
<path fill="none" stroke="black" d="M409,-84.91C409,-84.91 409,-103.79 409,-103.79"/>
<polygon fill="black" stroke="black" points="405.5,-103.79 409,-113.79 412.5,-103.79 405.5,-103.79"/>
</g>
<!-- InputTextComponent -->
<g id="node4" class="node">
<title>InputTextComponent</title>
<polygon fill="#ffffb3" stroke="black" points="312.04,-84.8 175.96,-84.8 175.96,-48.8 312.04,-48.8 312.04,-84.8"/>
<text text-anchor="middle" x="244" y="-62.6" font-family="Times,serif" font-size="14.00">InputTextComponent</text>
</g>
<!-- InputTextComponent&#45;&gt;BaseModule -->
<g id="edge4" class="edge">
<title>InputTextComponent&#45;&gt;BaseModule</title>
<path fill="none" stroke="black" d="M278.07,-84.83C278.07,-101.2 278.07,-122.8 278.07,-122.8 278.07,-122.8 355.4,-122.8 355.4,-122.8"/>
<polygon fill="black" stroke="black" points="355.4,-126.3 365.4,-122.8 355.4,-119.3 355.4,-126.3"/>
</g>
<!-- AppRoutingModule  -->
<g id="node7" class="node">
<title>AppRoutingModule </title>
<polygon fill="#fb8072" stroke="black" points="714.27,-214.8 581.73,-214.8 581.73,-178.8 714.27,-178.8 714.27,-214.8"/>
<text text-anchor="middle" x="648" y="-192.6" font-family="Times,serif" font-size="14.00">AppRoutingModule </text>
</g>
<!-- BaseModule&#45;&gt;AppRoutingModule  -->
<g id="edge6" class="edge">
<title>BaseModule&#45;&gt;AppRoutingModule </title>
<path fill="none" stroke="black" stroke-dasharray="5,2" d="M452.35,-140.8C512.05,-140.8 612.26,-140.8 612.26,-140.8 612.26,-140.8 612.26,-168.77 612.26,-168.77"/>
<polygon fill="black" stroke="black" points="608.76,-168.77 612.26,-178.77 615.76,-168.77 608.76,-168.77"/>
</g>
<!-- InputDateComponent  -->
<g id="node8" class="node">
<title>InputDateComponent </title>
<polygon fill="#fb8072" stroke="black" points="563.31,-214.8 422.69,-214.8 422.69,-178.8 563.31,-178.8 563.31,-214.8"/>
<text text-anchor="middle" x="493" y="-192.6" font-family="Times,serif" font-size="14.00">InputDateComponent </text>
</g>
<!-- BaseModule&#45;&gt;InputDateComponent  -->
<g id="edge7" class="edge">
<title>BaseModule&#45;&gt;InputDateComponent </title>
<path fill="none" stroke="black" stroke-dasharray="5,2" d="M437.49,-149.91C437.49,-149.91 437.49,-168.79 437.49,-168.79"/>
<polygon fill="black" stroke="black" points="433.99,-168.79 437.49,-178.79 440.99,-168.79 433.99,-168.79"/>
</g>
<!-- InputNumberComponent  -->
<g id="node9" class="node">
<title>InputNumberComponent </title>
<polygon fill="#fb8072" stroke="black" points="404.26,-214.8 243.74,-214.8 243.74,-178.8 404.26,-178.8 404.26,-214.8"/>
<text text-anchor="middle" x="324" y="-192.6" font-family="Times,serif" font-size="14.00">InputNumberComponent </text>
</g>
<!-- BaseModule&#45;&gt;InputNumberComponent  -->
<g id="edge8" class="edge">
<title>BaseModule&#45;&gt;InputNumberComponent </title>
<path fill="none" stroke="black" stroke-dasharray="5,2" d="M384.87,-149.91C384.87,-149.91 384.87,-168.79 384.87,-168.79"/>
<polygon fill="black" stroke="black" points="381.37,-168.79 384.87,-178.79 388.37,-168.79 381.37,-168.79"/>
</g>
<!-- InputTextComponent  -->
<g id="node10" class="node">
<title>InputTextComponent </title>
<polygon fill="#fb8072" stroke="black" points="226.04,-214.8 85.96,-214.8 85.96,-178.8 226.04,-178.8 226.04,-214.8"/>
<text text-anchor="middle" x="156" y="-192.6" font-family="Times,serif" font-size="14.00">InputTextComponent </text>
</g>
<!-- BaseModule&#45;&gt;InputTextComponent  -->
<g id="edge9" class="edge">
<title>BaseModule&#45;&gt;InputTextComponent </title>
<path fill="none" stroke="black" stroke-dasharray="5,2" d="M365.62,-140.8C304.63,-140.8 200.88,-140.8 200.88,-140.8 200.88,-140.8 200.88,-168.77 200.88,-168.77"/>
<polygon fill="black" stroke="black" points="197.38,-168.77 200.88,-178.77 204.38,-168.77 197.38,-168.77"/>
</g>
<!-- AppRoutingModule -->
<g id="node6" class="node">
<title>AppRoutingModule</title>
<polygon fill="#8dd3c7" stroke="black" points="152.27,-84.8 149.27,-88.8 128.27,-88.8 125.27,-84.8 23.73,-84.8 23.73,-48.8 152.27,-48.8 152.27,-84.8"/>
<text text-anchor="middle" x="88" y="-62.6" font-family="Times,serif" font-size="14.00">AppRoutingModule</text>
</g>
<!-- AppRoutingModule&#45;&gt;BaseModule -->
<g id="edge5" class="edge">
<title>AppRoutingModule&#45;&gt;BaseModule</title>
<path fill="none" stroke="black" d="M119.18,-84.91C119.18,-104.14 119.18,-131.8 119.18,-131.8 119.18,-131.8 355.61,-131.8 355.61,-131.8"/>
<polygon fill="black" stroke="black" points="355.61,-135.3 365.61,-131.8 355.61,-128.3 355.61,-135.3"/>
</g>
</g>
</svg>
