<?xml version="1.0" encoding="UTF-8" standalone="no"?>
<!DOCTYPE svg PUBLIC "-//W3C//DTD SVG 1.1//EN"
 "http://www.w3.org/Graphics/SVG/1.1/DTD/svg11.dtd">
<!-- Generated by graphviz version 2.47.3 (20210619.1520)
 -->
<!-- Title: dependencies Pages: 1 -->
<svg width="1057pt" height="247pt"
 viewBox="0.00 0.00 1057.00 246.80" xmlns="http://www.w3.org/2000/svg" xmlns:xlink="http://www.w3.org/1999/xlink">
<g id="graph0" class="graph" transform="scale(1 1) rotate(0) translate(4 242.8)">
<title>dependencies</title>
<polygon fill="white" stroke="transparent" points="-4,4 -4,-242.8 1053,-242.8 1053,4 -4,4"/>
<text text-anchor="middle" x="524.5" y="-8.2" font-family="sans-serif" font-size="14.00">dependencies</text>
<g id="clust1" class="cluster">
<title>cluster_GestioneModule</title>
<polygon fill="none" stroke="black" stroke-dasharray="1,5" points="8,-32.8 8,-230.8 1041,-230.8 1041,-32.8 8,-32.8"/>
</g>
<g id="clust8" class="cluster">
<title>cluster_GestioneModule_exports</title>
<polygon fill="none" stroke="black" points="524,-170.8 524,-222.8 674,-222.8 674,-170.8 524,-170.8"/>
</g>
<g id="clust7" class="cluster">
<title>cluster_GestioneModule_imports</title>
<polygon fill="none" stroke="black" points="814,-40.8 814,-92.8 1033,-92.8 1033,-40.8 814,-40.8"/>
</g>
<g id="clust2" class="cluster">
<title>cluster_GestioneModule_declarations</title>
<polygon fill="none" stroke="black" points="16,-40.8 16,-92.8 806,-92.8 806,-40.8 16,-40.8"/>
</g>
<!-- GestioneAtletiLandingComponent -->
<g id="node1" class="node">
<title>GestioneAtletiLandingComponent</title>
<polygon fill="#ffffb3" stroke="black" points="797.64,-84.8 588.36,-84.8 588.36,-48.8 797.64,-48.8 797.64,-84.8"/>
<text text-anchor="middle" x="693" y="-62.6" font-family="Times,serif" font-size="14.00">GestioneAtletiLandingComponent</text>
</g>
<!-- GestioneModule -->
<g id="node5" class="node">
<title>GestioneModule</title>
<polygon fill="#8dd3c7" stroke="black" points="653.81,-149.8 650.81,-153.8 629.81,-153.8 626.81,-149.8 544.19,-149.8 544.19,-113.8 653.81,-113.8 653.81,-149.8"/>
<text text-anchor="middle" x="599" y="-127.6" font-family="Times,serif" font-size="14.00">GestioneModule</text>
</g>
<!-- GestioneAtletiLandingComponent&#45;&gt;GestioneModule -->
<g id="edge1" class="edge">
<title>GestioneAtletiLandingComponent&#45;&gt;GestioneModule</title>
<path fill="none" stroke="black" d="M620.92,-84.91C620.92,-84.91 620.92,-103.79 620.92,-103.79"/>
<polygon fill="black" stroke="black" points="617.42,-103.79 620.92,-113.79 624.42,-103.79 617.42,-103.79"/>
</g>
<!-- GestioneComponent -->
<g id="node2" class="node">
<title>GestioneComponent</title>
<polygon fill="#ffffb3" stroke="black" points="570.59,-84.8 439.41,-84.8 439.41,-48.8 570.59,-48.8 570.59,-84.8"/>
<text text-anchor="middle" x="505" y="-62.6" font-family="Times,serif" font-size="14.00">GestioneComponent</text>
</g>
<!-- GestioneComponent&#45;&gt;GestioneModule -->
<g id="edge2" class="edge">
<title>GestioneComponent&#45;&gt;GestioneModule</title>
<path fill="none" stroke="black" d="M557.45,-84.91C557.45,-84.91 557.45,-103.79 557.45,-103.79"/>
<polygon fill="black" stroke="black" points="553.95,-103.79 557.45,-113.79 560.95,-103.79 553.95,-103.79"/>
</g>
<!-- GestioneLandingComponent -->
<g id="node3" class="node">
<title>GestioneLandingComponent</title>
<polygon fill="#ffffb3" stroke="black" points="421.75,-84.8 244.25,-84.8 244.25,-48.8 421.75,-48.8 421.75,-84.8"/>
<text text-anchor="middle" x="333" y="-62.6" font-family="Times,serif" font-size="14.00">GestioneLandingComponent</text>
</g>
<!-- GestioneLandingComponent&#45;&gt;GestioneModule -->
<g id="edge3" class="edge">
<title>GestioneLandingComponent&#45;&gt;GestioneModule</title>
<path fill="none" stroke="black" d="M333,-84.82C333,-102.17 333,-125.8 333,-125.8 333,-125.8 534.21,-125.8 534.21,-125.8"/>
<polygon fill="black" stroke="black" points="534.21,-129.3 544.21,-125.8 534.21,-122.3 534.21,-129.3"/>
</g>
<!-- GestioneTestLandingComponent -->
<g id="node4" class="node">
<title>GestioneTestLandingComponent</title>
<polygon fill="#ffffb3" stroke="black" points="225.85,-84.8 24.15,-84.8 24.15,-48.8 225.85,-48.8 225.85,-84.8"/>
<text text-anchor="middle" x="125" y="-62.6" font-family="Times,serif" font-size="14.00">GestioneTestLandingComponent</text>
</g>
<!-- GestioneTestLandingComponent&#45;&gt;GestioneModule -->
<g id="edge4" class="edge">
<title>GestioneTestLandingComponent&#45;&gt;GestioneModule</title>
<path fill="none" stroke="black" d="M125,-85.08C125,-106.12 125,-137.8 125,-137.8 125,-137.8 534.16,-137.8 534.16,-137.8"/>
<polygon fill="black" stroke="black" points="534.16,-141.3 544.16,-137.8 534.16,-134.3 534.16,-141.3"/>
</g>
<!-- GestioneComponent  -->
<g id="node8" class="node">
<title>GestioneComponent </title>
<polygon fill="#fb8072" stroke="black" points="666.09,-214.8 531.91,-214.8 531.91,-178.8 666.09,-178.8 666.09,-214.8"/>
<text text-anchor="middle" x="599" y="-192.6" font-family="Times,serif" font-size="14.00">GestioneComponent </text>
</g>
<!-- GestioneModule&#45;&gt;GestioneComponent  -->
<g id="edge7" class="edge">
<title>GestioneModule&#45;&gt;GestioneComponent </title>
<path fill="none" stroke="black" stroke-dasharray="5,2" d="M599,-149.91C599,-149.91 599,-168.79 599,-168.79"/>
<polygon fill="black" stroke="black" points="595.5,-168.79 599,-178.79 602.5,-168.79 595.5,-168.79"/>
</g>
<!-- BaseModule -->
<g id="node6" class="node">
<title>BaseModule</title>
<polygon fill="#8dd3c7" stroke="black" points="1025.26,-84.8 1022.26,-88.8 1001.26,-88.8 998.26,-84.8 938.74,-84.8 938.74,-48.8 1025.26,-48.8 1025.26,-84.8"/>
<text text-anchor="middle" x="982" y="-62.6" font-family="Times,serif" font-size="14.00">BaseModule</text>
</g>
<!-- BaseModule&#45;&gt;GestioneModule -->
<g id="edge5" class="edge">
<title>BaseModule&#45;&gt;GestioneModule</title>
<path fill="none" stroke="black" d="M982,-85.08C982,-106.12 982,-137.8 982,-137.8 982,-137.8 663.87,-137.8 663.87,-137.8"/>
<polygon fill="black" stroke="black" points="663.87,-134.3 653.87,-137.8 663.87,-141.3 663.87,-134.3"/>
</g>
<!-- SharedModule -->
<g id="node7" class="node">
<title>SharedModule</title>
<polygon fill="#8dd3c7" stroke="black" points="920.42,-84.8 917.42,-88.8 896.42,-88.8 893.42,-84.8 821.58,-84.8 821.58,-48.8 920.42,-48.8 920.42,-84.8"/>
<text text-anchor="middle" x="871" y="-62.6" font-family="Times,serif" font-size="14.00">SharedModule</text>
</g>
<!-- SharedModule&#45;&gt;GestioneModule -->
<g id="edge6" class="edge">
<title>SharedModule&#45;&gt;GestioneModule</title>
<path fill="none" stroke="black" d="M871,-84.82C871,-102.17 871,-125.8 871,-125.8 871,-125.8 663.72,-125.8 663.72,-125.8"/>
<polygon fill="black" stroke="black" points="663.72,-122.3 653.72,-125.8 663.72,-129.3 663.72,-122.3"/>
</g>
</g>
</svg>
