<?xml version="1.0" encoding="UTF-8" standalone="no"?>
<!DOCTYPE svg PUBLIC "-//W3C//DTD SVG 1.1//EN"
 "http://www.w3.org/Graphics/SVG/1.1/DTD/svg11.dtd">
<!-- Generated by graphviz version 2.47.3 (20210619.1520)
 -->
<!-- Title: dependencies Pages: 1 -->
<svg width="415pt" height="247pt"
 viewBox="0.00 0.00 415.00 246.80" xmlns="http://www.w3.org/2000/svg" xmlns:xlink="http://www.w3.org/1999/xlink">
<g id="graph0" class="graph" transform="scale(1 1) rotate(0) translate(4 242.8)">
<title>dependencies</title>
<polygon fill="white" stroke="transparent" points="-4,4 -4,-242.8 411,-242.8 411,4 -4,4"/>
<text text-anchor="middle" x="203.5" y="-8.2" font-family="sans-serif" font-size="14.00">dependencies</text>
<g id="clust1" class="cluster">
<title>cluster_GestioneModule</title>
<polygon fill="none" stroke="black" stroke-dasharray="1,5" points="8,-32.8 8,-230.8 399,-230.8 399,-32.8 8,-32.8"/>
</g>
<g id="clust2" class="cluster">
<title>cluster_GestioneModule_declarations</title>
<polygon fill="none" stroke="black" points="243,-40.8 243,-92.8 391,-92.8 391,-40.8 243,-40.8"/>
</g>
<g id="clust5" class="cluster">
<title>cluster_GestioneModule_exports</title>
<polygon fill="none" stroke="black" points="109,-170.8 109,-222.8 259,-222.8 259,-170.8 109,-170.8"/>
</g>
<g id="clust4" class="cluster">
<title>cluster_GestioneModule_imports</title>
<polygon fill="none" stroke="black" points="16,-40.8 16,-92.8 235,-92.8 235,-40.8 16,-40.8"/>
</g>
<!-- GestioneComponent -->
<g id="node1" class="node">
<title>GestioneComponent</title>
<polygon fill="#ffffb3" stroke="black" points="382.59,-84.8 251.41,-84.8 251.41,-48.8 382.59,-48.8 382.59,-84.8"/>
<text text-anchor="middle" x="317" y="-62.6" font-family="Times,serif" font-size="14.00">GestioneComponent</text>
</g>
<!-- GestioneModule -->
<g id="node2" class="node">
<title>GestioneModule</title>
<polygon fill="#8dd3c7" stroke="black" points="238.81,-149.8 235.81,-153.8 214.81,-153.8 211.81,-149.8 129.19,-149.8 129.19,-113.8 238.81,-113.8 238.81,-149.8"/>
<text text-anchor="middle" x="184" y="-127.6" font-family="Times,serif" font-size="14.00">GestioneModule</text>
</g>
<!-- GestioneComponent&#45;&gt;GestioneModule -->
<g id="edge1" class="edge">
<title>GestioneComponent&#45;&gt;GestioneModule</title>
<path fill="none" stroke="black" d="M251.24,-66.8C240.62,-66.8 233.02,-66.8 233.02,-66.8 233.02,-66.8 233.02,-103.69 233.02,-103.69"/>
<polygon fill="black" stroke="black" points="229.52,-103.69 233.02,-113.69 236.52,-103.69 229.52,-103.69"/>
</g>
<!-- GestioneComponent  -->
<g id="node5" class="node">
<title>GestioneComponent </title>
<polygon fill="#fb8072" stroke="black" points="251.09,-214.8 116.91,-214.8 116.91,-178.8 251.09,-178.8 251.09,-214.8"/>
<text text-anchor="middle" x="184" y="-192.6" font-family="Times,serif" font-size="14.00">GestioneComponent </text>
</g>
<!-- GestioneModule&#45;&gt;GestioneComponent  -->
<g id="edge4" class="edge">
<title>GestioneModule&#45;&gt;GestioneComponent </title>
<path fill="none" stroke="black" stroke-dasharray="5,2" d="M184,-149.91C184,-149.91 184,-168.79 184,-168.79"/>
<polygon fill="black" stroke="black" points="180.5,-168.79 184,-178.79 187.5,-168.79 180.5,-168.79"/>
</g>
<!-- BaseModule -->
<g id="node3" class="node">
<title>BaseModule</title>
<polygon fill="#8dd3c7" stroke="black" points="227.26,-84.8 224.26,-88.8 203.26,-88.8 200.26,-84.8 140.74,-84.8 140.74,-48.8 227.26,-48.8 227.26,-84.8"/>
<text text-anchor="middle" x="184" y="-62.6" font-family="Times,serif" font-size="14.00">BaseModule</text>
</g>
<!-- BaseModule&#45;&gt;GestioneModule -->
<g id="edge2" class="edge">
<title>BaseModule&#45;&gt;GestioneModule</title>
<path fill="none" stroke="black" d="M184,-84.91C184,-84.91 184,-103.79 184,-103.79"/>
<polygon fill="black" stroke="black" points="180.5,-103.79 184,-113.79 187.5,-103.79 180.5,-103.79"/>
</g>
<!-- SharedModule -->
<g id="node4" class="node">
<title>SharedModule</title>
<polygon fill="#8dd3c7" stroke="black" points="122.42,-84.8 119.42,-88.8 98.42,-88.8 95.42,-84.8 23.58,-84.8 23.58,-48.8 122.42,-48.8 122.42,-84.8"/>
<text text-anchor="middle" x="73" y="-62.6" font-family="Times,serif" font-size="14.00">SharedModule</text>
</g>
<!-- SharedModule&#45;&gt;GestioneModule -->
<g id="edge3" class="edge">
<title>SharedModule&#45;&gt;GestioneModule</title>
<path fill="none" stroke="black" d="M122.44,-66.8C129.8,-66.8 134.98,-66.8 134.98,-66.8 134.98,-66.8 134.98,-103.69 134.98,-103.69"/>
<polygon fill="black" stroke="black" points="131.48,-103.69 134.98,-113.69 138.48,-103.69 131.48,-103.69"/>
</g>
</g>
</svg>
