<?xml version="1.0" encoding="UTF-8" standalone="no"?>
<!DOCTYPE svg PUBLIC "-//W3C//DTD SVG 1.1//EN"
 "http://www.w3.org/Graphics/SVG/1.1/DTD/svg11.dtd">
<!-- Generated by graphviz version 2.47.3 (20210619.1520)
 -->
<!-- Title: dependencies Pages: 1 -->
<svg width="415pt" height="247pt"
 viewBox="0.00 0.00 415.00 246.80" xmlns="http://www.w3.org/2000/svg" xmlns:xlink="http://www.w3.org/1999/xlink">
<g id="graph0" class="graph" transform="scale(1 1) rotate(0) translate(4 242.8)">
<title>dependencies</title>
<polygon fill="white" stroke="transparent" points="-4,4 -4,-242.8 411,-242.8 411,4 -4,4"/>
<text text-anchor="middle" x="203.5" y="-8.2" font-family="sans-serif" font-size="14.00">dependencies</text>
<g id="clust1" class="cluster">
<title>cluster_GestioneModule</title>
<polygon fill="none" stroke="black" stroke-dasharray="1,5" points="8,-32.8 8,-230.8 399,-230.8 399,-32.8 8,-32.8"/>
</g>
<g id="clust5" class="cluster">
<title>cluster_GestioneModule_exports</title>
<polygon fill="none" stroke="black" points="154,-170.8 154,-222.8 304,-222.8 304,-170.8 154,-170.8"/>
</g>
<g id="clust4" class="cluster">
<title>cluster_GestioneModule_imports</title>
<polygon fill="none" stroke="black" points="172,-40.8 172,-92.8 391,-92.8 391,-40.8 172,-40.8"/>
</g>
<g id="clust2" class="cluster">
<title>cluster_GestioneModule_declarations</title>
<polygon fill="none" stroke="black" points="16,-40.8 16,-92.8 164,-92.8 164,-40.8 16,-40.8"/>
</g>
<!-- GestioneComponent -->
<g id="node1" class="node">
<title>GestioneComponent</title>
<polygon fill="#ffffb3" stroke="black" points="155.59,-84.8 24.41,-84.8 24.41,-48.8 155.59,-48.8 155.59,-84.8"/>
<text text-anchor="middle" x="90" y="-62.6" font-family="Times,serif" font-size="14.00">GestioneComponent</text>
</g>
<!-- GestioneModule -->
<g id="node2" class="node">
<title>GestioneModule</title>
<polygon fill="#8dd3c7" stroke="black" points="283.81,-149.8 280.81,-153.8 259.81,-153.8 256.81,-149.8 174.19,-149.8 174.19,-113.8 283.81,-113.8 283.81,-149.8"/>
<text text-anchor="middle" x="229" y="-127.6" font-family="Times,serif" font-size="14.00">GestioneModule</text>
</g>
<!-- GestioneComponent&#45;&gt;GestioneModule -->
<g id="edge1" class="edge">
<title>GestioneComponent&#45;&gt;GestioneModule</title>
<path fill="none" stroke="black" d="M90,-84.91C90,-104.14 90,-131.8 90,-131.8 90,-131.8 164.06,-131.8 164.06,-131.8"/>
<polygon fill="black" stroke="black" points="164.06,-135.3 174.06,-131.8 164.06,-128.3 164.06,-135.3"/>
</g>
<!-- GestioneComponent  -->
<g id="node5" class="node">
<title>GestioneComponent </title>
<polygon fill="#fb8072" stroke="black" points="296.09,-214.8 161.91,-214.8 161.91,-178.8 296.09,-178.8 296.09,-214.8"/>
<text text-anchor="middle" x="229" y="-192.6" font-family="Times,serif" font-size="14.00">GestioneComponent </text>
</g>
<!-- GestioneModule&#45;&gt;GestioneComponent  -->
<g id="edge4" class="edge">
<title>GestioneModule&#45;&gt;GestioneComponent </title>
<path fill="none" stroke="black" stroke-dasharray="5,2" d="M229,-149.91C229,-149.91 229,-168.79 229,-168.79"/>
<polygon fill="black" stroke="black" points="225.5,-168.79 229,-178.79 232.5,-168.79 225.5,-168.79"/>
</g>
<!-- BaseModule -->
<g id="node3" class="node">
<title>BaseModule</title>
<polygon fill="#8dd3c7" stroke="black" points="383.26,-84.8 380.26,-88.8 359.26,-88.8 356.26,-84.8 296.74,-84.8 296.74,-48.8 383.26,-48.8 383.26,-84.8"/>
<text text-anchor="middle" x="340" y="-62.6" font-family="Times,serif" font-size="14.00">BaseModule</text>
</g>
<!-- BaseModule&#45;&gt;GestioneModule -->
<g id="edge2" class="edge">
<title>BaseModule&#45;&gt;GestioneModule</title>
<path fill="none" stroke="black" d="M340,-84.91C340,-104.14 340,-131.8 340,-131.8 340,-131.8 293.85,-131.8 293.85,-131.8"/>
<polygon fill="black" stroke="black" points="293.85,-128.3 283.85,-131.8 293.85,-135.3 293.85,-128.3"/>
</g>
<!-- SharedModule -->
<g id="node4" class="node">
<title>SharedModule</title>
<polygon fill="#8dd3c7" stroke="black" points="278.42,-84.8 275.42,-88.8 254.42,-88.8 251.42,-84.8 179.58,-84.8 179.58,-48.8 278.42,-48.8 278.42,-84.8"/>
<text text-anchor="middle" x="229" y="-62.6" font-family="Times,serif" font-size="14.00">SharedModule</text>
</g>
<!-- SharedModule&#45;&gt;GestioneModule -->
<g id="edge3" class="edge">
<title>SharedModule&#45;&gt;GestioneModule</title>
<path fill="none" stroke="black" d="M229,-84.91C229,-84.91 229,-103.79 229,-103.79"/>
<polygon fill="black" stroke="black" points="225.5,-103.79 229,-113.79 232.5,-103.79 225.5,-103.79"/>
</g>
</g>
</svg>
