<?xml version="1.0" encoding="UTF-8" standalone="no"?>
<!DOCTYPE svg PUBLIC "-//W3C//DTD SVG 1.1//EN"
 "http://www.w3.org/Graphics/SVG/1.1/DTD/svg11.dtd">
<!-- Generated by graphviz version 2.47.3 (20210619.1520)
 -->
<!-- Title: dependencies Pages: 1 -->
<svg width="1771pt" height="174pt"
 viewBox="0.00 0.00 1771.00 173.80" xmlns="http://www.w3.org/2000/svg" xmlns:xlink="http://www.w3.org/1999/xlink">
<g id="graph0" class="graph" transform="scale(1 1) rotate(0) translate(4 169.8)">
<title>dependencies</title>
<polygon fill="white" stroke="transparent" points="-4,4 -4,-169.8 1767,-169.8 1767,4 -4,4"/>
<text text-anchor="middle" x="881.5" y="-8.2" font-family="sans-serif" font-size="14.00">dependencies</text>
<g id="clust1" class="cluster">
<title>cluster_GareModule</title>
<polygon fill="none" stroke="black" stroke-dasharray="1,5" points="8,-32.8 8,-157.8 1755,-157.8 1755,-32.8 8,-32.8"/>
</g>
<g id="clust2" class="cluster">
<title>cluster_GareModule_declarations</title>
<polygon fill="none" stroke="black" points="276,-40.8 276,-92.8 1747,-92.8 1747,-40.8 276,-40.8"/>
</g>
<g id="clust12" class="cluster">
<title>cluster_GareModule_imports</title>
<polygon fill="none" stroke="black" points="16,-40.8 16,-92.8 268,-92.8 268,-40.8 16,-40.8"/>
</g>
<!-- BeforeGaraComponent -->
<g id="node1" class="node">
<title>BeforeGaraComponent</title>
<polygon fill="#ffffb3" stroke="black" points="1739.12,-84.8 1592.88,-84.8 1592.88,-48.8 1739.12,-48.8 1739.12,-84.8"/>
<text text-anchor="middle" x="1666" y="-62.6" font-family="Times,serif" font-size="14.00">BeforeGaraComponent</text>
</g>
<!-- GareModule -->
<g id="node10" class="node">
<title>GareModule</title>
<polygon fill="#8dd3c7" stroke="black" points="912.25,-149.8 909.25,-153.8 888.25,-153.8 885.25,-149.8 825.75,-149.8 825.75,-113.8 912.25,-113.8 912.25,-149.8"/>
<text text-anchor="middle" x="869" y="-127.6" font-family="Times,serif" font-size="14.00">GareModule</text>
</g>
<!-- BeforeGaraComponent&#45;&gt;GareModule -->
<g id="edge1" class="edge">
<title>BeforeGaraComponent&#45;&gt;GareModule</title>
<path fill="none" stroke="black" d="M1666,-84.89C1666,-107.93 1666,-144.8 1666,-144.8 1666,-144.8 922.42,-144.8 922.42,-144.8"/>
<polygon fill="black" stroke="black" points="922.42,-141.3 912.42,-144.8 922.42,-148.3 922.42,-141.3"/>
</g>
<!-- CostruisciComponent -->
<g id="node2" class="node">
<title>CostruisciComponent</title>
<polygon fill="#ffffb3" stroke="black" points="1575.11,-84.8 1436.89,-84.8 1436.89,-48.8 1575.11,-48.8 1575.11,-84.8"/>
<text text-anchor="middle" x="1506" y="-62.6" font-family="Times,serif" font-size="14.00">CostruisciComponent</text>
</g>
<!-- CostruisciComponent&#45;&gt;GareModule -->
<g id="edge2" class="edge">
<title>CostruisciComponent&#45;&gt;GareModule</title>
<path fill="none" stroke="black" d="M1506,-85.08C1506,-106.12 1506,-137.8 1506,-137.8 1506,-137.8 922.28,-137.8 922.28,-137.8"/>
<polygon fill="black" stroke="black" points="922.28,-134.3 912.28,-137.8 922.28,-141.3 922.28,-134.3"/>
</g>
<!-- GaraLandingComponent -->
<g id="node3" class="node">
<title>GaraLandingComponent</title>
<polygon fill="#ffffb3" stroke="black" points="1418.69,-84.8 1263.31,-84.8 1263.31,-48.8 1418.69,-48.8 1418.69,-84.8"/>
<text text-anchor="middle" x="1341" y="-62.6" font-family="Times,serif" font-size="14.00">GaraLandingComponent</text>
</g>
<!-- GaraLandingComponent&#45;&gt;GareModule -->
<g id="edge3" class="edge">
<title>GaraLandingComponent&#45;&gt;GareModule</title>
<path fill="none" stroke="black" d="M1341,-84.91C1341,-104.14 1341,-131.8 1341,-131.8 1341,-131.8 922.56,-131.8 922.56,-131.8"/>
<polygon fill="black" stroke="black" points="922.56,-128.3 912.56,-131.8 922.56,-135.3 922.56,-128.3"/>
</g>
<!-- GaraPreviewComponent -->
<g id="node4" class="node">
<title>GaraPreviewComponent</title>
<polygon fill="#ffffb3" stroke="black" points="1245.4,-84.8 1090.6,-84.8 1090.6,-48.8 1245.4,-48.8 1245.4,-84.8"/>
<text text-anchor="middle" x="1168" y="-62.6" font-family="Times,serif" font-size="14.00">GaraPreviewComponent</text>
</g>
<!-- GaraPreviewComponent&#45;&gt;GareModule -->
<g id="edge4" class="edge">
<title>GaraPreviewComponent&#45;&gt;GareModule</title>
<path fill="none" stroke="black" d="M1168,-84.82C1168,-102.17 1168,-125.8 1168,-125.8 1168,-125.8 922.48,-125.8 922.48,-125.8"/>
<polygon fill="black" stroke="black" points="922.48,-122.3 912.48,-125.8 922.48,-129.3 922.48,-122.3"/>
</g>
<!-- GareComponent -->
<g id="node5" class="node">
<title>GareComponent</title>
<polygon fill="#ffffb3" stroke="black" points="1073.03,-84.8 964.97,-84.8 964.97,-48.8 1073.03,-48.8 1073.03,-84.8"/>
<text text-anchor="middle" x="1019" y="-62.6" font-family="Times,serif" font-size="14.00">GareComponent</text>
</g>
<!-- GareComponent&#45;&gt;GareModule -->
<g id="edge5" class="edge">
<title>GareComponent&#45;&gt;GareModule</title>
<path fill="none" stroke="black" d="M1019,-85.04C1019,-100.37 1019,-119.8 1019,-119.8 1019,-119.8 922.39,-119.8 922.39,-119.8"/>
<polygon fill="black" stroke="black" points="922.39,-116.3 912.39,-119.8 922.39,-123.3 922.39,-116.3"/>
</g>
<!-- GareLandingComponent -->
<g id="node6" class="node">
<title>GareLandingComponent</title>
<polygon fill="#ffffb3" stroke="black" points="946.69,-84.8 791.31,-84.8 791.31,-48.8 946.69,-48.8 946.69,-84.8"/>
<text text-anchor="middle" x="869" y="-62.6" font-family="Times,serif" font-size="14.00">GareLandingComponent</text>
</g>
<!-- GareLandingComponent&#45;&gt;GareModule -->
<g id="edge6" class="edge">
<title>GareLandingComponent&#45;&gt;GareModule</title>
<path fill="none" stroke="black" d="M869,-84.91C869,-84.91 869,-103.79 869,-103.79"/>
<polygon fill="black" stroke="black" points="865.5,-103.79 869,-113.79 872.5,-103.79 865.5,-103.79"/>
</g>
<!-- GareggiaComponent -->
<g id="node7" class="node">
<title>GareggiaComponent</title>
<polygon fill="#ffffb3" stroke="black" points="773.13,-84.8 640.87,-84.8 640.87,-48.8 773.13,-48.8 773.13,-84.8"/>
<text text-anchor="middle" x="707" y="-62.6" font-family="Times,serif" font-size="14.00">GareggiaComponent</text>
</g>
<!-- GareggiaComponent&#45;&gt;GareModule -->
<g id="edge7" class="edge">
<title>GareggiaComponent&#45;&gt;GareModule</title>
<path fill="none" stroke="black" d="M707,-85.04C707,-100.37 707,-119.8 707,-119.8 707,-119.8 815.59,-119.8 815.59,-119.8"/>
<polygon fill="black" stroke="black" points="815.59,-123.3 825.59,-119.8 815.59,-116.3 815.59,-123.3"/>
</g>
<!-- ListaGareComponent -->
<g id="node8" class="node">
<title>ListaGareComponent</title>
<polygon fill="#ffffb3" stroke="black" points="622.02,-84.8 485.98,-84.8 485.98,-48.8 622.02,-48.8 622.02,-84.8"/>
<text text-anchor="middle" x="554" y="-62.6" font-family="Times,serif" font-size="14.00">ListaGareComponent</text>
</g>
<!-- ListaGareComponent&#45;&gt;GareModule -->
<g id="edge8" class="edge">
<title>ListaGareComponent&#45;&gt;GareModule</title>
<path fill="none" stroke="black" d="M554,-84.82C554,-102.17 554,-125.8 554,-125.8 554,-125.8 815.53,-125.8 815.53,-125.8"/>
<polygon fill="black" stroke="black" points="815.53,-129.3 825.53,-125.8 815.53,-122.3 815.53,-129.3"/>
</g>
<!-- ListaGareLandingComponent -->
<g id="node9" class="node">
<title>ListaGareLandingComponent</title>
<polygon fill="#ffffb3" stroke="black" points="467.68,-84.8 284.32,-84.8 284.32,-48.8 467.68,-48.8 467.68,-84.8"/>
<text text-anchor="middle" x="376" y="-62.6" font-family="Times,serif" font-size="14.00">ListaGareLandingComponent</text>
</g>
<!-- ListaGareLandingComponent&#45;&gt;GareModule -->
<g id="edge9" class="edge">
<title>ListaGareLandingComponent&#45;&gt;GareModule</title>
<path fill="none" stroke="black" d="M376,-84.91C376,-104.14 376,-131.8 376,-131.8 376,-131.8 815.68,-131.8 815.68,-131.8"/>
<polygon fill="black" stroke="black" points="815.68,-135.3 825.68,-131.8 815.68,-128.3 815.68,-135.3"/>
</g>
<!-- BaseModule -->
<g id="node11" class="node">
<title>BaseModule</title>
<polygon fill="#8dd3c7" stroke="black" points="260.26,-84.8 257.26,-88.8 236.26,-88.8 233.26,-84.8 173.74,-84.8 173.74,-48.8 260.26,-48.8 260.26,-84.8"/>
<text text-anchor="middle" x="217" y="-62.6" font-family="Times,serif" font-size="14.00">BaseModule</text>
</g>
<!-- BaseModule&#45;&gt;GareModule -->
<g id="edge10" class="edge">
<title>BaseModule&#45;&gt;GareModule</title>
<path fill="none" stroke="black" d="M217,-85.08C217,-106.12 217,-137.8 217,-137.8 217,-137.8 815.72,-137.8 815.72,-137.8"/>
<polygon fill="black" stroke="black" points="815.72,-141.3 825.72,-137.8 815.72,-134.3 815.72,-141.3"/>
</g>
<!-- GareRoutingModule -->
<g id="node12" class="node">
<title>GareRoutingModule</title>
<polygon fill="#8dd3c7" stroke="black" points="155.86,-84.8 152.86,-88.8 131.86,-88.8 128.86,-84.8 24.14,-84.8 24.14,-48.8 155.86,-48.8 155.86,-84.8"/>
<text text-anchor="middle" x="90" y="-62.6" font-family="Times,serif" font-size="14.00">GareRoutingModule</text>
</g>
<!-- GareRoutingModule&#45;&gt;GareModule -->
<g id="edge11" class="edge">
<title>GareRoutingModule&#45;&gt;GareModule</title>
<path fill="none" stroke="black" d="M90,-84.89C90,-107.93 90,-144.8 90,-144.8 90,-144.8 815.73,-144.8 815.73,-144.8"/>
<polygon fill="black" stroke="black" points="815.73,-148.3 825.73,-144.8 815.73,-141.3 815.73,-148.3"/>
</g>
</g>
</svg>
