<?xml version="1.0" encoding="UTF-8" standalone="no"?>
<!DOCTYPE svg PUBLIC "-//W3C//DTD SVG 1.1//EN"
 "http://www.w3.org/Graphics/SVG/1.1/DTD/svg11.dtd">
<!-- Generated by graphviz version 2.47.3 (20210619.1520)
 -->
<!-- Title: dependencies Pages: 1 -->
<svg width="1649pt" height="247pt"
 viewBox="0.00 0.00 1649.00 246.80" xmlns="http://www.w3.org/2000/svg" xmlns:xlink="http://www.w3.org/1999/xlink">
<g id="graph0" class="graph" transform="scale(1 1) rotate(0) translate(4 242.8)">
<title>dependencies</title>
<polygon fill="white" stroke="transparent" points="-4,4 -4,-242.8 1645,-242.8 1645,4 -4,4"/>
<text text-anchor="middle" x="820.5" y="-8.2" font-family="sans-serif" font-size="14.00">dependencies</text>
<g id="clust1" class="cluster">
<title>cluster_SharedModule</title>
<polygon fill="none" stroke="black" stroke-dasharray="1,5" points="8,-32.8 8,-230.8 1633,-230.8 1633,-32.8 8,-32.8"/>
</g>
<g id="clust2" class="cluster">
<title>cluster_SharedModule_declarations</title>
<polygon fill="none" stroke="black" points="126,-40.8 126,-92.8 1625,-92.8 1625,-40.8 126,-40.8"/>
</g>
<g id="clust14" class="cluster">
<title>cluster_SharedModule_exports</title>
<polygon fill="none" stroke="black" points="697,-170.8 697,-222.8 795,-222.8 795,-170.8 697,-170.8"/>
</g>
<g id="clust13" class="cluster">
<title>cluster_SharedModule_imports</title>
<polygon fill="none" stroke="black" points="16,-40.8 16,-92.8 118,-92.8 118,-40.8 16,-40.8"/>
</g>
<!-- AnagraficaAtletaComponent -->
<g id="node1" class="node">
<title>AnagraficaAtletaComponent</title>
<polygon fill="#ffffb3" stroke="black" points="1616.72,-84.8 1439.28,-84.8 1439.28,-48.8 1616.72,-48.8 1616.72,-84.8"/>
<text text-anchor="middle" x="1528" y="-62.6" font-family="Times,serif" font-size="14.00">AnagraficaAtletaComponent</text>
</g>
<!-- SharedModule -->
<g id="node11" class="node">
<title>SharedModule</title>
<polygon fill="#8dd3c7" stroke="black" points="795.42,-149.8 792.42,-153.8 771.42,-153.8 768.42,-149.8 696.58,-149.8 696.58,-113.8 795.42,-113.8 795.42,-149.8"/>
<text text-anchor="middle" x="746" y="-127.6" font-family="Times,serif" font-size="14.00">SharedModule</text>
</g>
<!-- AnagraficaAtletaComponent&#45;&gt;SharedModule -->
<g id="edge1" class="edge">
<title>AnagraficaAtletaComponent&#45;&gt;SharedModule</title>
<path fill="none" stroke="black" d="M1528,-84.81C1528,-107.29 1528,-142.8 1528,-142.8 1528,-142.8 805.21,-142.8 805.21,-142.8"/>
<polygon fill="black" stroke="black" points="805.21,-139.3 795.21,-142.8 805.21,-146.3 805.21,-139.3"/>
</g>
<!-- AnagraficaTestComponent -->
<g id="node2" class="node">
<title>AnagraficaTestComponent</title>
<polygon fill="#ffffb3" stroke="black" points="1420.61,-84.8 1253.39,-84.8 1253.39,-48.8 1420.61,-48.8 1420.61,-84.8"/>
<text text-anchor="middle" x="1337" y="-62.6" font-family="Times,serif" font-size="14.00">AnagraficaTestComponent</text>
</g>
<!-- AnagraficaTestComponent&#45;&gt;SharedModule -->
<g id="edge2" class="edge">
<title>AnagraficaTestComponent&#45;&gt;SharedModule</title>
<path fill="none" stroke="black" d="M1337,-84.93C1337,-105.37 1337,-135.8 1337,-135.8 1337,-135.8 805.37,-135.8 805.37,-135.8"/>
<polygon fill="black" stroke="black" points="805.37,-132.3 795.37,-135.8 805.37,-139.3 805.37,-132.3"/>
</g>
<!-- AtletaComponent -->
<g id="node3" class="node">
<title>AtletaComponent</title>
<polygon fill="#ffffb3" stroke="black" points="1234.54,-84.8 1119.46,-84.8 1119.46,-48.8 1234.54,-48.8 1234.54,-84.8"/>
<text text-anchor="middle" x="1177" y="-62.6" font-family="Times,serif" font-size="14.00">AtletaComponent</text>
</g>
<!-- AtletaComponent&#45;&gt;SharedModule -->
<g id="edge3" class="edge">
<title>AtletaComponent&#45;&gt;SharedModule</title>
<path fill="none" stroke="black" d="M1177,-85.07C1177,-103.36 1177,-128.8 1177,-128.8 1177,-128.8 805.44,-128.8 805.44,-128.8"/>
<polygon fill="black" stroke="black" points="805.44,-125.3 795.44,-128.8 805.44,-132.3 805.44,-125.3"/>
</g>
<!-- AtletaPreviewComponent -->
<g id="node4" class="node">
<title>AtletaPreviewComponent</title>
<polygon fill="#ffffb3" stroke="black" points="1101.91,-84.8 940.09,-84.8 940.09,-48.8 1101.91,-48.8 1101.91,-84.8"/>
<text text-anchor="middle" x="1021" y="-62.6" font-family="Times,serif" font-size="14.00">AtletaPreviewComponent</text>
</g>
<!-- AtletaPreviewComponent&#45;&gt;SharedModule -->
<g id="edge4" class="edge">
<title>AtletaPreviewComponent&#45;&gt;SharedModule</title>
<path fill="none" stroke="black" d="M1021,-84.81C1021,-100.85 1021,-121.8 1021,-121.8 1021,-121.8 805.48,-121.8 805.48,-121.8"/>
<polygon fill="black" stroke="black" points="805.48,-118.3 795.48,-121.8 805.48,-125.3 805.48,-118.3"/>
</g>
<!-- EnumToArrayPipe -->
<g id="node5" class="node">
<title>EnumToArrayPipe</title>
<polygon fill="#ffffb3" stroke="black" points="922.03,-84.8 799.97,-84.8 799.97,-48.8 922.03,-48.8 922.03,-84.8"/>
<text text-anchor="middle" x="861" y="-62.6" font-family="Times,serif" font-size="14.00">EnumToArrayPipe</text>
</g>
<!-- EnumToArrayPipe&#45;&gt;SharedModule -->
<g id="edge5" class="edge">
<title>EnumToArrayPipe&#45;&gt;SharedModule</title>
<path fill="none" stroke="black" d="M799.75,-66.8C792.95,-66.8 788.41,-66.8 788.41,-66.8 788.41,-66.8 788.41,-103.69 788.41,-103.69"/>
<polygon fill="black" stroke="black" points="784.91,-103.69 788.41,-113.69 791.91,-103.69 784.91,-103.69"/>
</g>
<!-- FilterPipe -->
<g id="node6" class="node">
<title>FilterPipe</title>
<polygon fill="#ffffb3" stroke="black" points="781.72,-84.8 710.28,-84.8 710.28,-48.8 781.72,-48.8 781.72,-84.8"/>
<text text-anchor="middle" x="746" y="-62.6" font-family="Times,serif" font-size="14.00">FilterPipe</text>
</g>
<!-- FilterPipe&#45;&gt;SharedModule -->
<g id="edge6" class="edge">
<title>FilterPipe&#45;&gt;SharedModule</title>
<path fill="none" stroke="black" d="M746,-84.91C746,-84.91 746,-103.79 746,-103.79"/>
<polygon fill="black" stroke="black" points="742.5,-103.79 746,-113.79 749.5,-103.79 742.5,-103.79"/>
</g>
<!-- ListaAtletiComponent -->
<g id="node7" class="node">
<title>ListaAtletiComponent</title>
<polygon fill="#ffffb3" stroke="black" points="692.71,-84.8 551.29,-84.8 551.29,-48.8 692.71,-48.8 692.71,-84.8"/>
<text text-anchor="middle" x="622" y="-62.6" font-family="Times,serif" font-size="14.00">ListaAtletiComponent</text>
</g>
<!-- ListaAtletiComponent&#45;&gt;SharedModule -->
<g id="edge7" class="edge">
<title>ListaAtletiComponent&#45;&gt;SharedModule</title>
<path fill="none" stroke="black" d="M692.92,-66.8C699.4,-66.8 703.59,-66.8 703.59,-66.8 703.59,-66.8 703.59,-103.69 703.59,-103.69"/>
<polygon fill="black" stroke="black" points="700.09,-103.69 703.59,-113.69 707.09,-103.69 700.09,-103.69"/>
</g>
<!-- ListaTestComponent -->
<g id="node8" class="node">
<title>ListaTestComponent</title>
<polygon fill="#ffffb3" stroke="black" points="533.93,-84.8 400.07,-84.8 400.07,-48.8 533.93,-48.8 533.93,-84.8"/>
<text text-anchor="middle" x="467" y="-62.6" font-family="Times,serif" font-size="14.00">ListaTestComponent</text>
</g>
<!-- ListaTestComponent&#45;&gt;SharedModule -->
<g id="edge8" class="edge">
<title>ListaTestComponent&#45;&gt;SharedModule</title>
<path fill="none" stroke="black" d="M467,-84.81C467,-100.85 467,-121.8 467,-121.8 467,-121.8 686.76,-121.8 686.76,-121.8"/>
<polygon fill="black" stroke="black" points="686.76,-125.3 696.76,-121.8 686.76,-118.3 686.76,-125.3"/>
</g>
<!-- SearchPipe -->
<g id="node9" class="node">
<title>SearchPipe</title>
<polygon fill="#ffffb3" stroke="black" points="382.47,-84.8 303.53,-84.8 303.53,-48.8 382.47,-48.8 382.47,-84.8"/>
<text text-anchor="middle" x="343" y="-62.6" font-family="Times,serif" font-size="14.00">SearchPipe</text>
</g>
<!-- SearchPipe&#45;&gt;SharedModule -->
<g id="edge9" class="edge">
<title>SearchPipe&#45;&gt;SharedModule</title>
<path fill="none" stroke="black" d="M343,-85.07C343,-103.36 343,-128.8 343,-128.8 343,-128.8 686.58,-128.8 686.58,-128.8"/>
<polygon fill="black" stroke="black" points="686.58,-132.3 696.58,-128.8 686.58,-125.3 686.58,-132.3"/>
</g>
<!-- TestPreviewComponent -->
<g id="node10" class="node">
<title>TestPreviewComponent</title>
<polygon fill="#ffffb3" stroke="black" points="285.8,-84.8 134.2,-84.8 134.2,-48.8 285.8,-48.8 285.8,-84.8"/>
<text text-anchor="middle" x="210" y="-62.6" font-family="Times,serif" font-size="14.00">TestPreviewComponent</text>
</g>
<!-- TestPreviewComponent&#45;&gt;SharedModule -->
<g id="edge10" class="edge">
<title>TestPreviewComponent&#45;&gt;SharedModule</title>
<path fill="none" stroke="black" d="M210,-84.93C210,-105.37 210,-135.8 210,-135.8 210,-135.8 686.54,-135.8 686.54,-135.8"/>
<polygon fill="black" stroke="black" points="686.54,-139.3 696.54,-135.8 686.54,-132.3 686.54,-139.3"/>
</g>
<!-- SearchPipe  -->
<g id="node13" class="node">
<title>SearchPipe </title>
<polygon fill="#fb8072" stroke="black" points="787.48,-214.8 704.52,-214.8 704.52,-178.8 787.48,-178.8 787.48,-214.8"/>
<text text-anchor="middle" x="746" y="-192.6" font-family="Times,serif" font-size="14.00">SearchPipe </text>
</g>
<!-- SharedModule&#45;&gt;SearchPipe  -->
<g id="edge12" class="edge">
<title>SharedModule&#45;&gt;SearchPipe </title>
<path fill="none" stroke="black" stroke-dasharray="5,2" d="M746,-149.91C746,-149.91 746,-168.79 746,-168.79"/>
<polygon fill="black" stroke="black" points="742.5,-168.79 746,-178.79 749.5,-168.79 742.5,-168.79"/>
</g>
<!-- BaseModule -->
<g id="node12" class="node">
<title>BaseModule</title>
<polygon fill="#8dd3c7" stroke="black" points="110.26,-84.8 107.26,-88.8 86.26,-88.8 83.26,-84.8 23.74,-84.8 23.74,-48.8 110.26,-48.8 110.26,-84.8"/>
<text text-anchor="middle" x="67" y="-62.6" font-family="Times,serif" font-size="14.00">BaseModule</text>
</g>
<!-- BaseModule&#45;&gt;SharedModule -->
<g id="edge11" class="edge">
<title>BaseModule&#45;&gt;SharedModule</title>
<path fill="none" stroke="black" d="M67,-84.81C67,-107.29 67,-142.8 67,-142.8 67,-142.8 686.62,-142.8 686.62,-142.8"/>
<polygon fill="black" stroke="black" points="686.62,-146.3 696.62,-142.8 686.62,-139.3 686.62,-146.3"/>
</g>
</g>
</svg>
