<?xml version="1.0" encoding="UTF-8" standalone="no"?>
<!DOCTYPE svg PUBLIC "-//W3C//DTD SVG 1.1//EN"
 "http://www.w3.org/Graphics/SVG/1.1/DTD/svg11.dtd">
<!-- Generated by graphviz version 2.47.3 (20210619.1520)
 -->
<!-- Title: dependencies Pages: 1 -->
<svg width="1189pt" height="247pt"
 viewBox="0.00 0.00 1189.00 246.80" xmlns="http://www.w3.org/2000/svg" xmlns:xlink="http://www.w3.org/1999/xlink">
<g id="graph0" class="graph" transform="scale(1 1) rotate(0) translate(4 242.8)">
<title>dependencies</title>
<polygon fill="white" stroke="transparent" points="-4,4 -4,-242.8 1185,-242.8 1185,4 -4,4"/>
<text text-anchor="middle" x="590.5" y="-8.2" font-family="sans-serif" font-size="14.00">dependencies</text>
<g id="clust1" class="cluster">
<title>cluster_SharedModule</title>
<polygon fill="none" stroke="black" stroke-dasharray="1,5" points="8,-32.8 8,-230.8 1173,-230.8 1173,-32.8 8,-32.8"/>
</g>
<g id="clust9" class="cluster">
<title>cluster_SharedModule_imports</title>
<polygon fill="none" stroke="black" points="1063,-40.8 1063,-92.8 1165,-92.8 1165,-40.8 1063,-40.8"/>
</g>
<g id="clust10" class="cluster">
<title>cluster_SharedModule_exports</title>
<polygon fill="none" stroke="black" points="429,-170.8 429,-222.8 744,-222.8 744,-170.8 429,-170.8"/>
</g>
<g id="clust2" class="cluster">
<title>cluster_SharedModule_declarations</title>
<polygon fill="none" stroke="black" points="16,-40.8 16,-92.8 1055,-92.8 1055,-40.8 16,-40.8"/>
</g>
<!-- AnagraficaAtletaComponent -->
<g id="node1" class="node">
<title>AnagraficaAtletaComponent</title>
<polygon fill="#ffffb3" stroke="black" points="1046.72,-84.8 869.28,-84.8 869.28,-48.8 1046.72,-48.8 1046.72,-84.8"/>
<text text-anchor="middle" x="958" y="-62.6" font-family="Times,serif" font-size="14.00">AnagraficaAtletaComponent</text>
</g>
<!-- SharedModule -->
<g id="node7" class="node">
<title>SharedModule</title>
<polygon fill="#8dd3c7" stroke="black" points="633.42,-149.8 630.42,-153.8 609.42,-153.8 606.42,-149.8 534.58,-149.8 534.58,-113.8 633.42,-113.8 633.42,-149.8"/>
<text text-anchor="middle" x="584" y="-127.6" font-family="Times,serif" font-size="14.00">SharedModule</text>
</g>
<!-- AnagraficaAtletaComponent&#45;&gt;SharedModule -->
<g id="edge1" class="edge">
<title>AnagraficaAtletaComponent&#45;&gt;SharedModule</title>
<path fill="none" stroke="black" d="M958,-84.91C958,-104.14 958,-131.8 958,-131.8 958,-131.8 643.28,-131.8 643.28,-131.8"/>
<polygon fill="black" stroke="black" points="643.28,-128.3 633.28,-131.8 643.28,-135.3 643.28,-128.3"/>
</g>
<!-- AnagraficaTestComponent -->
<g id="node2" class="node">
<title>AnagraficaTestComponent</title>
<polygon fill="#ffffb3" stroke="black" points="850.61,-84.8 683.39,-84.8 683.39,-48.8 850.61,-48.8 850.61,-84.8"/>
<text text-anchor="middle" x="767" y="-62.6" font-family="Times,serif" font-size="14.00">AnagraficaTestComponent</text>
</g>
<!-- AnagraficaTestComponent&#45;&gt;SharedModule -->
<g id="edge2" class="edge">
<title>AnagraficaTestComponent&#45;&gt;SharedModule</title>
<path fill="none" stroke="black" d="M709.77,-84.83C709.77,-101.2 709.77,-122.8 709.77,-122.8 709.77,-122.8 643.35,-122.8 643.35,-122.8"/>
<polygon fill="black" stroke="black" points="643.35,-119.3 633.35,-122.8 643.35,-126.3 643.35,-119.3"/>
</g>
<!-- AtletaPreviewComponent -->
<g id="node3" class="node">
<title>AtletaPreviewComponent</title>
<polygon fill="#ffffb3" stroke="black" points="664.91,-84.8 503.09,-84.8 503.09,-48.8 664.91,-48.8 664.91,-84.8"/>
<text text-anchor="middle" x="584" y="-62.6" font-family="Times,serif" font-size="14.00">AtletaPreviewComponent</text>
</g>
<!-- AtletaPreviewComponent&#45;&gt;SharedModule -->
<g id="edge3" class="edge">
<title>AtletaPreviewComponent&#45;&gt;SharedModule</title>
<path fill="none" stroke="black" d="M584,-84.91C584,-84.91 584,-103.79 584,-103.79"/>
<polygon fill="black" stroke="black" points="580.5,-103.79 584,-113.79 587.5,-103.79 580.5,-103.79"/>
</g>
<!-- ListaAtletiComponent -->
<g id="node4" class="node">
<title>ListaAtletiComponent</title>
<polygon fill="#ffffb3" stroke="black" points="485.71,-84.8 344.29,-84.8 344.29,-48.8 485.71,-48.8 485.71,-84.8"/>
<text text-anchor="middle" x="415" y="-62.6" font-family="Times,serif" font-size="14.00">ListaAtletiComponent</text>
</g>
<!-- ListaAtletiComponent&#45;&gt;SharedModule -->
<g id="edge4" class="edge">
<title>ListaAtletiComponent&#45;&gt;SharedModule</title>
<path fill="none" stroke="black" d="M461.07,-84.83C461.07,-101.2 461.07,-122.8 461.07,-122.8 461.07,-122.8 524.71,-122.8 524.71,-122.8"/>
<polygon fill="black" stroke="black" points="524.71,-126.3 534.71,-122.8 524.71,-119.3 524.71,-126.3"/>
</g>
<!-- ListaTestComponent -->
<g id="node5" class="node">
<title>ListaTestComponent</title>
<polygon fill="#ffffb3" stroke="black" points="326.93,-84.8 193.07,-84.8 193.07,-48.8 326.93,-48.8 326.93,-84.8"/>
<text text-anchor="middle" x="260" y="-62.6" font-family="Times,serif" font-size="14.00">ListaTestComponent</text>
</g>
<!-- ListaTestComponent&#45;&gt;SharedModule -->
<g id="edge5" class="edge">
<title>ListaTestComponent&#45;&gt;SharedModule</title>
<path fill="none" stroke="black" d="M260,-84.91C260,-104.14 260,-131.8 260,-131.8 260,-131.8 524.44,-131.8 524.44,-131.8"/>
<polygon fill="black" stroke="black" points="524.44,-135.3 534.44,-131.8 524.44,-128.3 524.44,-135.3"/>
</g>
<!-- TestPreviewComponent -->
<g id="node6" class="node">
<title>TestPreviewComponent</title>
<polygon fill="#ffffb3" stroke="black" points="175.8,-84.8 24.2,-84.8 24.2,-48.8 175.8,-48.8 175.8,-84.8"/>
<text text-anchor="middle" x="100" y="-62.6" font-family="Times,serif" font-size="14.00">TestPreviewComponent</text>
</g>
<!-- TestPreviewComponent&#45;&gt;SharedModule -->
<g id="edge6" class="edge">
<title>TestPreviewComponent&#45;&gt;SharedModule</title>
<path fill="none" stroke="black" d="M100,-85.09C100,-107.01 100,-140.8 100,-140.8 100,-140.8 524.48,-140.8 524.48,-140.8"/>
<polygon fill="black" stroke="black" points="524.48,-144.3 534.48,-140.8 524.48,-137.3 524.48,-144.3"/>
</g>
<!-- ListaAtletiComponent  -->
<g id="node9" class="node">
<title>ListaAtletiComponent </title>
<polygon fill="#fb8072" stroke="black" points="736.21,-214.8 591.79,-214.8 591.79,-178.8 736.21,-178.8 736.21,-214.8"/>
<text text-anchor="middle" x="664" y="-192.6" font-family="Times,serif" font-size="14.00">ListaAtletiComponent </text>
</g>
<!-- SharedModule&#45;&gt;ListaAtletiComponent  -->
<g id="edge8" class="edge">
<title>SharedModule&#45;&gt;ListaAtletiComponent </title>
<path fill="none" stroke="black" stroke-dasharray="5,2" d="M612.43,-149.91C612.43,-149.91 612.43,-168.79 612.43,-168.79"/>
<polygon fill="black" stroke="black" points="608.93,-168.79 612.43,-178.79 615.93,-168.79 608.93,-168.79"/>
</g>
<!-- ListaTestComponent  -->
<g id="node10" class="node">
<title>ListaTestComponent </title>
<polygon fill="#fb8072" stroke="black" points="573.43,-214.8 436.57,-214.8 436.57,-178.8 573.43,-178.8 573.43,-214.8"/>
<text text-anchor="middle" x="505" y="-192.6" font-family="Times,serif" font-size="14.00">ListaTestComponent </text>
</g>
<!-- SharedModule&#45;&gt;ListaTestComponent  -->
<g id="edge9" class="edge">
<title>SharedModule&#45;&gt;ListaTestComponent </title>
<path fill="none" stroke="black" stroke-dasharray="5,2" d="M554.13,-149.91C554.13,-149.91 554.13,-168.79 554.13,-168.79"/>
<polygon fill="black" stroke="black" points="550.63,-168.79 554.13,-178.79 557.63,-168.79 550.63,-168.79"/>
</g>
<!-- BaseModule -->
<g id="node8" class="node">
<title>BaseModule</title>
<polygon fill="#8dd3c7" stroke="black" points="1157.26,-84.8 1154.26,-88.8 1133.26,-88.8 1130.26,-84.8 1070.74,-84.8 1070.74,-48.8 1157.26,-48.8 1157.26,-84.8"/>
<text text-anchor="middle" x="1114" y="-62.6" font-family="Times,serif" font-size="14.00">BaseModule</text>
</g>
<!-- BaseModule&#45;&gt;SharedModule -->
<g id="edge7" class="edge">
<title>BaseModule&#45;&gt;SharedModule</title>
<path fill="none" stroke="black" d="M1114,-85.09C1114,-107.01 1114,-140.8 1114,-140.8 1114,-140.8 643.39,-140.8 643.39,-140.8"/>
<polygon fill="black" stroke="black" points="643.39,-137.3 633.39,-140.8 643.39,-144.3 643.39,-137.3"/>
</g>
</g>
</svg>
