<?xml version="1.0" encoding="UTF-8" standalone="no"?>
<!DOCTYPE svg PUBLIC "-//W3C//DTD SVG 1.1//EN"
 "http://www.w3.org/Graphics/SVG/1.1/DTD/svg11.dtd">
<!-- Generated by graphviz version 2.47.3 (20210619.1520)
 -->
<!-- Title: dependencies Pages: 1 -->
<svg width="1649pt" height="247pt"
 viewBox="0.00 0.00 1649.00 246.80" xmlns="http://www.w3.org/2000/svg" xmlns:xlink="http://www.w3.org/1999/xlink">
<g id="graph0" class="graph" transform="scale(1 1) rotate(0) translate(4 242.8)">
<title>dependencies</title>
<polygon fill="white" stroke="transparent" points="-4,4 -4,-242.8 1645,-242.8 1645,4 -4,4"/>
<text text-anchor="middle" x="820.5" y="-8.2" font-family="sans-serif" font-size="14.00">dependencies</text>
<g id="clust1" class="cluster">
<title>cluster_SharedModule</title>
<polygon fill="none" stroke="black" stroke-dasharray="1,5" points="8,-32.8 8,-230.8 1633,-230.8 1633,-32.8 8,-32.8"/>
</g>
<g id="clust14" class="cluster">
<title>cluster_SharedModule_exports</title>
<polygon fill="none" stroke="black" points="702,-170.8 702,-222.8 800,-222.8 800,-170.8 702,-170.8"/>
</g>
<g id="clust13" class="cluster">
<title>cluster_SharedModule_imports</title>
<polygon fill="none" stroke="black" points="1523,-40.8 1523,-92.8 1625,-92.8 1625,-40.8 1523,-40.8"/>
</g>
<g id="clust2" class="cluster">
<title>cluster_SharedModule_declarations</title>
<polygon fill="none" stroke="black" points="16,-40.8 16,-92.8 1515,-92.8 1515,-40.8 16,-40.8"/>
</g>
<!-- AnagraficaAtletaComponent -->
<g id="node1" class="node">
<title>AnagraficaAtletaComponent</title>
<polygon fill="#ffffb3" stroke="black" points="1506.72,-84.8 1329.28,-84.8 1329.28,-48.8 1506.72,-48.8 1506.72,-84.8"/>
<text text-anchor="middle" x="1418" y="-62.6" font-family="Times,serif" font-size="14.00">AnagraficaAtletaComponent</text>
</g>
<!-- SharedModule -->
<g id="node11" class="node">
<title>SharedModule</title>
<polygon fill="#8dd3c7" stroke="black" points="800.42,-149.8 797.42,-153.8 776.42,-153.8 773.42,-149.8 701.58,-149.8 701.58,-113.8 800.42,-113.8 800.42,-149.8"/>
<text text-anchor="middle" x="751" y="-127.6" font-family="Times,serif" font-size="14.00">SharedModule</text>
</g>
<!-- AnagraficaAtletaComponent&#45;&gt;SharedModule -->
<g id="edge1" class="edge">
<title>AnagraficaAtletaComponent&#45;&gt;SharedModule</title>
<path fill="none" stroke="black" d="M1418,-85.08C1418,-106.12 1418,-137.8 1418,-137.8 1418,-137.8 810.32,-137.8 810.32,-137.8"/>
<polygon fill="black" stroke="black" points="810.32,-134.3 800.32,-137.8 810.32,-141.3 810.32,-134.3"/>
</g>
<!-- AnagraficaTestComponent -->
<g id="node2" class="node">
<title>AnagraficaTestComponent</title>
<polygon fill="#ffffb3" stroke="black" points="1310.61,-84.8 1143.39,-84.8 1143.39,-48.8 1310.61,-48.8 1310.61,-84.8"/>
<text text-anchor="middle" x="1227" y="-62.6" font-family="Times,serif" font-size="14.00">AnagraficaTestComponent</text>
</g>
<!-- AnagraficaTestComponent&#45;&gt;SharedModule -->
<g id="edge2" class="edge">
<title>AnagraficaTestComponent&#45;&gt;SharedModule</title>
<path fill="none" stroke="black" d="M1227,-84.91C1227,-104.14 1227,-131.8 1227,-131.8 1227,-131.8 810.59,-131.8 810.59,-131.8"/>
<polygon fill="black" stroke="black" points="810.59,-128.3 800.59,-131.8 810.59,-135.3 810.59,-128.3"/>
</g>
<!-- AtletaComponent -->
<g id="node3" class="node">
<title>AtletaComponent</title>
<polygon fill="#ffffb3" stroke="black" points="1124.54,-84.8 1009.46,-84.8 1009.46,-48.8 1124.54,-48.8 1124.54,-84.8"/>
<text text-anchor="middle" x="1067" y="-62.6" font-family="Times,serif" font-size="14.00">AtletaComponent</text>
</g>
<!-- AtletaComponent&#45;&gt;SharedModule -->
<g id="edge3" class="edge">
<title>AtletaComponent&#45;&gt;SharedModule</title>
<path fill="none" stroke="black" d="M1067,-84.82C1067,-102.17 1067,-125.8 1067,-125.8 1067,-125.8 810.38,-125.8 810.38,-125.8"/>
<polygon fill="black" stroke="black" points="810.38,-122.3 800.38,-125.8 810.37,-129.3 810.38,-122.3"/>
</g>
<!-- AtletaPreviewComponent -->
<g id="node4" class="node">
<title>AtletaPreviewComponent</title>
<polygon fill="#ffffb3" stroke="black" points="991.91,-84.8 830.09,-84.8 830.09,-48.8 991.91,-48.8 991.91,-84.8"/>
<text text-anchor="middle" x="911" y="-62.6" font-family="Times,serif" font-size="14.00">AtletaPreviewComponent</text>
</g>
<!-- AtletaPreviewComponent&#45;&gt;SharedModule -->
<g id="edge4" class="edge">
<title>AtletaPreviewComponent&#45;&gt;SharedModule</title>
<path fill="none" stroke="black" d="M911,-85.04C911,-100.37 911,-119.8 911,-119.8 911,-119.8 810.31,-119.8 810.31,-119.8"/>
<polygon fill="black" stroke="black" points="810.31,-116.3 800.31,-119.8 810.31,-123.3 810.31,-116.3"/>
</g>
<!-- EnumToArrayPipe -->
<g id="node5" class="node">
<title>EnumToArrayPipe</title>
<polygon fill="#ffffb3" stroke="black" points="812.03,-84.8 689.97,-84.8 689.97,-48.8 812.03,-48.8 812.03,-84.8"/>
<text text-anchor="middle" x="751" y="-62.6" font-family="Times,serif" font-size="14.00">EnumToArrayPipe</text>
</g>
<!-- EnumToArrayPipe&#45;&gt;SharedModule -->
<g id="edge5" class="edge">
<title>EnumToArrayPipe&#45;&gt;SharedModule</title>
<path fill="none" stroke="black" d="M751,-84.91C751,-84.91 751,-103.79 751,-103.79"/>
<polygon fill="black" stroke="black" points="747.5,-103.79 751,-113.79 754.5,-103.79 747.5,-103.79"/>
</g>
<!-- FilterPipe -->
<g id="node6" class="node">
<title>FilterPipe</title>
<polygon fill="#ffffb3" stroke="black" points="671.72,-84.8 600.28,-84.8 600.28,-48.8 671.72,-48.8 671.72,-84.8"/>
<text text-anchor="middle" x="636" y="-62.6" font-family="Times,serif" font-size="14.00">FilterPipe</text>
</g>
<!-- FilterPipe&#45;&gt;SharedModule -->
<g id="edge6" class="edge">
<title>FilterPipe&#45;&gt;SharedModule</title>
<path fill="none" stroke="black" d="M636,-85.04C636,-100.37 636,-119.8 636,-119.8 636,-119.8 691.56,-119.8 691.56,-119.8"/>
<polygon fill="black" stroke="black" points="691.56,-123.3 701.56,-119.8 691.56,-116.3 691.56,-123.3"/>
</g>
<!-- ListaAtletiComponent -->
<g id="node7" class="node">
<title>ListaAtletiComponent</title>
<polygon fill="#ffffb3" stroke="black" points="582.71,-84.8 441.29,-84.8 441.29,-48.8 582.71,-48.8 582.71,-84.8"/>
<text text-anchor="middle" x="512" y="-62.6" font-family="Times,serif" font-size="14.00">ListaAtletiComponent</text>
</g>
<!-- ListaAtletiComponent&#45;&gt;SharedModule -->
<g id="edge7" class="edge">
<title>ListaAtletiComponent&#45;&gt;SharedModule</title>
<path fill="none" stroke="black" d="M512,-84.82C512,-102.17 512,-125.8 512,-125.8 512,-125.8 691.77,-125.8 691.77,-125.8"/>
<polygon fill="black" stroke="black" points="691.77,-129.3 701.77,-125.8 691.77,-122.3 691.77,-129.3"/>
</g>
<!-- ListaTestComponent -->
<g id="node8" class="node">
<title>ListaTestComponent</title>
<polygon fill="#ffffb3" stroke="black" points="423.93,-84.8 290.07,-84.8 290.07,-48.8 423.93,-48.8 423.93,-84.8"/>
<text text-anchor="middle" x="357" y="-62.6" font-family="Times,serif" font-size="14.00">ListaTestComponent</text>
</g>
<!-- ListaTestComponent&#45;&gt;SharedModule -->
<g id="edge8" class="edge">
<title>ListaTestComponent&#45;&gt;SharedModule</title>
<path fill="none" stroke="black" d="M357,-84.91C357,-104.14 357,-131.8 357,-131.8 357,-131.8 691.5,-131.8 691.5,-131.8"/>
<polygon fill="black" stroke="black" points="691.5,-135.3 701.5,-131.8 691.5,-128.3 691.5,-135.3"/>
</g>
<!-- SearchPipe -->
<g id="node9" class="node">
<title>SearchPipe</title>
<polygon fill="#ffffb3" stroke="black" points="272.47,-84.8 193.53,-84.8 193.53,-48.8 272.47,-48.8 272.47,-84.8"/>
<text text-anchor="middle" x="233" y="-62.6" font-family="Times,serif" font-size="14.00">SearchPipe</text>
</g>
<!-- SearchPipe&#45;&gt;SharedModule -->
<g id="edge9" class="edge">
<title>SearchPipe&#45;&gt;SharedModule</title>
<path fill="none" stroke="black" d="M233,-85.08C233,-106.12 233,-137.8 233,-137.8 233,-137.8 691.33,-137.8 691.33,-137.8"/>
<polygon fill="black" stroke="black" points="691.33,-141.3 701.33,-137.8 691.33,-134.3 691.33,-141.3"/>
</g>
<!-- TestPreviewComponent -->
<g id="node10" class="node">
<title>TestPreviewComponent</title>
<polygon fill="#ffffb3" stroke="black" points="175.8,-84.8 24.2,-84.8 24.2,-48.8 175.8,-48.8 175.8,-84.8"/>
<text text-anchor="middle" x="100" y="-62.6" font-family="Times,serif" font-size="14.00">TestPreviewComponent</text>
</g>
<!-- TestPreviewComponent&#45;&gt;SharedModule -->
<g id="edge10" class="edge">
<title>TestPreviewComponent&#45;&gt;SharedModule</title>
<path fill="none" stroke="black" d="M100,-85.05C100,-107.82 100,-143.8 100,-143.8 100,-143.8 691.53,-143.8 691.53,-143.8"/>
<polygon fill="black" stroke="black" points="691.53,-147.3 701.53,-143.8 691.53,-140.3 691.53,-147.3"/>
</g>
<!-- SearchPipe  -->
<g id="node13" class="node">
<title>SearchPipe </title>
<polygon fill="#fb8072" stroke="black" points="792.48,-214.8 709.52,-214.8 709.52,-178.8 792.48,-178.8 792.48,-214.8"/>
<text text-anchor="middle" x="751" y="-192.6" font-family="Times,serif" font-size="14.00">SearchPipe </text>
</g>
<!-- SharedModule&#45;&gt;SearchPipe  -->
<g id="edge12" class="edge">
<title>SharedModule&#45;&gt;SearchPipe </title>
<path fill="none" stroke="black" stroke-dasharray="5,2" d="M751,-149.91C751,-149.91 751,-168.79 751,-168.79"/>
<polygon fill="black" stroke="black" points="747.5,-168.79 751,-178.79 754.5,-168.79 747.5,-168.79"/>
</g>
<!-- BaseModule -->
<g id="node12" class="node">
<title>BaseModule</title>
<polygon fill="#8dd3c7" stroke="black" points="1617.26,-84.8 1614.26,-88.8 1593.26,-88.8 1590.26,-84.8 1530.74,-84.8 1530.74,-48.8 1617.26,-48.8 1617.26,-84.8"/>
<text text-anchor="middle" x="1574" y="-62.6" font-family="Times,serif" font-size="14.00">BaseModule</text>
</g>
<!-- BaseModule&#45;&gt;SharedModule -->
<g id="edge11" class="edge">
<title>BaseModule&#45;&gt;SharedModule</title>
<path fill="none" stroke="black" d="M1574,-85.05C1574,-107.82 1574,-143.8 1574,-143.8 1574,-143.8 810.32,-143.8 810.32,-143.8"/>
<polygon fill="black" stroke="black" points="810.32,-140.3 800.32,-143.8 810.32,-147.3 810.32,-140.3"/>
</g>
</g>
</svg>
