<?xml version="1.0" encoding="UTF-8" standalone="no"?>
<!DOCTYPE svg PUBLIC "-//W3C//DTD SVG 1.1//EN"
 "http://www.w3.org/Graphics/SVG/1.1/DTD/svg11.dtd">
<!-- Generated by graphviz version 2.47.3 (20210619.1520)
 -->
<!-- Title: dependencies Pages: 1 -->
<svg width="1274pt" height="247pt"
 viewBox="0.00 0.00 1274.00 246.80" xmlns="http://www.w3.org/2000/svg" xmlns:xlink="http://www.w3.org/1999/xlink">
<g id="graph0" class="graph" transform="scale(1 1) rotate(0) translate(4 242.8)">
<title>dependencies</title>
<polygon fill="white" stroke="transparent" points="-4,4 -4,-242.8 1270,-242.8 1270,4 -4,4"/>
<text text-anchor="middle" x="633" y="-8.2" font-family="sans-serif" font-size="14.00">dependencies</text>
<g id="clust1" class="cluster">
<title>cluster_SharedModule</title>
<polygon fill="none" stroke="black" stroke-dasharray="1,5" points="8,-32.8 8,-230.8 1258,-230.8 1258,-32.8 8,-32.8"/>
</g>
<g id="clust11" class="cluster">
<title>cluster_SharedModule_imports</title>
<polygon fill="none" stroke="black" points="1148,-40.8 1148,-92.8 1250,-92.8 1250,-40.8 1148,-40.8"/>
</g>
<g id="clust12" class="cluster">
<title>cluster_SharedModule_exports</title>
<polygon fill="none" stroke="black" points="587,-170.8 587,-222.8 685,-222.8 685,-170.8 587,-170.8"/>
</g>
<g id="clust2" class="cluster">
<title>cluster_SharedModule_declarations</title>
<polygon fill="none" stroke="black" points="16,-40.8 16,-92.8 1140,-92.8 1140,-40.8 16,-40.8"/>
</g>
<!-- AthleteComponent -->
<g id="node1" class="node">
<title>AthleteComponent</title>
<polygon fill="#ffffb3" stroke="black" points="1132.04,-84.8 1009.96,-84.8 1009.96,-48.8 1132.04,-48.8 1132.04,-84.8"/>
<text text-anchor="middle" x="1071" y="-62.6" font-family="Times,serif" font-size="14.00">AthleteComponent</text>
</g>
<!-- SharedModule -->
<g id="node9" class="node">
<title>SharedModule</title>
<polygon fill="#8dd3c7" stroke="black" points="685.42,-149.8 682.42,-153.8 661.42,-153.8 658.42,-149.8 586.58,-149.8 586.58,-113.8 685.42,-113.8 685.42,-149.8"/>
<text text-anchor="middle" x="636" y="-127.6" font-family="Times,serif" font-size="14.00">SharedModule</text>
</g>
<!-- AthleteComponent&#45;&gt;SharedModule -->
<g id="edge1" class="edge">
<title>AthleteComponent&#45;&gt;SharedModule</title>
<path fill="none" stroke="black" d="M1071,-84.91C1071,-104.14 1071,-131.8 1071,-131.8 1071,-131.8 695.48,-131.8 695.48,-131.8"/>
<polygon fill="black" stroke="black" points="695.48,-128.3 685.48,-131.8 695.48,-135.3 695.48,-128.3"/>
</g>
<!-- AtletaPreviewComponent -->
<g id="node2" class="node">
<title>AtletaPreviewComponent</title>
<polygon fill="#ffffb3" stroke="black" points="991.91,-84.8 830.09,-84.8 830.09,-48.8 991.91,-48.8 991.91,-84.8"/>
<text text-anchor="middle" x="911" y="-62.6" font-family="Times,serif" font-size="14.00">AtletaPreviewComponent</text>
</g>
<!-- AtletaPreviewComponent&#45;&gt;SharedModule -->
<g id="edge2" class="edge">
<title>AtletaPreviewComponent&#45;&gt;SharedModule</title>
<path fill="none" stroke="black" d="M911,-84.83C911,-101.2 911,-122.8 911,-122.8 911,-122.8 695.48,-122.8 695.48,-122.8"/>
<polygon fill="black" stroke="black" points="695.48,-119.3 685.48,-122.8 695.48,-126.3 695.48,-119.3"/>
</g>
<!-- EnumToArrayPipe -->
<g id="node3" class="node">
<title>EnumToArrayPipe</title>
<polygon fill="#ffffb3" stroke="black" points="812.03,-84.8 689.97,-84.8 689.97,-48.8 812.03,-48.8 812.03,-84.8"/>
<text text-anchor="middle" x="751" y="-62.6" font-family="Times,serif" font-size="14.00">EnumToArrayPipe</text>
</g>
<!-- EnumToArrayPipe&#45;&gt;SharedModule -->
<g id="edge3" class="edge">
<title>EnumToArrayPipe&#45;&gt;SharedModule</title>
<path fill="none" stroke="black" d="M689.75,-66.8C682.95,-66.8 678.41,-66.8 678.41,-66.8 678.41,-66.8 678.41,-103.69 678.41,-103.69"/>
<polygon fill="black" stroke="black" points="674.91,-103.69 678.41,-113.69 681.91,-103.69 674.91,-103.69"/>
</g>
<!-- FilterPipe -->
<g id="node4" class="node">
<title>FilterPipe</title>
<polygon fill="#ffffb3" stroke="black" points="671.72,-84.8 600.28,-84.8 600.28,-48.8 671.72,-48.8 671.72,-84.8"/>
<text text-anchor="middle" x="636" y="-62.6" font-family="Times,serif" font-size="14.00">FilterPipe</text>
</g>
<!-- FilterPipe&#45;&gt;SharedModule -->
<g id="edge4" class="edge">
<title>FilterPipe&#45;&gt;SharedModule</title>
<path fill="none" stroke="black" d="M636,-84.91C636,-84.91 636,-103.79 636,-103.79"/>
<polygon fill="black" stroke="black" points="632.5,-103.79 636,-113.79 639.5,-103.79 632.5,-103.79"/>
</g>
<!-- ListaAtletiComponent -->
<g id="node5" class="node">
<title>ListaAtletiComponent</title>
<polygon fill="#ffffb3" stroke="black" points="582.71,-84.8 441.29,-84.8 441.29,-48.8 582.71,-48.8 582.71,-84.8"/>
<text text-anchor="middle" x="512" y="-62.6" font-family="Times,serif" font-size="14.00">ListaAtletiComponent</text>
</g>
<!-- ListaAtletiComponent&#45;&gt;SharedModule -->
<g id="edge5" class="edge">
<title>ListaAtletiComponent&#45;&gt;SharedModule</title>
<path fill="none" stroke="black" d="M582.92,-66.8C589.4,-66.8 593.59,-66.8 593.59,-66.8 593.59,-66.8 593.59,-103.69 593.59,-103.69"/>
<polygon fill="black" stroke="black" points="590.09,-103.69 593.59,-113.69 597.09,-103.69 590.09,-103.69"/>
</g>
<!-- ListaTestComponent -->
<g id="node6" class="node">
<title>ListaTestComponent</title>
<polygon fill="#ffffb3" stroke="black" points="423.93,-84.8 290.07,-84.8 290.07,-48.8 423.93,-48.8 423.93,-84.8"/>
<text text-anchor="middle" x="357" y="-62.6" font-family="Times,serif" font-size="14.00">ListaTestComponent</text>
</g>
<!-- ListaTestComponent&#45;&gt;SharedModule -->
<g id="edge6" class="edge">
<title>ListaTestComponent&#45;&gt;SharedModule</title>
<path fill="none" stroke="black" d="M357,-84.83C357,-101.2 357,-122.8 357,-122.8 357,-122.8 576.76,-122.8 576.76,-122.8"/>
<polygon fill="black" stroke="black" points="576.76,-126.3 586.76,-122.8 576.76,-119.3 576.76,-126.3"/>
</g>
<!-- SearchPipe -->
<g id="node7" class="node">
<title>SearchPipe</title>
<polygon fill="#ffffb3" stroke="black" points="272.47,-84.8 193.53,-84.8 193.53,-48.8 272.47,-48.8 272.47,-84.8"/>
<text text-anchor="middle" x="233" y="-62.6" font-family="Times,serif" font-size="14.00">SearchPipe</text>
</g>
<!-- SearchPipe&#45;&gt;SharedModule -->
<g id="edge7" class="edge">
<title>SearchPipe&#45;&gt;SharedModule</title>
<path fill="none" stroke="black" d="M233,-84.91C233,-104.14 233,-131.8 233,-131.8 233,-131.8 576.58,-131.8 576.58,-131.8"/>
<polygon fill="black" stroke="black" points="576.58,-135.3 586.58,-131.8 576.58,-128.3 576.58,-135.3"/>
</g>
<!-- TestPreviewComponent -->
<g id="node8" class="node">
<title>TestPreviewComponent</title>
<polygon fill="#ffffb3" stroke="black" points="175.8,-84.8 24.2,-84.8 24.2,-48.8 175.8,-48.8 175.8,-84.8"/>
<text text-anchor="middle" x="100" y="-62.6" font-family="Times,serif" font-size="14.00">TestPreviewComponent</text>
</g>
<!-- TestPreviewComponent&#45;&gt;SharedModule -->
<g id="edge8" class="edge">
<title>TestPreviewComponent&#45;&gt;SharedModule</title>
<path fill="none" stroke="black" d="M100,-85.09C100,-107.01 100,-140.8 100,-140.8 100,-140.8 576.54,-140.8 576.54,-140.8"/>
<polygon fill="black" stroke="black" points="576.54,-144.3 586.54,-140.8 576.54,-137.3 576.54,-144.3"/>
</g>
<!-- SearchPipe  -->
<g id="node11" class="node">
<title>SearchPipe </title>
<polygon fill="#fb8072" stroke="black" points="677.48,-214.8 594.52,-214.8 594.52,-178.8 677.48,-178.8 677.48,-214.8"/>
<text text-anchor="middle" x="636" y="-192.6" font-family="Times,serif" font-size="14.00">SearchPipe </text>
</g>
<!-- SharedModule&#45;&gt;SearchPipe  -->
<g id="edge10" class="edge">
<title>SharedModule&#45;&gt;SearchPipe </title>
<path fill="none" stroke="black" stroke-dasharray="5,2" d="M636,-149.91C636,-149.91 636,-168.79 636,-168.79"/>
<polygon fill="black" stroke="black" points="632.5,-168.79 636,-178.79 639.5,-168.79 632.5,-168.79"/>
</g>
<!-- BaseModule -->
<g id="node10" class="node">
<title>BaseModule</title>
<polygon fill="#8dd3c7" stroke="black" points="1242.26,-84.8 1239.26,-88.8 1218.26,-88.8 1215.26,-84.8 1155.74,-84.8 1155.74,-48.8 1242.26,-48.8 1242.26,-84.8"/>
<text text-anchor="middle" x="1199" y="-62.6" font-family="Times,serif" font-size="14.00">BaseModule</text>
</g>
<!-- BaseModule&#45;&gt;SharedModule -->
<g id="edge9" class="edge">
<title>BaseModule&#45;&gt;SharedModule</title>
<path fill="none" stroke="black" d="M1199,-85.09C1199,-107.01 1199,-140.8 1199,-140.8 1199,-140.8 695.47,-140.8 695.47,-140.8"/>
<polygon fill="black" stroke="black" points="695.47,-137.3 685.47,-140.8 695.47,-144.3 695.47,-137.3"/>
</g>
</g>
</svg>
