<?xml version="1.0" encoding="UTF-8" standalone="no"?>
<!DOCTYPE svg PUBLIC "-//W3C//DTD SVG 1.1//EN"
 "http://www.w3.org/Graphics/SVG/1.1/DTD/svg11.dtd">
<!-- Generated by graphviz version 2.47.3 (20210619.1520)
 -->
<!-- Title: dependencies Pages: 1 -->
<svg width="810pt" height="247pt"
 viewBox="0.00 0.00 810.00 246.80" xmlns="http://www.w3.org/2000/svg" xmlns:xlink="http://www.w3.org/1999/xlink">
<g id="graph0" class="graph" transform="scale(1 1) rotate(0) translate(4 242.8)">
<title>dependencies</title>
<polygon fill="white" stroke="transparent" points="-4,4 -4,-242.8 806,-242.8 806,4 -4,4"/>
<text text-anchor="middle" x="401" y="-8.2" font-family="sans-serif" font-size="14.00">dependencies</text>
<g id="clust1" class="cluster">
<title>cluster_AppModule</title>
<polygon fill="none" stroke="black" stroke-dasharray="1,5" points="8,-32.8 8,-230.8 794,-230.8 794,-32.8 8,-32.8"/>
</g>
<g id="clust2" class="cluster">
<title>cluster_AppModule_declarations</title>
<polygon fill="none" stroke="black" points="664,-40.8 664,-92.8 786,-92.8 786,-40.8 664,-40.8"/>
</g>
<g id="clust4" class="cluster">
<title>cluster_AppModule_imports</title>
<polygon fill="none" stroke="black" points="16,-40.8 16,-92.8 656,-92.8 656,-40.8 16,-40.8"/>
</g>
<g id="clust6" class="cluster">
<title>cluster_AppModule_bootstrap</title>
<polygon fill="none" stroke="black" points="312,-170.8 312,-222.8 436,-222.8 436,-170.8 312,-170.8"/>
</g>
<!-- AppComponent -->
<g id="node1" class="node">
<title>AppComponent</title>
<polygon fill="#ffffb3" stroke="black" points="777.94,-84.8 672.06,-84.8 672.06,-48.8 777.94,-48.8 777.94,-84.8"/>
<text text-anchor="middle" x="725" y="-62.6" font-family="Times,serif" font-size="14.00">AppComponent</text>
</g>
<!-- AppModule -->
<g id="node2" class="node">
<title>AppModule</title>
<polygon fill="#8dd3c7" stroke="black" points="415.66,-149.8 412.66,-153.8 391.66,-153.8 388.66,-149.8 332.34,-149.8 332.34,-113.8 415.66,-113.8 415.66,-149.8"/>
<text text-anchor="middle" x="374" y="-127.6" font-family="Times,serif" font-size="14.00">AppModule</text>
</g>
<!-- AppComponent&#45;&gt;AppModule -->
<g id="edge1" class="edge">
<title>AppComponent&#45;&gt;AppModule</title>
<path fill="none" stroke="black" d="M725,-85.08C725,-106.12 725,-137.8 725,-137.8 725,-137.8 425.99,-137.8 425.99,-137.8"/>
<polygon fill="black" stroke="black" points="425.99,-134.3 415.99,-137.8 425.99,-141.3 425.99,-134.3"/>
</g>
<!-- AppComponent  -->
<g id="node8" class="node">
<title>AppComponent </title>
<polygon fill="#80b1d3" stroke="black" points="428.44,-214.8 319.56,-214.8 319.56,-178.8 428.44,-178.8 428.44,-214.8"/>
<text text-anchor="middle" x="374" y="-192.6" font-family="Times,serif" font-size="14.00">AppComponent </text>
</g>
<!-- AppModule&#45;&gt;AppComponent  -->
<g id="edge7" class="edge">
<title>AppModule&#45;&gt;AppComponent </title>
<path fill="none" stroke="black" stroke-dasharray="1,5" d="M374,-149.91C374,-149.91 374,-168.79 374,-168.79"/>
<polygon fill="black" stroke="black" points="370.5,-168.79 374,-178.79 377.5,-168.79 370.5,-168.79"/>
</g>
<!-- AllenamentiModule -->
<g id="node3" class="node">
<title>AllenamentiModule</title>
<polygon fill="#8dd3c7" stroke="black" points="648.25,-84.8 645.25,-88.8 624.25,-88.8 621.25,-84.8 519.75,-84.8 519.75,-48.8 648.25,-48.8 648.25,-84.8"/>
<text text-anchor="middle" x="584" y="-62.6" font-family="Times,serif" font-size="14.00">AllenamentiModule</text>
</g>
<!-- AllenamentiModule&#45;&gt;AppModule -->
<g id="edge2" class="edge">
<title>AllenamentiModule&#45;&gt;AppModule</title>
<path fill="none" stroke="black" d="M584,-84.82C584,-102.17 584,-125.8 584,-125.8 584,-125.8 425.74,-125.8 425.74,-125.8"/>
<polygon fill="black" stroke="black" points="425.74,-122.3 415.74,-125.8 425.74,-129.3 425.74,-122.3"/>
</g>
<!-- AppRoutingModule -->
<g id="node4" class="node">
<title>AppRoutingModule</title>
<polygon fill="#8dd3c7" stroke="black" points="501.27,-84.8 498.27,-88.8 477.27,-88.8 474.27,-84.8 372.73,-84.8 372.73,-48.8 501.27,-48.8 501.27,-84.8"/>
<text text-anchor="middle" x="437" y="-62.6" font-family="Times,serif" font-size="14.00">AppRoutingModule</text>
</g>
<!-- AppRoutingModule&#45;&gt;AppModule -->
<g id="edge3" class="edge">
<title>AppRoutingModule&#45;&gt;AppModule</title>
<path fill="none" stroke="black" d="M394.22,-84.91C394.22,-84.91 394.22,-103.79 394.22,-103.79"/>
<polygon fill="black" stroke="black" points="390.72,-103.79 394.22,-113.79 397.72,-103.79 390.72,-103.79"/>
</g>
<!-- BaseModule -->
<g id="node5" class="node">
<title>BaseModule</title>
<polygon fill="#8dd3c7" stroke="black" points="354.26,-84.8 351.26,-88.8 330.26,-88.8 327.26,-84.8 267.74,-84.8 267.74,-48.8 354.26,-48.8 354.26,-84.8"/>
<text text-anchor="middle" x="311" y="-62.6" font-family="Times,serif" font-size="14.00">BaseModule</text>
</g>
<!-- BaseModule&#45;&gt;AppModule -->
<g id="edge4" class="edge">
<title>BaseModule&#45;&gt;AppModule</title>
<path fill="none" stroke="black" d="M343.28,-84.91C343.28,-84.91 343.28,-103.79 343.28,-103.79"/>
<polygon fill="black" stroke="black" points="339.78,-103.79 343.28,-113.79 346.78,-103.79 339.78,-103.79"/>
</g>
<!-- GestioneModule -->
<g id="node6" class="node">
<title>GestioneModule</title>
<polygon fill="#8dd3c7" stroke="black" points="249.81,-84.8 246.81,-88.8 225.81,-88.8 222.81,-84.8 140.19,-84.8 140.19,-48.8 249.81,-48.8 249.81,-84.8"/>
<text text-anchor="middle" x="195" y="-62.6" font-family="Times,serif" font-size="14.00">GestioneModule</text>
</g>
<!-- GestioneModule&#45;&gt;AppModule -->
<g id="edge5" class="edge">
<title>GestioneModule&#45;&gt;AppModule</title>
<path fill="none" stroke="black" d="M195,-84.82C195,-102.17 195,-125.8 195,-125.8 195,-125.8 322.03,-125.8 322.03,-125.8"/>
<polygon fill="black" stroke="black" points="322.03,-129.3 332.03,-125.8 322.03,-122.3 322.03,-129.3"/>
</g>
<!-- SharedModule -->
<g id="node7" class="node">
<title>SharedModule</title>
<polygon fill="#8dd3c7" stroke="black" points="122.42,-84.8 119.42,-88.8 98.42,-88.8 95.42,-84.8 23.58,-84.8 23.58,-48.8 122.42,-48.8 122.42,-84.8"/>
<text text-anchor="middle" x="73" y="-62.6" font-family="Times,serif" font-size="14.00">SharedModule</text>
</g>
<!-- SharedModule&#45;&gt;AppModule -->
<g id="edge6" class="edge">
<title>SharedModule&#45;&gt;AppModule</title>
<path fill="none" stroke="black" d="M73,-85.08C73,-106.12 73,-137.8 73,-137.8 73,-137.8 322.15,-137.8 322.15,-137.8"/>
<polygon fill="black" stroke="black" points="322.15,-141.3 332.15,-137.8 322.15,-134.3 322.15,-141.3"/>
</g>
</g>
</svg>
