<?xml version="1.0" encoding="UTF-8" standalone="no"?>
<!DOCTYPE svg PUBLIC "-//W3C//DTD SVG 1.1//EN"
 "http://www.w3.org/Graphics/SVG/1.1/DTD/svg11.dtd">
<!-- Generated by graphviz version 2.47.3 (20210619.1520)
 -->
<!-- Title: dependencies Pages: 1 -->
<svg width="663pt" height="247pt"
 viewBox="0.00 0.00 663.00 246.80" xmlns="http://www.w3.org/2000/svg" xmlns:xlink="http://www.w3.org/1999/xlink">
<g id="graph0" class="graph" transform="scale(1 1) rotate(0) translate(4 242.8)">
<title>dependencies</title>
<polygon fill="white" stroke="transparent" points="-4,4 -4,-242.8 659,-242.8 659,4 -4,4"/>
<text text-anchor="middle" x="327.5" y="-8.2" font-family="sans-serif" font-size="14.00">dependencies</text>
<g id="clust1" class="cluster">
<title>cluster_AppModule</title>
<polygon fill="none" stroke="black" stroke-dasharray="1,5" points="8,-32.8 8,-230.8 647,-230.8 647,-32.8 8,-32.8"/>
</g>
<g id="clust6" class="cluster">
<title>cluster_AppModule_bootstrap</title>
<polygon fill="none" stroke="black" points="249,-170.8 249,-222.8 373,-222.8 373,-170.8 249,-170.8"/>
</g>
<g id="clust2" class="cluster">
<title>cluster_AppModule_declarations</title>
<polygon fill="none" stroke="black" points="517,-40.8 517,-92.8 639,-92.8 639,-40.8 517,-40.8"/>
</g>
<g id="clust4" class="cluster">
<title>cluster_AppModule_imports</title>
<polygon fill="none" stroke="black" points="16,-40.8 16,-92.8 509,-92.8 509,-40.8 16,-40.8"/>
</g>
<!-- AppComponent -->
<g id="node1" class="node">
<title>AppComponent</title>
<polygon fill="#ffffb3" stroke="black" points="630.94,-84.8 525.06,-84.8 525.06,-48.8 630.94,-48.8 630.94,-84.8"/>
<text text-anchor="middle" x="578" y="-62.6" font-family="Times,serif" font-size="14.00">AppComponent</text>
</g>
<!-- AppModule -->
<g id="node2" class="node">
<title>AppModule</title>
<polygon fill="#8dd3c7" stroke="black" points="352.66,-149.8 349.66,-153.8 328.66,-153.8 325.66,-149.8 269.34,-149.8 269.34,-113.8 352.66,-113.8 352.66,-149.8"/>
<text text-anchor="middle" x="311" y="-127.6" font-family="Times,serif" font-size="14.00">AppModule</text>
</g>
<!-- AppComponent&#45;&gt;AppModule -->
<g id="edge1" class="edge">
<title>AppComponent&#45;&gt;AppModule</title>
<path fill="none" stroke="black" d="M578,-85.08C578,-106.12 578,-137.8 578,-137.8 578,-137.8 362.72,-137.8 362.72,-137.8"/>
<polygon fill="black" stroke="black" points="362.72,-134.3 352.72,-137.8 362.72,-141.3 362.72,-134.3"/>
</g>
<!-- AppComponent  -->
<g id="node7" class="node">
<title>AppComponent </title>
<polygon fill="#80b1d3" stroke="black" points="365.44,-214.8 256.56,-214.8 256.56,-178.8 365.44,-178.8 365.44,-214.8"/>
<text text-anchor="middle" x="311" y="-192.6" font-family="Times,serif" font-size="14.00">AppComponent </text>
</g>
<!-- AppModule&#45;&gt;AppComponent  -->
<g id="edge6" class="edge">
<title>AppModule&#45;&gt;AppComponent </title>
<path fill="none" stroke="black" stroke-dasharray="1,5" d="M311,-149.91C311,-149.91 311,-168.79 311,-168.79"/>
<polygon fill="black" stroke="black" points="307.5,-168.79 311,-178.79 314.5,-168.79 307.5,-168.79"/>
</g>
<!-- AllenamentiModule -->
<g id="node3" class="node">
<title>AllenamentiModule</title>
<polygon fill="#8dd3c7" stroke="black" points="501.25,-84.8 498.25,-88.8 477.25,-88.8 474.25,-84.8 372.75,-84.8 372.75,-48.8 501.25,-48.8 501.25,-84.8"/>
<text text-anchor="middle" x="437" y="-62.6" font-family="Times,serif" font-size="14.00">AllenamentiModule</text>
</g>
<!-- AllenamentiModule&#45;&gt;AppModule -->
<g id="edge2" class="edge">
<title>AllenamentiModule&#45;&gt;AppModule</title>
<path fill="none" stroke="black" d="M437,-84.82C437,-102.17 437,-125.8 437,-125.8 437,-125.8 362.96,-125.8 362.96,-125.8"/>
<polygon fill="black" stroke="black" points="362.96,-122.3 352.96,-125.8 362.96,-129.3 362.96,-122.3"/>
</g>
<!-- GareModule -->
<g id="node4" class="node">
<title>GareModule</title>
<polygon fill="#8dd3c7" stroke="black" points="354.25,-84.8 351.25,-88.8 330.25,-88.8 327.25,-84.8 267.75,-84.8 267.75,-48.8 354.25,-48.8 354.25,-84.8"/>
<text text-anchor="middle" x="311" y="-62.6" font-family="Times,serif" font-size="14.00">GareModule</text>
</g>
<!-- GareModule&#45;&gt;AppModule -->
<g id="edge3" class="edge">
<title>GareModule&#45;&gt;AppModule</title>
<path fill="none" stroke="black" d="M311,-84.91C311,-84.91 311,-103.79 311,-103.79"/>
<polygon fill="black" stroke="black" points="307.5,-103.79 311,-113.79 314.5,-103.79 307.5,-103.79"/>
</g>
<!-- GestioneModule -->
<g id="node5" class="node">
<title>GestioneModule</title>
<polygon fill="#8dd3c7" stroke="black" points="249.81,-84.8 246.81,-88.8 225.81,-88.8 222.81,-84.8 140.19,-84.8 140.19,-48.8 249.81,-48.8 249.81,-84.8"/>
<text text-anchor="middle" x="195" y="-62.6" font-family="Times,serif" font-size="14.00">GestioneModule</text>
</g>
<!-- GestioneModule&#45;&gt;AppModule -->
<g id="edge4" class="edge">
<title>GestioneModule&#45;&gt;AppModule</title>
<path fill="none" stroke="black" d="M195,-84.82C195,-102.17 195,-125.8 195,-125.8 195,-125.8 259.12,-125.8 259.12,-125.8"/>
<polygon fill="black" stroke="black" points="259.12,-129.3 269.12,-125.8 259.12,-122.3 259.12,-129.3"/>
</g>
<!-- SharedModule -->
<g id="node6" class="node">
<title>SharedModule</title>
<polygon fill="#8dd3c7" stroke="black" points="122.42,-84.8 119.42,-88.8 98.42,-88.8 95.42,-84.8 23.58,-84.8 23.58,-48.8 122.42,-48.8 122.42,-84.8"/>
<text text-anchor="middle" x="73" y="-62.6" font-family="Times,serif" font-size="14.00">SharedModule</text>
</g>
<!-- SharedModule&#45;&gt;AppModule -->
<g id="edge5" class="edge">
<title>SharedModule&#45;&gt;AppModule</title>
<path fill="none" stroke="black" d="M73,-85.08C73,-106.12 73,-137.8 73,-137.8 73,-137.8 259.27,-137.8 259.27,-137.8"/>
<polygon fill="black" stroke="black" points="259.27,-141.3 269.27,-137.8 259.27,-134.3 259.27,-141.3"/>
</g>
</g>
</svg>
