<?xml version="1.0" encoding="UTF-8" standalone="no"?>
<!DOCTYPE svg PUBLIC "-//W3C//DTD SVG 1.1//EN"
 "http://www.w3.org/Graphics/SVG/1.1/DTD/svg11.dtd">
<!-- Generated by graphviz version 2.47.3 (20210619.1520)
 -->
<!-- Title: dependencies Pages: 1 -->
<svg width="2584pt" height="174pt"
 viewBox="0.00 0.00 2584.00 173.80" xmlns="http://www.w3.org/2000/svg" xmlns:xlink="http://www.w3.org/1999/xlink">
<g id="graph0" class="graph" transform="scale(1 1) rotate(0) translate(4 169.8)">
<title>dependencies</title>
<polygon fill="white" stroke="transparent" points="-4,4 -4,-169.8 2580,-169.8 2580,4 -4,4"/>
<text text-anchor="middle" x="1288" y="-8.2" font-family="sans-serif" font-size="14.00">dependencies</text>
<g id="clust1" class="cluster">
<title>cluster_AllenamentiModule</title>
<polygon fill="none" stroke="black" stroke-dasharray="1,5" points="8,-32.8 8,-157.8 2568,-157.8 2568,-32.8 8,-32.8"/>
</g>
<g id="clust2" class="cluster">
<title>cluster_AllenamentiModule_declarations</title>
<polygon fill="none" stroke="black" points="243,-40.8 243,-92.8 2560,-92.8 2560,-40.8 243,-40.8"/>
</g>
<g id="clust14" class="cluster">
<title>cluster_AllenamentiModule_imports</title>
<polygon fill="none" stroke="black" points="16,-40.8 16,-92.8 235,-92.8 235,-40.8 16,-40.8"/>
</g>
<!-- AllenamentiComponent -->
<g id="node1" class="node">
<title>AllenamentiComponent</title>
<polygon fill="#ffffb3" stroke="black" points="2552.04,-84.8 2401.96,-84.8 2401.96,-48.8 2552.04,-48.8 2552.04,-84.8"/>
<text text-anchor="middle" x="2477" y="-62.6" font-family="Times,serif" font-size="14.00">AllenamentiComponent</text>
</g>
<!-- AllenamentiModule -->
<g id="node12" class="node">
<title>AllenamentiModule</title>
<polygon fill="#8dd3c7" stroke="black" points="1306.25,-149.8 1303.25,-153.8 1282.25,-153.8 1279.25,-149.8 1177.75,-149.8 1177.75,-113.8 1306.25,-113.8 1306.25,-149.8"/>
<text text-anchor="middle" x="1242" y="-127.6" font-family="Times,serif" font-size="14.00">AllenamentiModule</text>
</g>
<!-- AllenamentiComponent&#45;&gt;AllenamentiModule -->
<g id="edge1" class="edge">
<title>AllenamentiComponent&#45;&gt;AllenamentiModule</title>
<path fill="none" stroke="black" d="M2477,-84.89C2477,-107.93 2477,-144.8 2477,-144.8 2477,-144.8 1316.66,-144.8 1316.66,-144.8"/>
<polygon fill="black" stroke="black" points="1316.66,-141.3 1306.66,-144.8 1316.66,-148.3 1316.66,-141.3"/>
</g>
<!-- AllenamentiLandingComponent -->
<g id="node2" class="node">
<title>AllenamentiLandingComponent</title>
<polygon fill="#ffffb3" stroke="black" points="2383.69,-84.8 2186.31,-84.8 2186.31,-48.8 2383.69,-48.8 2383.69,-84.8"/>
<text text-anchor="middle" x="2285" y="-62.6" font-family="Times,serif" font-size="14.00">AllenamentiLandingComponent</text>
</g>
<!-- AllenamentiLandingComponent&#45;&gt;AllenamentiModule -->
<g id="edge2" class="edge">
<title>AllenamentiLandingComponent&#45;&gt;AllenamentiModule</title>
<path fill="none" stroke="black" d="M2285,-84.84C2285,-106.46 2285,-139.8 2285,-139.8 2285,-139.8 1316.46,-139.8 1316.46,-139.8"/>
<polygon fill="black" stroke="black" points="1316.46,-136.3 1306.46,-139.8 1316.46,-143.3 1316.46,-136.3"/>
</g>
<!-- AllenamentoAttivoComponent -->
<g id="node3" class="node">
<title>AllenamentoAttivoComponent</title>
<polygon fill="#ffffb3" stroke="black" points="2168.92,-84.8 1979.08,-84.8 1979.08,-48.8 2168.92,-48.8 2168.92,-84.8"/>
<text text-anchor="middle" x="2074" y="-62.6" font-family="Times,serif" font-size="14.00">AllenamentoAttivoComponent</text>
</g>
<!-- AllenamentoAttivoComponent&#45;&gt;AllenamentiModule -->
<g id="edge3" class="edge">
<title>AllenamentoAttivoComponent&#45;&gt;AllenamentiModule</title>
<path fill="none" stroke="black" d="M2074,-85.02C2074,-105.17 2074,-134.8 2074,-134.8 2074,-134.8 1316.59,-134.8 1316.59,-134.8"/>
<polygon fill="black" stroke="black" points="1316.59,-131.3 1306.59,-134.8 1316.59,-138.3 1316.59,-131.3"/>
</g>
<!-- AllenamentoComponent -->
<g id="node4" class="node">
<title>AllenamentoComponent</title>
<polygon fill="#ffffb3" stroke="black" points="1960.65,-84.8 1807.35,-84.8 1807.35,-48.8 1960.65,-48.8 1960.65,-84.8"/>
<text text-anchor="middle" x="1884" y="-62.6" font-family="Times,serif" font-size="14.00">AllenamentoComponent</text>
</g>
<!-- AllenamentoComponent&#45;&gt;AllenamentiModule -->
<g id="edge4" class="edge">
<title>AllenamentoComponent&#45;&gt;AllenamentiModule</title>
<path fill="none" stroke="black" d="M1884,-85.02C1884,-103.63 1884,-129.8 1884,-129.8 1884,-129.8 1316.5,-129.8 1316.5,-129.8"/>
<polygon fill="black" stroke="black" points="1316.5,-126.3 1306.5,-129.8 1316.5,-133.3 1316.5,-126.3"/>
</g>
<!-- AllenamentoLandingComponent -->
<g id="node5" class="node">
<title>AllenamentoLandingComponent</title>
<polygon fill="#ffffb3" stroke="black" points="1789.3,-84.8 1588.7,-84.8 1588.7,-48.8 1789.3,-48.8 1789.3,-84.8"/>
<text text-anchor="middle" x="1689" y="-62.6" font-family="Times,serif" font-size="14.00">AllenamentoLandingComponent</text>
</g>
<!-- AllenamentoLandingComponent&#45;&gt;AllenamentiModule -->
<g id="edge5" class="edge">
<title>AllenamentoLandingComponent&#45;&gt;AllenamentiModule</title>
<path fill="none" stroke="black" d="M1689,-84.83C1689,-101.86 1689,-124.8 1689,-124.8 1689,-124.8 1316.52,-124.8 1316.52,-124.8"/>
<polygon fill="black" stroke="black" points="1316.52,-121.3 1306.52,-124.8 1316.52,-128.3 1316.52,-121.3"/>
</g>
<!-- AllenamentoPreviewComponent -->
<g id="node6" class="node">
<title>AllenamentoPreviewComponent</title>
<polygon fill="#ffffb3" stroke="black" points="1570.52,-84.8 1371.48,-84.8 1371.48,-48.8 1570.52,-48.8 1570.52,-84.8"/>
<text text-anchor="middle" x="1471" y="-62.6" font-family="Times,serif" font-size="14.00">AllenamentoPreviewComponent</text>
</g>
<!-- AllenamentoPreviewComponent&#45;&gt;AllenamentiModule -->
<g id="edge6" class="edge">
<title>AllenamentoPreviewComponent&#45;&gt;AllenamentiModule</title>
<path fill="none" stroke="black" d="M1471,-85.04C1471,-100.37 1471,-119.8 1471,-119.8 1471,-119.8 1316.4,-119.8 1316.4,-119.8"/>
<polygon fill="black" stroke="black" points="1316.4,-116.3 1306.4,-119.8 1316.4,-123.3 1316.4,-116.3"/>
</g>
<!-- AllenamentoSelectAtletaComponent -->
<g id="node7" class="node">
<title>AllenamentoSelectAtletaComponent</title>
<polygon fill="#ffffb3" stroke="black" points="1353.06,-84.8 1130.94,-84.8 1130.94,-48.8 1353.06,-48.8 1353.06,-84.8"/>
<text text-anchor="middle" x="1242" y="-62.6" font-family="Times,serif" font-size="14.00">AllenamentoSelectAtletaComponent</text>
</g>
<!-- AllenamentoSelectAtletaComponent&#45;&gt;AllenamentiModule -->
<g id="edge7" class="edge">
<title>AllenamentoSelectAtletaComponent&#45;&gt;AllenamentiModule</title>
<path fill="none" stroke="black" d="M1242,-84.91C1242,-84.91 1242,-103.79 1242,-103.79"/>
<polygon fill="black" stroke="black" points="1238.5,-103.79 1242,-113.79 1245.5,-103.79 1238.5,-103.79"/>
</g>
<!-- AllenamentoSelectTestComponent -->
<g id="node8" class="node">
<title>AllenamentoSelectTestComponent</title>
<polygon fill="#ffffb3" stroke="black" points="1112.96,-84.8 901.04,-84.8 901.04,-48.8 1112.96,-48.8 1112.96,-84.8"/>
<text text-anchor="middle" x="1007" y="-62.6" font-family="Times,serif" font-size="14.00">AllenamentoSelectTestComponent</text>
</g>
<!-- AllenamentoSelectTestComponent&#45;&gt;AllenamentiModule -->
<g id="edge8" class="edge">
<title>AllenamentoSelectTestComponent&#45;&gt;AllenamentiModule</title>
<path fill="none" stroke="black" d="M1007,-85.04C1007,-100.37 1007,-119.8 1007,-119.8 1007,-119.8 1167.47,-119.8 1167.47,-119.8"/>
<polygon fill="black" stroke="black" points="1167.47,-123.3 1177.47,-119.8 1167.47,-116.3 1167.47,-123.3"/>
</g>
<!-- BeforeAllenamentoComponent -->
<g id="node9" class="node">
<title>BeforeAllenamentoComponent</title>
<polygon fill="#ffffb3" stroke="black" points="882.73,-84.8 691.27,-84.8 691.27,-48.8 882.73,-48.8 882.73,-84.8"/>
<text text-anchor="middle" x="787" y="-62.6" font-family="Times,serif" font-size="14.00">BeforeAllenamentoComponent</text>
</g>
<!-- BeforeAllenamentoComponent&#45;&gt;AllenamentiModule -->
<g id="edge9" class="edge">
<title>BeforeAllenamentoComponent&#45;&gt;AllenamentiModule</title>
<path fill="none" stroke="black" d="M787,-84.83C787,-101.86 787,-124.8 787,-124.8 787,-124.8 1167.29,-124.8 1167.29,-124.8"/>
<polygon fill="black" stroke="black" points="1167.29,-128.3 1177.29,-124.8 1167.29,-121.3 1167.29,-128.3"/>
</g>
<!-- ListaAllenamentiComponent -->
<g id="node10" class="node">
<title>ListaAllenamentiComponent</title>
<polygon fill="#ffffb3" stroke="black" points="673.03,-84.8 494.97,-84.8 494.97,-48.8 673.03,-48.8 673.03,-84.8"/>
<text text-anchor="middle" x="584" y="-62.6" font-family="Times,serif" font-size="14.00">ListaAllenamentiComponent</text>
</g>
<!-- ListaAllenamentiComponent&#45;&gt;AllenamentiModule -->
<g id="edge10" class="edge">
<title>ListaAllenamentiComponent&#45;&gt;AllenamentiModule</title>
<path fill="none" stroke="black" d="M584,-85.02C584,-103.63 584,-129.8 584,-129.8 584,-129.8 1167.71,-129.8 1167.71,-129.8"/>
<polygon fill="black" stroke="black" points="1167.71,-133.3 1177.71,-129.8 1167.71,-126.3 1167.71,-133.3"/>
</g>
<!-- ListaAllenamentiLandingComponent -->
<g id="node11" class="node">
<title>ListaAllenamentiLandingComponent</title>
<polygon fill="#ffffb3" stroke="black" points="476.69,-84.8 251.31,-84.8 251.31,-48.8 476.69,-48.8 476.69,-84.8"/>
<text text-anchor="middle" x="364" y="-62.6" font-family="Times,serif" font-size="14.00">ListaAllenamentiLandingComponent</text>
</g>
<!-- ListaAllenamentiLandingComponent&#45;&gt;AllenamentiModule -->
<g id="edge11" class="edge">
<title>ListaAllenamentiLandingComponent&#45;&gt;AllenamentiModule</title>
<path fill="none" stroke="black" d="M364,-85.02C364,-105.17 364,-134.8 364,-134.8 364,-134.8 1167.44,-134.8 1167.44,-134.8"/>
<polygon fill="black" stroke="black" points="1167.44,-138.3 1177.44,-134.8 1167.44,-131.3 1167.44,-138.3"/>
</g>
<!-- BaseModule -->
<g id="node13" class="node">
<title>BaseModule</title>
<polygon fill="#8dd3c7" stroke="black" points="227.26,-84.8 224.26,-88.8 203.26,-88.8 200.26,-84.8 140.74,-84.8 140.74,-48.8 227.26,-48.8 227.26,-84.8"/>
<text text-anchor="middle" x="184" y="-62.6" font-family="Times,serif" font-size="14.00">BaseModule</text>
</g>
<!-- BaseModule&#45;&gt;AllenamentiModule -->
<g id="edge12" class="edge">
<title>BaseModule&#45;&gt;AllenamentiModule</title>
<path fill="none" stroke="black" d="M184,-84.84C184,-106.46 184,-139.8 184,-139.8 184,-139.8 1167.41,-139.8 1167.41,-139.8"/>
<polygon fill="black" stroke="black" points="1167.41,-143.3 1177.41,-139.8 1167.41,-136.3 1167.41,-143.3"/>
</g>
<!-- SharedModule -->
<g id="node14" class="node">
<title>SharedModule</title>
<polygon fill="#8dd3c7" stroke="black" points="122.42,-84.8 119.42,-88.8 98.42,-88.8 95.42,-84.8 23.58,-84.8 23.58,-48.8 122.42,-48.8 122.42,-84.8"/>
<text text-anchor="middle" x="73" y="-62.6" font-family="Times,serif" font-size="14.00">SharedModule</text>
</g>
<!-- SharedModule&#45;&gt;AllenamentiModule -->
<g id="edge13" class="edge">
<title>SharedModule&#45;&gt;AllenamentiModule</title>
<path fill="none" stroke="black" d="M73,-84.89C73,-107.93 73,-144.8 73,-144.8 73,-144.8 1167.48,-144.8 1167.48,-144.8"/>
<polygon fill="black" stroke="black" points="1167.48,-148.3 1177.48,-144.8 1167.48,-141.3 1167.48,-148.3"/>
</g>
</g>
</svg>
