<?xml version="1.0" encoding="UTF-8" standalone="no"?>
<!DOCTYPE svg PUBLIC "-//W3C//DTD SVG 1.1//EN"
 "http://www.w3.org/Graphics/SVG/1.1/DTD/svg11.dtd">
<!-- Generated by graphviz version 2.47.3 (20210619.1520)
 -->
<!-- Title: dependencies Pages: 1 -->
<svg width="1437pt" height="174pt"
 viewBox="0.00 0.00 1437.00 173.80" xmlns="http://www.w3.org/2000/svg" xmlns:xlink="http://www.w3.org/1999/xlink">
<g id="graph0" class="graph" transform="scale(1 1) rotate(0) translate(4 169.8)">
<title>dependencies</title>
<polygon fill="white" stroke="transparent" points="-4,4 -4,-169.8 1433,-169.8 1433,4 -4,4"/>
<text text-anchor="middle" x="714.5" y="-8.2" font-family="sans-serif" font-size="14.00">dependencies</text>
<g id="clust1" class="cluster">
<title>cluster_AllenamentiModule</title>
<polygon fill="none" stroke="black" stroke-dasharray="1,5" points="8,-32.8 8,-157.8 1421,-157.8 1421,-32.8 8,-32.8"/>
</g>
<g id="clust2" class="cluster">
<title>cluster_AllenamentiModule_declarations</title>
<polygon fill="none" stroke="black" points="243,-40.8 243,-92.8 1413,-92.8 1413,-40.8 243,-40.8"/>
</g>
<g id="clust9" class="cluster">
<title>cluster_AllenamentiModule_imports</title>
<polygon fill="none" stroke="black" points="16,-40.8 16,-92.8 235,-92.8 235,-40.8 16,-40.8"/>
</g>
<!-- AllenamentiComponent -->
<g id="node1" class="node">
<title>AllenamentiComponent</title>
<polygon fill="#ffffb3" stroke="black" points="1405.04,-84.8 1254.96,-84.8 1254.96,-48.8 1405.04,-48.8 1405.04,-84.8"/>
<text text-anchor="middle" x="1330" y="-62.6" font-family="Times,serif" font-size="14.00">AllenamentiComponent</text>
</g>
<!-- AllenamentiModule -->
<g id="node7" class="node">
<title>AllenamentiModule</title>
<polygon fill="#8dd3c7" stroke="black" points="714.25,-149.8 711.25,-153.8 690.25,-153.8 687.25,-149.8 585.75,-149.8 585.75,-113.8 714.25,-113.8 714.25,-149.8"/>
<text text-anchor="middle" x="650" y="-127.6" font-family="Times,serif" font-size="14.00">AllenamentiModule</text>
</g>
<!-- AllenamentiComponent&#45;&gt;AllenamentiModule -->
<g id="edge1" class="edge">
<title>AllenamentiComponent&#45;&gt;AllenamentiModule</title>
<path fill="none" stroke="black" d="M1330,-85.09C1330,-107.01 1330,-140.8 1330,-140.8 1330,-140.8 724.28,-140.8 724.28,-140.8"/>
<polygon fill="black" stroke="black" points="724.28,-137.3 714.28,-140.8 724.28,-144.3 724.28,-137.3"/>
</g>
<!-- AllenamentoAttivoComponent -->
<g id="node2" class="node">
<title>AllenamentoAttivoComponent</title>
<polygon fill="#ffffb3" stroke="black" points="1236.92,-84.8 1047.08,-84.8 1047.08,-48.8 1236.92,-48.8 1236.92,-84.8"/>
<text text-anchor="middle" x="1142" y="-62.6" font-family="Times,serif" font-size="14.00">AllenamentoAttivoComponent</text>
</g>
<!-- AllenamentoAttivoComponent&#45;&gt;AllenamentiModule -->
<g id="edge2" class="edge">
<title>AllenamentoAttivoComponent&#45;&gt;AllenamentiModule</title>
<path fill="none" stroke="black" d="M1142,-84.91C1142,-104.14 1142,-131.8 1142,-131.8 1142,-131.8 724.32,-131.8 724.32,-131.8"/>
<polygon fill="black" stroke="black" points="724.32,-128.3 714.32,-131.8 724.32,-135.3 724.32,-128.3"/>
</g>
<!-- AllenamentoComponent -->
<g id="node3" class="node">
<title>AllenamentoComponent</title>
<polygon fill="#ffffb3" stroke="black" points="1028.65,-84.8 875.35,-84.8 875.35,-48.8 1028.65,-48.8 1028.65,-84.8"/>
<text text-anchor="middle" x="952" y="-62.6" font-family="Times,serif" font-size="14.00">AllenamentoComponent</text>
</g>
<!-- AllenamentoComponent&#45;&gt;AllenamentiModule -->
<g id="edge3" class="edge">
<title>AllenamentoComponent&#45;&gt;AllenamentiModule</title>
<path fill="none" stroke="black" d="M952,-84.83C952,-101.2 952,-122.8 952,-122.8 952,-122.8 724.42,-122.8 724.42,-122.8"/>
<polygon fill="black" stroke="black" points="724.42,-119.3 714.42,-122.8 724.42,-126.3 724.42,-119.3"/>
</g>
<!-- AllenamentoPreviewComponent -->
<g id="node4" class="node">
<title>AllenamentoPreviewComponent</title>
<polygon fill="#ffffb3" stroke="black" points="856.52,-84.8 657.48,-84.8 657.48,-48.8 856.52,-48.8 856.52,-84.8"/>
<text text-anchor="middle" x="757" y="-62.6" font-family="Times,serif" font-size="14.00">AllenamentoPreviewComponent</text>
</g>
<!-- AllenamentoPreviewComponent&#45;&gt;AllenamentiModule -->
<g id="edge4" class="edge">
<title>AllenamentoPreviewComponent&#45;&gt;AllenamentiModule</title>
<path fill="none" stroke="black" d="M685.81,-84.91C685.81,-84.91 685.81,-103.79 685.81,-103.79"/>
<polygon fill="black" stroke="black" points="682.31,-103.79 685.81,-113.79 689.31,-103.79 682.31,-103.79"/>
</g>
<!-- BeforeAllenamentoComponent -->
<g id="node5" class="node">
<title>BeforeAllenamentoComponent</title>
<polygon fill="#ffffb3" stroke="black" points="638.73,-84.8 447.27,-84.8 447.27,-48.8 638.73,-48.8 638.73,-84.8"/>
<text text-anchor="middle" x="543" y="-62.6" font-family="Times,serif" font-size="14.00">BeforeAllenamentoComponent</text>
</g>
<!-- BeforeAllenamentoComponent&#45;&gt;AllenamentiModule -->
<g id="edge5" class="edge">
<title>BeforeAllenamentoComponent&#45;&gt;AllenamentiModule</title>
<path fill="none" stroke="black" d="M612.24,-84.91C612.24,-84.91 612.24,-103.79 612.24,-103.79"/>
<polygon fill="black" stroke="black" points="608.74,-103.79 612.24,-113.79 615.74,-103.79 608.74,-103.79"/>
</g>
<!-- ListaAllenamentiComponent -->
<g id="node6" class="node">
<title>ListaAllenamentiComponent</title>
<polygon fill="#ffffb3" stroke="black" points="429.03,-84.8 250.97,-84.8 250.97,-48.8 429.03,-48.8 429.03,-84.8"/>
<text text-anchor="middle" x="340" y="-62.6" font-family="Times,serif" font-size="14.00">ListaAllenamentiComponent</text>
</g>
<!-- ListaAllenamentiComponent&#45;&gt;AllenamentiModule -->
<g id="edge6" class="edge">
<title>ListaAllenamentiComponent&#45;&gt;AllenamentiModule</title>
<path fill="none" stroke="black" d="M340,-84.83C340,-101.2 340,-122.8 340,-122.8 340,-122.8 575.39,-122.8 575.39,-122.8"/>
<polygon fill="black" stroke="black" points="575.39,-126.3 585.39,-122.8 575.39,-119.3 575.39,-126.3"/>
</g>
<!-- BaseModule -->
<g id="node8" class="node">
<title>BaseModule</title>
<polygon fill="#8dd3c7" stroke="black" points="227.26,-84.8 224.26,-88.8 203.26,-88.8 200.26,-84.8 140.74,-84.8 140.74,-48.8 227.26,-48.8 227.26,-84.8"/>
<text text-anchor="middle" x="184" y="-62.6" font-family="Times,serif" font-size="14.00">BaseModule</text>
</g>
<!-- BaseModule&#45;&gt;AllenamentiModule -->
<g id="edge7" class="edge">
<title>BaseModule&#45;&gt;AllenamentiModule</title>
<path fill="none" stroke="black" d="M184,-84.91C184,-104.14 184,-131.8 184,-131.8 184,-131.8 575.69,-131.8 575.69,-131.8"/>
<polygon fill="black" stroke="black" points="575.69,-135.3 585.69,-131.8 575.69,-128.3 575.69,-135.3"/>
</g>
<!-- SharedModule -->
<g id="node9" class="node">
<title>SharedModule</title>
<polygon fill="#8dd3c7" stroke="black" points="122.42,-84.8 119.42,-88.8 98.42,-88.8 95.42,-84.8 23.58,-84.8 23.58,-48.8 122.42,-48.8 122.42,-84.8"/>
<text text-anchor="middle" x="73" y="-62.6" font-family="Times,serif" font-size="14.00">SharedModule</text>
</g>
<!-- SharedModule&#45;&gt;AllenamentiModule -->
<g id="edge8" class="edge">
<title>SharedModule&#45;&gt;AllenamentiModule</title>
<path fill="none" stroke="black" d="M73,-85.09C73,-107.01 73,-140.8 73,-140.8 73,-140.8 575.49,-140.8 575.49,-140.8"/>
<polygon fill="black" stroke="black" points="575.49,-144.3 585.49,-140.8 575.49,-137.3 575.49,-144.3"/>
</g>
</g>
</svg>
