<?xml version="1.0" encoding="UTF-8" standalone="no"?>
<!DOCTYPE svg PUBLIC "-//W3C//DTD SVG 1.1//EN"
 "http://www.w3.org/Graphics/SVG/1.1/DTD/svg11.dtd">
<!-- Generated by graphviz version 2.47.3 (20210619.1520)
 -->
<!-- Title: dependencies Pages: 1 -->
<svg width="2114pt" height="174pt"
 viewBox="0.00 0.00 2114.00 173.80" xmlns="http://www.w3.org/2000/svg" xmlns:xlink="http://www.w3.org/1999/xlink">
<g id="graph0" class="graph" transform="scale(1 1) rotate(0) translate(4 169.8)">
<title>dependencies</title>
<polygon fill="white" stroke="transparent" points="-4,4 -4,-169.8 2110,-169.8 2110,4 -4,4"/>
<text text-anchor="middle" x="1053" y="-8.2" font-family="sans-serif" font-size="14.00">dependencies</text>
<g id="clust1" class="cluster">
<title>cluster_AllenamentiModule</title>
<polygon fill="none" stroke="black" stroke-dasharray="1,5" points="8,-32.8 8,-157.8 2098,-157.8 2098,-32.8 8,-32.8"/>
</g>
<g id="clust2" class="cluster">
<title>cluster_AllenamentiModule_declarations</title>
<polygon fill="none" stroke="black" points="243,-40.8 243,-92.8 2090,-92.8 2090,-40.8 243,-40.8"/>
</g>
<g id="clust12" class="cluster">
<title>cluster_AllenamentiModule_imports</title>
<polygon fill="none" stroke="black" points="16,-40.8 16,-92.8 235,-92.8 235,-40.8 16,-40.8"/>
</g>
<!-- AllenamentiComponent -->
<g id="node1" class="node">
<title>AllenamentiComponent</title>
<polygon fill="#ffffb3" stroke="black" points="2082.04,-84.8 1931.96,-84.8 1931.96,-48.8 2082.04,-48.8 2082.04,-84.8"/>
<text text-anchor="middle" x="2007" y="-62.6" font-family="Times,serif" font-size="14.00">AllenamentiComponent</text>
</g>
<!-- AllenamentiModule -->
<g id="node10" class="node">
<title>AllenamentiModule</title>
<polygon fill="#8dd3c7" stroke="black" points="1065.25,-149.8 1062.25,-153.8 1041.25,-153.8 1038.25,-149.8 936.75,-149.8 936.75,-113.8 1065.25,-113.8 1065.25,-149.8"/>
<text text-anchor="middle" x="1001" y="-127.6" font-family="Times,serif" font-size="14.00">AllenamentiModule</text>
</g>
<!-- AllenamentiComponent&#45;&gt;AllenamentiModule -->
<g id="edge1" class="edge">
<title>AllenamentiComponent&#45;&gt;AllenamentiModule</title>
<path fill="none" stroke="black" d="M2007,-84.89C2007,-107.93 2007,-144.8 2007,-144.8 2007,-144.8 1075.46,-144.8 1075.46,-144.8"/>
<polygon fill="black" stroke="black" points="1075.46,-141.3 1065.46,-144.8 1075.46,-148.3 1075.46,-141.3"/>
</g>
<!-- AllenamentiLandingComponent -->
<g id="node2" class="node">
<title>AllenamentiLandingComponent</title>
<polygon fill="#ffffb3" stroke="black" points="1913.69,-84.8 1716.31,-84.8 1716.31,-48.8 1913.69,-48.8 1913.69,-84.8"/>
<text text-anchor="middle" x="1815" y="-62.6" font-family="Times,serif" font-size="14.00">AllenamentiLandingComponent</text>
</g>
<!-- AllenamentiLandingComponent&#45;&gt;AllenamentiModule -->
<g id="edge2" class="edge">
<title>AllenamentiLandingComponent&#45;&gt;AllenamentiModule</title>
<path fill="none" stroke="black" d="M1815,-85.08C1815,-106.12 1815,-137.8 1815,-137.8 1815,-137.8 1075.55,-137.8 1075.55,-137.8"/>
<polygon fill="black" stroke="black" points="1075.55,-134.3 1065.55,-137.8 1075.55,-141.3 1075.55,-134.3"/>
</g>
<!-- AllenamentoAttivoComponent -->
<g id="node3" class="node">
<title>AllenamentoAttivoComponent</title>
<polygon fill="#ffffb3" stroke="black" points="1698.92,-84.8 1509.08,-84.8 1509.08,-48.8 1698.92,-48.8 1698.92,-84.8"/>
<text text-anchor="middle" x="1604" y="-62.6" font-family="Times,serif" font-size="14.00">AllenamentoAttivoComponent</text>
</g>
<!-- AllenamentoAttivoComponent&#45;&gt;AllenamentiModule -->
<g id="edge3" class="edge">
<title>AllenamentoAttivoComponent&#45;&gt;AllenamentiModule</title>
<path fill="none" stroke="black" d="M1604,-84.91C1604,-104.14 1604,-131.8 1604,-131.8 1604,-131.8 1075.53,-131.8 1075.53,-131.8"/>
<polygon fill="black" stroke="black" points="1075.53,-128.3 1065.53,-131.8 1075.53,-135.3 1075.53,-128.3"/>
</g>
<!-- AllenamentoComponent -->
<g id="node4" class="node">
<title>AllenamentoComponent</title>
<polygon fill="#ffffb3" stroke="black" points="1490.65,-84.8 1337.35,-84.8 1337.35,-48.8 1490.65,-48.8 1490.65,-84.8"/>
<text text-anchor="middle" x="1414" y="-62.6" font-family="Times,serif" font-size="14.00">AllenamentoComponent</text>
</g>
<!-- AllenamentoComponent&#45;&gt;AllenamentiModule -->
<g id="edge4" class="edge">
<title>AllenamentoComponent&#45;&gt;AllenamentiModule</title>
<path fill="none" stroke="black" d="M1414,-84.82C1414,-102.17 1414,-125.8 1414,-125.8 1414,-125.8 1075.53,-125.8 1075.53,-125.8"/>
<polygon fill="black" stroke="black" points="1075.53,-122.3 1065.53,-125.8 1075.53,-129.3 1075.53,-122.3"/>
</g>
<!-- AllenamentoLandingComponent -->
<g id="node5" class="node">
<title>AllenamentoLandingComponent</title>
<polygon fill="#ffffb3" stroke="black" points="1319.3,-84.8 1118.7,-84.8 1118.7,-48.8 1319.3,-48.8 1319.3,-84.8"/>
<text text-anchor="middle" x="1219" y="-62.6" font-family="Times,serif" font-size="14.00">AllenamentoLandingComponent</text>
</g>
<!-- AllenamentoLandingComponent&#45;&gt;AllenamentiModule -->
<g id="edge5" class="edge">
<title>AllenamentoLandingComponent&#45;&gt;AllenamentiModule</title>
<path fill="none" stroke="black" d="M1219,-85.04C1219,-100.37 1219,-119.8 1219,-119.8 1219,-119.8 1075.52,-119.8 1075.52,-119.8"/>
<polygon fill="black" stroke="black" points="1075.52,-116.3 1065.52,-119.8 1075.52,-123.3 1075.52,-116.3"/>
</g>
<!-- AllenamentoPreviewComponent -->
<g id="node6" class="node">
<title>AllenamentoPreviewComponent</title>
<polygon fill="#ffffb3" stroke="black" points="1100.52,-84.8 901.48,-84.8 901.48,-48.8 1100.52,-48.8 1100.52,-84.8"/>
<text text-anchor="middle" x="1001" y="-62.6" font-family="Times,serif" font-size="14.00">AllenamentoPreviewComponent</text>
</g>
<!-- AllenamentoPreviewComponent&#45;&gt;AllenamentiModule -->
<g id="edge6" class="edge">
<title>AllenamentoPreviewComponent&#45;&gt;AllenamentiModule</title>
<path fill="none" stroke="black" d="M1001,-84.91C1001,-84.91 1001,-103.79 1001,-103.79"/>
<polygon fill="black" stroke="black" points="997.5,-103.79 1001,-113.79 1004.5,-103.79 997.5,-103.79"/>
</g>
<!-- BeforeAllenamentoComponent -->
<g id="node7" class="node">
<title>BeforeAllenamentoComponent</title>
<polygon fill="#ffffb3" stroke="black" points="882.73,-84.8 691.27,-84.8 691.27,-48.8 882.73,-48.8 882.73,-84.8"/>
<text text-anchor="middle" x="787" y="-62.6" font-family="Times,serif" font-size="14.00">BeforeAllenamentoComponent</text>
</g>
<!-- BeforeAllenamentoComponent&#45;&gt;AllenamentiModule -->
<g id="edge7" class="edge">
<title>BeforeAllenamentoComponent&#45;&gt;AllenamentiModule</title>
<path fill="none" stroke="black" d="M787,-85.04C787,-100.37 787,-119.8 787,-119.8 787,-119.8 926.5,-119.8 926.5,-119.8"/>
<polygon fill="black" stroke="black" points="926.5,-123.3 936.5,-119.8 926.5,-116.3 926.5,-123.3"/>
</g>
<!-- ListaAllenamentiComponent -->
<g id="node8" class="node">
<title>ListaAllenamentiComponent</title>
<polygon fill="#ffffb3" stroke="black" points="673.03,-84.8 494.97,-84.8 494.97,-48.8 673.03,-48.8 673.03,-84.8"/>
<text text-anchor="middle" x="584" y="-62.6" font-family="Times,serif" font-size="14.00">ListaAllenamentiComponent</text>
</g>
<!-- ListaAllenamentiComponent&#45;&gt;AllenamentiModule -->
<g id="edge8" class="edge">
<title>ListaAllenamentiComponent&#45;&gt;AllenamentiModule</title>
<path fill="none" stroke="black" d="M584,-84.82C584,-102.17 584,-125.8 584,-125.8 584,-125.8 926.3,-125.8 926.3,-125.8"/>
<polygon fill="black" stroke="black" points="926.3,-129.3 936.3,-125.8 926.3,-122.3 926.3,-129.3"/>
</g>
<!-- ListaAllenamentiLandingComponent -->
<g id="node9" class="node">
<title>ListaAllenamentiLandingComponent</title>
<polygon fill="#ffffb3" stroke="black" points="476.69,-84.8 251.31,-84.8 251.31,-48.8 476.69,-48.8 476.69,-84.8"/>
<text text-anchor="middle" x="364" y="-62.6" font-family="Times,serif" font-size="14.00">ListaAllenamentiLandingComponent</text>
</g>
<!-- ListaAllenamentiLandingComponent&#45;&gt;AllenamentiModule -->
<g id="edge9" class="edge">
<title>ListaAllenamentiLandingComponent&#45;&gt;AllenamentiModule</title>
<path fill="none" stroke="black" d="M364,-84.91C364,-104.14 364,-131.8 364,-131.8 364,-131.8 926.71,-131.8 926.71,-131.8"/>
<polygon fill="black" stroke="black" points="926.71,-135.3 936.71,-131.8 926.71,-128.3 926.71,-135.3"/>
</g>
<!-- BaseModule -->
<g id="node11" class="node">
<title>BaseModule</title>
<polygon fill="#8dd3c7" stroke="black" points="227.26,-84.8 224.26,-88.8 203.26,-88.8 200.26,-84.8 140.74,-84.8 140.74,-48.8 227.26,-48.8 227.26,-84.8"/>
<text text-anchor="middle" x="184" y="-62.6" font-family="Times,serif" font-size="14.00">BaseModule</text>
</g>
<!-- BaseModule&#45;&gt;AllenamentiModule -->
<g id="edge10" class="edge">
<title>BaseModule&#45;&gt;AllenamentiModule</title>
<path fill="none" stroke="black" d="M184,-85.08C184,-106.12 184,-137.8 184,-137.8 184,-137.8 926.55,-137.8 926.55,-137.8"/>
<polygon fill="black" stroke="black" points="926.55,-141.3 936.55,-137.8 926.55,-134.3 926.55,-141.3"/>
</g>
<!-- SharedModule -->
<g id="node12" class="node">
<title>SharedModule</title>
<polygon fill="#8dd3c7" stroke="black" points="122.42,-84.8 119.42,-88.8 98.42,-88.8 95.42,-84.8 23.58,-84.8 23.58,-48.8 122.42,-48.8 122.42,-84.8"/>
<text text-anchor="middle" x="73" y="-62.6" font-family="Times,serif" font-size="14.00">SharedModule</text>
</g>
<!-- SharedModule&#45;&gt;AllenamentiModule -->
<g id="edge11" class="edge">
<title>SharedModule&#45;&gt;AllenamentiModule</title>
<path fill="none" stroke="black" d="M73,-84.89C73,-107.93 73,-144.8 73,-144.8 73,-144.8 926.48,-144.8 926.48,-144.8"/>
<polygon fill="black" stroke="black" points="926.48,-148.3 936.48,-144.8 926.48,-141.3 926.48,-148.3"/>
</g>
</g>
</svg>
